<?xml version="1.0" encoding="utf-8"?>
<!-- Generator: Adobe Illustrator 28.1.0, SVG Export Plug-In . SVG Version: 6.00 Build 0)  -->
<svg version="1.1" id="Layer_1" xmlns="http://www.w3.org/2000/svg" xmlns:xlink="http://www.w3.org/1999/xlink" x="0px" y="0px"
	 viewBox="0 0 906 906" style="enable-background:new 0 0 906 906;" xml:space="preserve">
<style type="text/css">
	.st0{fill:#998675;}
	.st1{fill:#FFFFFF;}
	.st2{fill:#2FAFFF;}
	.st3{fill:#00A3FF;}
	.st4{fill:#B9D580;}
	.st5{fill:#FCEE21;}
	.st6{fill:#17A9FF;}
</style>
<g>
	<path class="st0" d="M9.7,817.4c-23.2,0-43.9-7.3-63.5-22.4c-30.3-23.4-57.2-51.3-83.2-78.4c-9.3-9.7-18.9-19.7-28.5-29.3
		c-4.7-4.7-7.4-10.5-9.5-15.2c-0.8-1.7-1.9-4.1-2.6-5.2c-17.9-9.4-34.8-18.9-51.1-28.1c-58.6-33-109.3-61.5-167.7-61.5
		c-30.4,0-61.5,7.6-95.2,23.3l-0.3,0.1l-0.3,0.1c-21.8,8.9-38,13.1-51,13.1c-22.5,0-33.1-12.5-41.7-22.5
		c-11.4-13.4-23.1-27.2-71-27.2l-1,0l-0.6,0c-26.1-2-55.7-11.6-83.4-27.1c-29.1-16.3-53.5-37.9-68.8-60.9
		c-19.3-29-24.4-59.8-14.7-89l0.7-2.2l1.3-1.9c18.5-25.7,41.3-55,70-77.4l1.7-1.3c30.5-23.8,54.6-42.6,60.2-80.7
		c3.2-21.9,22.8-39.2,40-54.5c1.6-1.4,3.1-2.7,4.6-4.1c30.6-27.5,45.7-52.3,46-75.8c0.3-24.8-15.1-51.1-48.5-82.8
		c-29.3-27.8-50.4-63.7-70.7-98.4c-7.8-13.2-15.8-26.9-24-39.7c-1.2-1.9-2.4-3.7-3.6-5.6c-12.6-19.5-25.7-39.7-33-62.4
		c-2.8-8.9-3.7-21.4-2.3-33.3c1.9-16.1,7.3-26.6,15.9-31.3c38-20.5,81.5-40,137.1-61.3l0.1,0c33.9-12.7,34.8-30.9,32.5-43.4
		c-4.1-22.8-26.7-52.5-58.8-77.5c-31.1-24.2-66-39.9-88.7-39.9c-1.1,0-2.2,0-3.2,0.1l-0.9,0.1l-0.9,0c-29.3-1.5-59.3-17.4-82.1-43.8
		c-25.2-29.1-38.4-66.3-35.4-99.4c0.4-4.6,0.7-9.7,1.1-15.1c1.7-28.3,3.5-57.6,22.2-69.2c35.9-22.3,56-55.6,77.2-90.7
		c10.7-17.8,21.8-36.2,35.2-53.1c13.7-17.4,35.3-26,56.2-34.3c18-7.2,35.1-14,43.7-25.1c7-9,7.8-26.6,8.6-43.7
		c1-21.7,2-44.1,14.7-60.7l0.6-0.8l0.7-0.7c63.8-63.3,157.5-85.1,248.2-106.3c35-8.2,68.3-15.9,99.6-25.9
		c-7.1-35.1-6.5-69.2,1.5-103.8c8.2-35,24.3-70.6,49.2-109.1c12.9-20,24.5-41.6,35.6-62.6c24.7-46.5,50.3-94.5,94.4-131.8
		c6-21-7.2-41-21-62.1c-13.6-20.6-27.6-41.9-19.6-64.4c6.4-18.1,25.7-31.8,60.8-43.1c44.9-18.9,91.3-32.3,141.8-40.9
		c44.8-7.7,91.9-11.4,144-11.4c91.2,0,184.3,11.7,274.3,23l13.1,1.7c6.7,0.6,13.5,1.3,20.1,1.9c16.3,1.7,33.2,3.4,49.2,3.4
		c11.9,0,22.2-0.9,31.5-2.9c21.7-4.5,43.7-6.8,65.3-6.8c97.9,0,180.3,46.8,241.2,87.5l0.2,0.1l0.2,0.2
		c32.5,23.4,36.2,59.2,39.2,87.9c3.9,37.3,6,57.8,51.6,59l1.1,0l1.1,0.2c67.8,11.9,112.1,63.6,154.8,113.6
		c21.1,24.7,41,48,63.3,66.3c43.1,32.8,96.8,57.2,148.8,80.9c128.2,58.4,260.8,118.8,237.8,306.2c-2.4,31.9-22.1,68.7-45.8,85.8
		c-38.2,29.1-34,58.6-28.2,99.4c7.2,50.9,16.1,114.1-59.5,189.5c-4.9,37.2-20.6,64.2-48.1,82.5c-24.4,16.3-54.4,23.2-83.4,29.9
		c-51.6,12-96.1,22.3-106.7,79.2c-5.7,46.2-17,75.7-35.4,93c-17.6,16.4-38.3,18.4-55,20c-23.3,2.2-37.6,3.5-47,35.7
		c-1.3,83.9-92.9,153.8-147.7,188.2c-78.3,49.1-173,84.1-235.6,87c-61.3,4.5-99.3,35.5-127.1,103.9c-15.7,38.6-53.1,85.1-91.5,95.1
		c-68.3,17.8-104,66.2-141.8,117.4c-6,8.2-12.2,16.6-18.6,24.9c-36.9,56-43.7,109.5-50.4,161.2c-6,46.7-11.6,90.8-37.6,134.6
		c-28.9,48.9-78.3,88.5-155.3,124.5l-0.4,0.2l-0.4,0.2c-3.6,1.4-7.1,2.9-10.7,4.3C65.8,806.2,38.4,817.4,9.7,817.4z"/>
	<path class="st1" d="M-241-1145.1c-116.3,40.1-267.3,45.9-354.9,132.8c-19.7,25.7-3.6,79.1-23.4,104.5
		c-22.3,28.5-77.6,31-99.9,59.4c-38.5,48.9-57.9,111.1-116.2,147.3c-14.9,9.3-13.9,47.6-16.2,73c-5.3,57,45.7,124,103.3,126.9
		c77.1-5.5,246.8,143.8,124.6,189.8c-46.1,17.7-91.9,37.1-135.3,60.5c-8.6,4.6-11,32.7-6.5,46.8c7.3,22.9,21.7,43.9,34.9,64.4
		C-701-93.6-677-41-638.2-4.2C-570,60.4-565.4,113-636,176.4c-15.8,14.2-37,31.4-39.7,49.6c-6.6,44.9-35.6,66.8-67.5,91.7
		c-26,20.3-47.6,47.4-67.1,74.4c-26.2,79,81.4,151.9,153.9,157.3c115.1-0.2,57.3,79.1,158.4,37.7c134.8-62.6,212.5,6.6,328.3,67.1
		c6.9,3.6,8.6,16.3,14.8,22.6c36.1,36.1,70,75.4,110.2,106.4c47.4,36.5,93.5,13.6,144.5-6.9C358.2,655.4,232.1,520,337.2,360.8
		c46.7-61,83.8-126,168.8-148.1c33.1-8.6,67.1-51.2,81.4-86.2c27.3-67,66.8-108,140.1-113.2c116.8-5.4,369.6-133.2,369.3-262.3
		c27.8-100.8,117.1,18,137.6-148.8c25.3-138.1,223.5-43.7,238.7-196.4c136.8-132.2-6.2-218.5,93.1-294c21-15,37.9-48.7,39.8-75.2
		c31-250.6-229.8-258.8-380.9-373.8c-69.3-56.8-117.1-160.3-211.4-176.8c-103-2.6-36.3-104.4-99.2-149.7
		c-88.3-59.1-182.6-101.8-295.1-78.5c-33.6,7-70.4,0.8-105.5-2.2c-191.2-24-383.2-50.5-566.5,26.8c-126.2,40.3,15.1,92.7-12.5,164.3
		c-63.9,52.1-87.9,128.5-130.2,193.7C-240.5-1290.2-260.8-1222.7-241-1145.1z"/>
	<path class="st0" d="M1.8,845.2c-23.7,0-44.9-7.5-64.8-22.9c-31-23.9-58.4-52.4-85-80.1c-9.5-9.9-19.3-20.1-29.1-29.9
		c-4.8-4.8-7.5-10.7-9.7-15.5c-0.8-1.7-1.9-4.2-2.7-5.3c-18.5-9.7-35.9-19.5-52.7-28.9c-59.6-33.5-111-62.5-170.4-62.5
		c-31,0-63,7.8-97.7,23.8l-0.3,0.1l-0.3,0.1c-22.2,9.1-38.8,13.4-52.1,13.4c-23,0-33.9-12.8-42.6-23c-11.6-13.6-23.6-27.7-72.3-27.7
		l-1.1,0l-0.6,0c-57-4-123.7-42.4-155.2-89.4c-20-29.8-25.3-61.4-15.4-91.4l0.7-2.2l1.4-1.9c18.9-26.3,42.2-56.2,71.5-79.1l1.7-1.3
		c31.1-24.3,55.7-43.5,61.5-82.4c3.3-22.3,23.2-40,40.8-55.6c1.6-1.4,3.2-2.8,4.7-4.2c31.3-28.1,46.6-53.4,47-77.4
		c0.3-25.3-15.4-52.2-49.6-84.6c-30-28.4-51.4-65.1-72.2-100.5c-7.9-13.4-16-27.3-24.4-40.3c-11.3-16.1-25.2-37.3-33.5-59.1
		c-11.4-30-9.6-54.5,5.3-72.8l1.9-2.3l2.7-1.4c38.8-20.9,83.3-40.8,140-62.6c34.6-13,35.5-31.7,33.2-44.5
		c-9.6-52.9-101.7-119.8-150.7-119.8c-1.1,0-2.1,0-3.1,0.1l-0.9,0.1l-0.9,0c-29.9-1.5-60.5-17.8-83.9-44.8
		c-25.8-29.7-39.3-67.7-36.1-101.5c0.4-4.7,0.8-9.9,1.1-15.5c1.8-28.9,3.6-58.8,22.7-70.7c36.7-22.8,57.2-56.7,78.8-92.7
		c11-18.2,22.3-37,35.9-54.3c14-17.7,36-26.6,57.4-35.1c18.4-7.4,35.8-14.3,44.7-25.6c7.2-9.1,8-27.2,8.8-44.6
		c1-22.2,2.1-45.1,15-62l0.6-0.8l0.7-0.7c64.9-64.6,160.7-86.9,253.4-108.5c35.9-8.4,70-16.3,101.9-26.5c-7.2-35.9-6.7-70.7,1.6-106
		c8.3-35.7,24.8-72.2,50.2-111.4c13.2-20.4,25-42.5,36.4-63.9c25.3-47.5,51.4-96.6,96.4-134.7c6.2-21.2-7.2-41.5-21.4-63
		c-13.9-21.1-28.4-43-20.2-66c6.5-18.5,26.3-32.6,62.1-44.1c85.6-35.9,181.3-53.4,292.3-53.4c93.7,0,189.4,12.1,281.9,23.8l11.3,1.4
		c6.9,0.6,13.9,1.3,20.6,2c16.7,1.7,33.9,3.4,50.2,3.4c12.1,0,22.7-1,32.2-2.9c22.2-4.6,44.7-6.9,66.7-6.9
		c100,0,184.2,47.8,246.3,89.4l0.2,0.2l0.2,0.2c33.2,24.1,37,60.6,40,89.9c4,38,6.1,58.9,52.7,60.1l1.1,0l1.1,0.2
		c69.2,12.1,114.2,64.8,157.8,115.7c21.7,25.3,42.1,49.2,65,67.9c44,33.5,98.9,58.5,152,82.7c64.8,29.5,131.8,60,178.7,106.2
		c53.8,53,74.8,120.5,64.1,206.5c-2.5,32.6-22.5,70.2-46.8,87.6c-38.9,29.4-34.6,59.5-28.8,101.3c7.3,52.2,16.4,116.9-60.8,193.9
		c-5,38-21.1,65.6-49.1,84.3c-24.9,16.6-55.5,23.7-85.2,30.6c-52.7,12.2-98.2,22.8-109,80.9c-5.8,47.1-17.3,77.3-36.2,95
		c-18,16.8-39.2,18.8-56.3,20.4c-23.9,2.3-38.4,3.7-47.9,36.4c-1.5,86.1-95.1,157.4-151.2,192.4C896.6,0.4,800,36,736,39.2
		c-62.6,4.5-101.5,36.3-129.9,106.1c-16.1,39.5-54.3,86.9-93.4,97.1c-69.8,18.2-106.2,67.6-144.8,119.9c-6.1,8.3-12.5,17-19,25.4
		c-37.5,56.9-44.5,111.5-51.4,164.3c-5.9,45.8-12,93.1-38.5,137.9c-29.6,50.1-80,90.5-158.5,127l-0.4,0.2l-0.4,0.2
		c-3.7,1.5-7.3,2.9-10.9,4.4C59.1,833.8,31.2,845.2,1.8,845.2z M-381.1,205.6c-13.4,0-25.4,2.5-32.8,6.9
		c-55.5,32.8-107.4,75.8-155.1,117.4c-16.4,14.3-21.2,24.2-20.2,28.8c1.1,5,10.8,13,34.7,20.3c9,2.7,17.9,5.5,26.9,8.2
		c44.8,13.8,91.2,28,137.4,36.6c35.2,6.5,71.6,10.8,106.9,15c38.7,4.5,78.6,9.2,117.7,17l0.9,0.2C-102.6,468.2-38.3,480.9,17,511
		c22.1,12,47.2,18.4,72.6,18.4c50.6,0,105.8-27.1,114.9-87.7c12.5-102.8,84-157.5,153.3-210.4c18.6-14.2,37.8-28.9,55.5-44.3
		c33-29.1,75.9-68,114.3-110c8.2-9,15.4-18.7,22.9-29c21.6-29.3,46-62.6,96.6-72c37.3-6.9,73.7-22.1,112.2-38.2
		c1.2-0.5,2.4-1,3.7-1.5c-0.4-0.1-0.8-0.1-1.2-0.2c-29.9-5.1-58.1-10-86.3-10C663-73.9,651.3-73,640-71
		C572.7-47.2,521.3-0.9,466.9,48.1c-48.3,43.5-98.3,88.6-160.4,116.2c-45.6,44-100.6,91.8-176.4,108.1c-22,4.7-37.4,7.9-50.1,7.9
		c-17.5,0-30-6.5-39.2-20.4c-7.7-11.6-13.5-28.9-21.6-52.9c-7.2-21.4-25.1-48.7-32.8-54.8c-6.5,0.9-13.4,1.4-21,1.4
		c-13.7,0-27.7-1.5-41.2-2.9c-13.5-1.4-26.2-2.8-38.5-2.8c-27.5,0-55.6,5.9-74.5,48.6c-5.4,12.3-22.3,17.8-32.5,17.8
		c-0.4,0-0.8,0-1.2,0c-0.8,0-1.5,0-2.3,0c-10.2,0-20.8,2.6-32,5.4c-12.7,3.1-25.7,6.4-40.1,6.4c-15.2,0-29.2-3.7-42.8-11.4
		C-349.5,209.1-365.4,205.6-381.1,205.6z M-427.3-195.1c-13,0-26.9,1.2-40.3,2.3c-8.6,0.7-17.4,1.5-26.1,1.9
		c-9.4,0.5-16.9,4.7-21.6,12.2c-6.3,10.1-6.7,24.3-1,38.1l0.4,0.8l0.2,0.9C-498.1-75.7-459.4-32-413.6,15.9c2-2.6,3.9-5,5.7-7.4
		c9.5-12.3,17-22,25.5-31c5.5-5.9,12.1-10.7,18.5-15.4c5.8-4.2,15.4-11.4,16.2-15l0.1-0.4l0.1-0.4c13.9-51.4,10.7-118.2-44-137.4
		C-401.6-193.8-413.3-195.1-427.3-195.1z M882.1-165.4c4.2,2.8,11.3,6.5,16.3,7.7l0.3,0.1l0.3,0.1c9.1,2.6,17.5,3.9,24.9,3.9
		c0,0,0,0,0,0c44,0,57.3-46.8,71.4-113c0,0,0,0,0-0.1c-1.4,1.1-2.8,2.2-4.1,3.3c-33.5,26.8-65.1,52.1-95.9,78.4
		C889.5-180.1,884.4-172.3,882.1-165.4z M838.2-1313.2c16.1,9.2,28.8,21.9,34.9,34.9c8.6,18.2-19.5,40.8-27.8,45.3
		c-26.6,14.3-31.8,33.2-33.4,70.3c-0.8,18.6-4,36.9-7.1,54.6c-7.1,40.1-13.7,78.1,8.3,115.5c6.5,11,1.3,22.9-3.3,33.5
		c-2,4.5-4.2,9.5-4.6,12.7c-1.8,13.1-4.5,26.5-7.2,39.4c-6.4,31.1-12.5,60.4-5.7,84.8c17.5,62.2,8.5,109.3-29.9,157.5
		c-10.5,13.2-16.8,47.8-16,88c0.6,31.3,5.2,57.2,10.3,71.8c13.1-5.7,26.1-11.3,38.8-16.8c39.1-16.9,76.1-32.9,113.3-49.8l0.4-0.2
		c48.7-20.6,64.7-57.2,74.8-109.6l29.1-1.4l9.1,31.2c37.3-33.2,78.4-61.2,125.8-63.4l1.2-0.1l1.2,0.1c37,4.4,63.7,28.3,76,52.2
		c2.2-1.2,4.4-2.5,5.7-3.3c1.6-1,3.2-1.9,4.6-2.7c6.5-3.4,13.9-5.2,22-5.2c20.3,0,45.9,10.8,78.2,33l10.8,7.4l-5.8,11.7
		c-3.4,6.7-8,14.9-12.6,22.9c7.7-0.8,16.2-1.2,25.6-1.2c13.6,0,28.6,0.8,43.4,1.8c3.5-7.2,7.1-14.4,10.5-21.5
		c32.1-64.9,62.5-126.3,31.3-191.2c-13.5-3.3-27.3-6-40.7-8.7c-36.4-7.3-74.1-14.8-106-32.9l-0.3-0.2
		c-43.4-25.9-73.2-61.1-91.1-107.7c-17.3-44.9-21.8-96.3-23.8-140.5l-0.7-14.9l14.9-0.7c1.4-0.1,2.8-0.1,4.2-0.1
		c31.5,0,46.5,18.3,57.5,35.6c21.7-7.4,42.6-11.1,62.1-11.1c72.8,0,118.8,50,163.3,98.3c1.4,1.6,2.9,3.2,4.4,4.7
		c1-21.9,0.2-42.7-8.5-51.7c-24.7-25.7-53.7-46.7-84.4-69c-20.3-14.8-41.4-30-60.9-46.7c-61.8-52.8-121.3-78.2-187-80.1l-3.4-0.1
		l-3.1-1.6c-23.4-12.2-45.2-28.5-66.3-44.2c-29.6-22.1-57.6-43-88.9-52.9l-0.3-0.1c-23.3-7.9-36.6-17.8-41.7-31.1
		c-6-15.5,1.1-30.4,8.5-43.8c-38.7-16.5-69-37.5-92.1-63.7c-28.2-31.9-45.2-70.9-52.1-119c-0.1-0.4-1.9-4.7-14.6-12.3
		c-10-6-22.7-11.7-33.9-16.7c-3.2-1.5-6.4-2.9-9.3-4.2c-1.3-0.6-3.5-0.9-6.4-0.9c-3.1,0-6.7,0.3-10.4,0.7c-4.4,0.4-8.9,0.9-13.5,0.9
		c-6.1,0-11.3-0.8-16-2.4c-9.9-3.4-18.9-5.1-26.8-5.1c-8.1,0-32.7,0-42.9,41.5c-5.4,22-15.4,37-30.7,46.1
		c-15.3,9.1-33.4,10.5-48.9,10.7c-15.7,0.2-31.3,2-47.7,3.9c42.4,57.1,159.9,120.6,248,168.2
		C785.4-1343.7,815.8-1327.3,838.2-1313.2z M-457.7-627.3c13.7,11.5,29.6,20.7,46.4,30.5c2.8,1.6,5.7,3.3,8.6,5
		c2.1-3.5,4.2-6.9,6.2-10.3c9.8-16,19-31.1,20.6-45.6c6.8-63.4,40.4-107.6,72.9-150.3c8.8-11.6,17.2-22.6,25-34l7.9-11.4l12,7
		c10.5,6.1,20.5,11.6,30.1,16.9c20.3,11.2,39.5,21.7,56.9,34.7c9.1,6.7,17.8,10.3,25.1,10.3c17.4,0,28.2-20.8,31.2-41.4
		c4-27.2-4.4-60.3-32.3-68.7l-0.9-0.3l-0.9-0.4c-21.4-9.5-33.5-21.2-37-35.8c-4.6-19.4,7.6-37.6,18.7-51.3c3.5-4.3,8-8,11.9-11.3
		c2.1-1.7,5-4.2,6.5-5.8c-0.1-21.8-3.3-43.8-7-63.5c-1,0-2.1-0.1-3.2-0.1c-2.7,0-4.7,0.1-6.1,0.3c-20.9,32.8-46.9,49.4-77.3,49.4
		c-20.8,0-43.2-7.6-70-23.7c-1.5,2-3,3.9-4.5,5.9c-9.2,12.2-17.9,23.6-30.6,31.1l-0.6,0.3l-0.6,0.3c-38.7,18.5-39.5,48.7-40.4,83.7
		c-1.1,40.6-2.4,91.1-81.3,102.5l-0.4,0.1l-0.4,0c-37.8,3.5-67,12.5-87.2,45.2l-0.5,0.7l-0.5,0.7c-14.1,17.8-27.6,27.4-39.4,35.9
		c-12.2,8.7-23.2,16.6-35,32.8c7.6,0.7,14.9,1.2,22.2,1.2c2.2,0,4.4-0.1,6.5-0.2c1.4-0.5,4.7-2.9,6.9-4.5c3.3-2.4,7-5.2,11.4-7.3
		c14.3-7.3,27.1-10.9,39.2-10.9c33.2,0,50.7,26.8,66.1,50.5C-474.2-647.7-466.6-636.1-457.7-627.3z"/>
	<path class="st2" d="M-241-1145.1c-19.8-77.6,0.5-145.1,45.7-214.7c42.3-65.2,66.3-141.6,130.2-193.7
		c28.1-70.9-114-123.9,12.5-164.3c183.4-77.1,375.4-50.9,566.5-26.8c35.1,3,71.9,9.2,105.5,2.2c112.5-23.3,206.8,19.4,295.1,78.5
		c63,45.7-3.8,147,99.2,149.7c94.4,16.5,141.9,120.2,211.5,176.8c150.6,115,412.3,123.3,380.9,373.8c-1.9,26.5-18.8,60.2-39.8,75.2
		c-99.1,74.7,43.5,162-93.1,294c-15.3,152.8-213.5,58.3-238.7,196.4c-20.4,166.7-110,48.2-137.6,148.8
		c0.1,130.1-253,256.7-369.3,262.4c-73.4,5.3-112.9,46.2-140.1,113.2c-14.2,35-48.3,77.6-81.4,86.2C421,234.9,384,299.8,337.2,360.8
		C232.5,519.1,357.6,656.3,99.9,776.2c-51.1,20.4-97.1,43.4-144.5,6.9c-40.2-31-74.1-70.2-110.2-106.4c-6.3-6.3-7.9-19-14.8-22.6
		c-116.7-61-192.7-129.4-328.3-67c-101.1,41.4-43.4-38-158.4-37.7c-72.8-5.1-179.9-78.6-153.9-157.3c19.5-27,41.1-54.1,67.1-74.4
		c31.9-24.9,60.9-46.8,67.5-91.7c2.7-18.2,23.9-35.4,39.7-49.6c70.6-63.4,66-115.9-2.3-180.6C-677-41-701-93.6-730.7-139.6
		c-20.2-28.8-53.7-80.4-28.5-111.2c43.4-23.4,89.2-42.8,135.3-60.5c121.4-45.7-45.9-194.9-124.5-189.8C-806-504-857-571-851.7-628
		c2.3-25.4,1.3-63.7,16.2-73c58.3-36.3,77.7-98.4,116.2-147.3c22.4-28.4,77.7-31,99.9-59.4c19.9-25.4,3.7-78.8,23.4-104.5
		C-508.6-1099.2-357.1-1105-241-1145.1z M1014.6-624c48.8-46.4,89-73.7,134.1-75.8c37.5,4.4,61.5,32.4,68.3,53.5
		c6.5,4.7,20.8-5.8,26.7-8.9c12.6-6.7,36.2-6.3,84.7,27c-7.8,15.6-23,39.7-29.2,51.7c-6.2,15.6-2.6,23.6-5,34.3
		c-2.7,11.8-12.7,27.2-46.2,41.3c20.2-88,68.3-87.8,159.2-81.4c37.6-79.8,88.4-156.6,43-241.2c-52.1-13.5-106.6-17.4-149.6-41.8
		c-87.3-52.1-103-136.5-107.6-236.1c31.8-1.6,42.4,19,54.6,38.8c126.2-49.8,180.7,39.9,248.8,108.9c2.2-36.5,7.8-78.4-10.4-97.4
		c-42.9-44.6-98.8-76.1-146.4-116.7c-57.3-48.9-119.8-81.5-196.3-83.7c-54.1-28.2-100.2-79.9-157.6-98.1
		c-53.4-18.2-30.8-40.2-16.8-68.3c-84.6-31.7-137.4-85.1-150.6-177.2c-2.6-18-41.7-33.3-66.4-44.6c-13.4-6.2-33.2,2.6-47.8-2.3
		c-47.8-16.2-78,2-89.1,47.1c-9.3,37.9-32.4,45-65.3,45.3c-24.1,0.3-48.2,4.2-72.3,6.6c39.4,88.4,265.2,187.8,353,242.9
		c11.7,6.7,23.6,16.9,29.1,28.4c2.1,4.4-11.8,20.5-21.4,25.6c-34.4,18.4-39.7,45.5-41.3,82.9c-2.5,59.6-32,118.5,3.3,178.3
		c4.4,7.5-8.2,23.8-9.9,36.5c-5.9,43.6-23.5,91.1-12.5,130.3c16.1,57.3,8.6,99.3-27.2,144.1c-29.2,36.6-21.8,161-1,188.6
		c57.1-24.9,111.5-47.9,165.3-72.3c54.3-23,72.9-64.9,83.7-120.6C1003.6-661.5,1007.6-648,1014.6-624z M819.5-70.3
		C754-77.9,697.4-96.4,636.2-85.6C501.9-38.7,426.8,95.5,298,151.7c-49.3,47.8-101,91-171.1,106.1c-69.3,14.9-70.5,12.9-93.5-55.5
		C24.9,177-1,135-12.8,137c-64.3,11-148.6-39.4-189.7,53.5c-2.2,5-12.8,9.2-19.3,8.9c-36.4-1.4-69.5,25.3-110.3,2.2
		c-23.5-13.3-66.9-15.3-89.4-2.1c-56.3,33.3-107.8,75.8-157.4,119c-40.1,34.9-32.5,58.8,20,74.7C-504,409.9-449.2,428-393,438.5
		c74.2,13.8,150.4,17.2,224.4,31.9c60.9,12.1,124.9,24.7,178.5,53.8c82.9,45.1,195.5,13.3,209.5-80.5
		c14.9-123.6,121-173.4,203.8-245.4c40.1-35.3,79.5-71.8,115.5-111.1C572,50.7,589.1,2.1,649.8-9.2
		C706.3-19.7,759.5-47.9,819.5-70.3z M-265.5-823.5c33.1,19.3,61.2,32.5,85.6,50.6c81.5,60.3,115-102.9,37.2-126.1
		c-39.2-17.4-34-37.8-12.7-63.9c7-8.6,21.8-16.1,21.8-24.2c0.2-26.4-4.1-53-9.3-79c-0.4-1.9-29.2-3.9-32.4,1.5
		c-39.6,66.1-89.6,51.2-140.2,17.7c-14.8,16.9-24.5,35-39.5,43.8c-99.8,47.9,7.9,166.8-117.4,184.9c-39.4,3.7-74.7,13.5-98.6,52.3
		c-31.2,39.3-56.6,33.1-88.4,90.7c18.5,1.4,37,4.3,55.4,3.3c8.2-0.4,15.6-9.4,23.9-13.4c66.3-33.9,75.6,33.4,112.3,69
		c21.2,17.9,46.9,30.4,70.7,45.3c12.5-25,33.3-49.1,36.1-75.2C-352.8-721.8-302.5-769.9-265.5-823.5z M-412.5,38.8
		c18.7-23.5,28.9-38.1,41-51c12.4-13.3,35.3-23,38.4-37.5c15.7-58.2,10.5-133.3-54-155.6c-33.2-9.5-71.4-2.5-107.4-0.7
		c-33.3,1.7-50.1,36.3-35.7,71.1C-510-62.6-463.8-14.7-412.5,38.8z M1020-305.7c-47.8,38.6-91.9,73-134.4,109.3
		c-9.8,8.4-18.3,22.4-19.7,34.7c-0.6,5.2,17.9,16,29,18.6C998.1-113.9,999.7-235.7,1020-305.7z"/>
	<path class="st3" d="M819.5-70.3c-60,22.4-113.2,50.6-169.7,61.1C589.1,2.1,572,50.7,538.6,87.2c-36,39.4-75.4,75.8-115.5,111.1
		c-82.9,72-188.9,121.7-203.8,245.4c-14,93.8-126.6,125.6-209.5,80.5c-53.5-29.1-117.6-41.7-178.5-53.8
		c-74-14.7-150.2-18-224.4-31.9c-56.2-10.5-111-28.6-165.9-45.2c-52.6-15.9-60.1-39.8-20-74.7c49.6-43.2,101.1-85.7,157.4-119
		c22.4-13.2,65.8-11.2,89.4,2.1c40.8,23.1,73.9-3.7,110.3-2.2c6.5,0.3,17.1-3.9,19.3-8.9C-161.5,97.6-77.2,148-12.8,137
		c11.8-2,37.8,40,46.3,65.4c23,68.4,24.2,70.4,93.5,55.5c70-15.1,121.8-58.3,171.1-106.1C426.9,95.5,501.9-38.7,636.2-85.6
		C697.4-96.4,753.8-77.9,819.5-70.3z"/>
	<path class="st3" d="M37.2-1297.2c254.6-320.2,167.5,25.5,376.1,287.2c51.7,65.7,105.8,109.3,141,134.7c16.1,33,32.1,66,48.2,99
		c-16.1,420,28.7,592-365.6,836.7C222.4,71.9,100.7-9.3,104.6-22.3c86.1-372.8,362.1-353.8,208-803.3
		c-51.5-187.5-77.3-281.2-150.6-308.1C73.4-1166.2-18.8-1077-46-1107C-59.2-1121.7-56.1-1164.1,37.2-1297.2z"/>
</g>
</svg>
