<?xml version="1.0" encoding="utf-8"?>
<!-- Generator: Adobe Illustrator 25.2.1, SVG Export Plug-In . SVG Version: 6.00 Build 0)  -->
<svg version="1.1" id="Layer_1" xmlns="http://www.w3.org/2000/svg" xmlns:xlink="http://www.w3.org/1999/xlink" x="0px" y="0px"
	 viewBox="0 0 20 20" style="enable-background:new 0 0 20 20;" xml:space="preserve">
<style type="text/css">
	.st0{fill:#ADADAD;}
	.st1{fill:#A2A2A2;}
	.st2{fill:#AFAFAF;}
	.st3{fill:#898989;}
	.st4{fill:#A0A0A0;}
	.st5{fill:#6D6D6D;}
	.st6{fill:#5E5E5E;}
	.st7{fill:#8C8C8C;}
	.st8{fill:#565656;}
	.st9{fill:#7C7C7C;}
	.st10{fill:#797979;}
	.st11{fill:#5C5C5C;}
	.st12{fill:#616161;}
	.st13{fill:#999999;}
	.st14{fill:#A5A5A5;}
	.st15{fill:#C4C4C4;}
	.st16{fill:#D8D8D8;}
	.st17{fill:#919191;}
	.st18{fill:#DDDDDD;}
</style>
<g>
	<g>
		<path class="st0" d="M19.53,10.61c-0.72-0.1-1.45-0.21-2.17-0.31c-0.22-0.39-0.44-0.77-0.65-1.16c-0.06-0.67-0.12-1.34-0.16-1.8
			c0.68-0.47,1.25-0.86,1.81-1.25C18.74,7.6,19.14,9.11,19.53,10.61z"/>
		<path class="st1" d="M6.96,4.74c-0.95,0.35-1.9,0.69-2.84,1.04C5.34,4.56,6.56,3.33,7.79,2.1c0.3,0.34,0.6,0.67,0.89,1.01
			c0,0-0.22,0.01-0.22,0.01C8.3,3.32,8.09,3.5,7.93,3.69C7.59,4.04,7.3,4.4,6.96,4.74z"/>
		<path class="st2" d="M12.7,1.99"/>
		<polygon class="st3" points="15.63,12.93 12.89,11.3 9.62,10.75 7.12,9.09 5.85,6.4 5.28,8.57 6.4,11.3 8.16,13.61 12.37,15.62 
			15.08,14.53 		"/>
		<path class="st4" d="M12.89,11.3c0-0.51,0-1.02,0-0.99c1.27-0.47,2.28-0.85,3.28-1.23c0.18,0.02,0.35,0.04,0.53,0.06
			c0.22,0.39,0.44,0.77,0.65,1.16c-0.57,0.88-1.15,1.75-1.73,2.63C14.72,12.39,13.8,11.84,12.89,11.3z"/>
		<polyline class="st5" points="2.68,11.83 2.76,12.91 2.81,13.92 3.44,15.17 4.29,16.16 10.09,17.56 12.37,15.62 7.36,15.27 
			4.44,11.6 5.28,8.57 		"/>
		<polyline class="st6" points="11.24,19.91 12.51,19.45 14.01,19.18 15.75,18.62 16.54,17.81 17.27,16.81 17.5,16.3 15.08,14.53 
			12.37,15.62 10.09,17.56 		"/>
	</g>
</g>
<polyline class="st7" points="6.96,4.74 5.85,6.4 5.28,8.57 2.68,11.83 2.57,8.9 2.93,7.49 4.12,5.78 "/>
<polyline class="st8" points="4.29,16.16 5.28,17.34 6.15,17.9 7.58,18.33 8.75,18.74 9.91,19.53 11.24,19.91 10.09,17.56 "/>
<polyline class="st9" points="17.5,16.3 18.1,15.47 18.3,14.38 18.95,13.32 19.29,12.09 19.53,11.25 19.53,10.61 17.35,10.3 
	15.63,12.93 15.08,14.53 "/>
<polygon class="st10" points="12.37,15.62 8.16,13.61 6.4,11.3 5.28,8.57 4.44,11.6 7.36,15.27 "/>
<path class="st11" d="M12.89,10.31"/>
<path class="st12" d="M7.12,9.09"/>
<polygon class="st13" points="6.96,4.74 8.34,6.67 10.11,8.35 12.89,10.31 12.89,11.3 9.62,10.75 7.12,9.09 5.85,6.4 "/>
<polygon class="st14" points="16.54,7.35 16.7,9.14 16.17,9.09 12.89,10.31 10.11,8.35 8.34,6.67 6.96,4.74 8.46,3.12 8.68,3.11 
	9.43,4.16 11.14,5.26 13.73,6.83 "/>
<polygon class="st15" points="16.54,7.35 15.37,5.23 13.46,3.84 11.04,3.07 14.13,2.95 16.21,4.55 16.83,5.88 "/>
<polygon class="st16" points="14.94,2.06 16.61,2.69 17.57,3.89 18.04,4.81 18.35,6.09 16.54,7.35 16.83,5.88 16.21,4.55 
	14.13,2.95 "/>
<polygon class="st17" points="5.08,2.73 5.3,2.4 5.37,1.8 5.14,1.32 4.79,1.05 4.41,1.21 4.22,1.49 4.18,1.91 4.34,2.32 4.66,2.7 
	"/>
<polygon class="st14" points="0.73,6.32 1.69,6.4 2.1,6.92 2.1,7.43 1.78,7.51 1.35,7.3 0.8,7.06 0.52,6.61 "/>
<polygon class="st14" points="2.58,4.74 1.92,4.93 1.3,4.84 1.06,4.38 1.45,3.89 2.23,3.89 2.67,4.17 "/>
<polygon class="st14" points="2.39,1.07 2.91,1.62 2.78,2.34 2.65,3.05 2.1,3.38 1.6,2.83 1.04,2.88 0.88,2.04 1.11,1.24 1.04,0.82 
	1.47,0.52 2.1,0.52 "/>
<path class="st14" d="M3.76,4.35"/>
<path class="st14" d="M4.15,4.46"/>
<polygon class="st18" points="14.94,2.06 12.99,1.48 10.74,1.41 7.79,2.1 8.68,3.11 11.04,3.07 14.13,2.95 "/>
<polygon class="st2" points="16.54,7.35 15.37,5.23 13.46,3.84 11.04,3.07 8.68,3.11 9.43,4.16 11.14,5.26 13.73,6.83 "/>
</svg>
