<?xml version="1.0" encoding="utf-8"?>
<!-- Generator: Adobe Illustrator 28.1.0, SVG Export Plug-In . SVG Version: 6.00 Build 0)  -->
<svg version="1.1" id="Layer_1" xmlns="http://www.w3.org/2000/svg" xmlns:xlink="http://www.w3.org/1999/xlink" x="0px" y="0px"
	 viewBox="0 0 1000 1000" style="enable-background:new 0 0 1000 1000;" xml:space="preserve">
<style type="text/css">
	.st0{fill:#998675;}
	.st1{fill:#00A3FF;}
	.st2{fill:#2FAFFF;}
</style>
<g>
	<path class="st0" d="M-869.1,580c-1.7,11.6-4.7,52.2-13.9,53c-11,0.9-31.6-54.4-30.4-107.5c0.3-12.1,1.5-19.1,1.2-38
		c-0.3-17.1-1.8-38-6.3-63.5c-7-39.9-11.7-53-13.4-56.8c-33.3-74-46.8-153-39.9-234.8c5.9-70.8,26.3-143.5,62.4-222
		c50.2-109.3,33.8-205.8-6.2-317c-2.7-7.4-5.5-15-8.2-22.3c-27.9-75.4-56.8-153.3,1.7-236.7c56.1-79.9,143.4-186.2,252.9-186.2
		c6.1,0,12.4,0.3,18.5,1c12.8,1.4,25.8,2.1,38.7,2.1c0,0,0,0,0,0c67.5,0,128.9-19.2,188.4-37.8c37.6-11.8,76.5-23.9,116.9-31.3
		c34.5-6.3,67.5-9.5,98.1-9.5c39.4,0,76.6,5.3,110.5,15.9c37.9,11.8,73,30.4,104.3,55.4c12.3,9.8,31.2,14.7,49.5,19.5
		c5.7,1.5,11.6,3,17.3,4.7c13.5,3.9,27.7,6.8,41.4,9.6c25.5,5.2,51.9,10.6,76.2,23c28.1,14.3,49.5,36.2,65.5,66.9
		c11.4,21.8,57.4,33.2,97.9,43.2c13.8,3.4,26.9,6.6,39.1,10.3c102.7,30.9,163.7,45.2,200.1,53.7c27.8,6.5,43.1,10.1,55.2,15.7
		c13.3,6.1,77.7,30,110.7,92.4c5,9.5,12.3,23.2,15.8,42.9c5.5,30.8-3.9,44.2,0,72c1.6,11.6,4.8,20.5,23.4,54.9
		C835.1-278.8,858-247.5,854-244c-4.3,3.7-28.3-34.5-60-45.7c-82.5-29.1-200.5,131.1-286,220.3C390.3,53.4,258.8,108.6-4.4,218.9
		C-393.3,382-848.4,440.8-869.1,580z"/>
	<path class="st1" d="M798-293c-3.9-9.3-26-38.9-36-89c-9.3-46.2,1-63.3-9-92c-6.3-18.1-22.8-46.9-102.9-83.8
		c-26-12-77.2-15.7-253.4-68.7c-51.6-15.5-127.1-24.8-146-60.9c-41.5-79.6-110.4-73.4-174.1-92.1c-24.6-7.2-52.9-11.6-71.9-26.8
		C-85.9-878.8-193.7-883.7-296-865c-115.6,21.2-216.5,81.6-348.4,67.2c-105.2-11.5-192.7,86.6-257.5,178.9
		c-59.3,84.5-21.7,161.9,8.3,245.2c38.3,106.3,59.8,210.6,5.8,328.3c-63.9,139.3-91.5,291.3-22.4,444.4c3.5,7.8,11.1,29.7,14.5,60.3
		c3.1,28-0.1,43.2-1.3,78.6c-1.5,40.7-2.6,72.2,2,81C-844.2,716.7,855.6-155.8,798-293z"/>
	<path class="st2" d="M-445.5,954.2c-7.9,0-16.4-0.3-25.1-0.9c-70.3-5-141.6-16.4-210.6-27.5c-6.4-1-12.7-2-19.1-3
		c-41.3-6.6-74-22.5-97.3-47.2c-22.9-24.4-37.4-58.1-42.8-100.1c-7-53.9-9.9-52.3-23.9-87.4c-16.8-42.2-29.3-50.9-29.7-78
		c-0.4-28.4,13-41.8,22-66c19.3-51.9-1.7-100.5-13.5-139.1c-53.7-175.8,3.3-390.3,22.4-432c57.6-125.6,31.5-237.4-5.3-339.6
		c-2.7-7.6-5.5-15.2-8.3-22.5c-27.6-74.3-51.3-138.5-1.9-209c52.3-74.4,132.8-173.4,228.4-173.4c5.1,0,10.2,0.3,15.2,0.8
		c13.9,1.5,28,2.3,42,2.3c72,0,135.8-19.9,197.4-39.2c36.8-11.5,74.8-23.4,113.3-30.4c32.8-6,63.9-9,92.7-9
		c77.5,0,141.6,21.2,196,64.7c17.3,13.8,39.3,19.5,60.7,25.1c5.7,1.5,11.1,2.9,16.4,4.4c14.7,4.3,29.5,7.3,43.8,10.2
		c49.4,10.1,92.1,18.7,121.2,74.4c17.6,33.8,68.3,46.3,117.3,58.4c13.4,3.3,26.1,6.5,37.6,9.9c42.1,12.7,85.3,23.8,127.1,34.5
		c41.6,10.7,84.6,21.7,126.2,34.2c55.5,16.7,87.4,83.9,86.3,139.2c-0.6,28.8,17.5,72.3,44.4,88.7c40.9,24.9,58.9,41,66.3,59.2
		c7.7,18.8,5.5,43.8-7.7,89.2c-5,17.1-10.5,34.6-15.9,51.5c-14.7,46.5-30,94.5-36.6,143.6c-4.2,30.9,2.4,62.4,8.8,92.8
		c3.3,15.8,6.7,32.2,8.4,47.9c2.9,26.6,7,53.7,11,79.9c10.1,66.1,20.4,134.4,11.1,197.5c-6.7,45-48.6,101.8-112.1,152.1
		c-49.1,38.8-81.7,77.9-92.3,152.4c-2.5,7.5-21.5,60.1-76.1,110.4c-29.1,26.8-76.6,40.4-141.3,40.4c0,0,0,0,0,0
		c-123.9,0-284.4-49.9-380.2-79.7C-14.5,819.5-109,818-147.6,818c-22.5,0-44.7,0.4-66.1,1.3c-32.5,1.3-71.4,33.2-90.3,63.2
		c-16.6,26.5-37,45-62.3,56.6C-388.3,949.2-414.2,954.2-445.5,954.2z"/>
	<path class="st1" d="M-5,430.1c-21.7-6.7-74.1-8-113.4-6.4c-13,0.5-29.4,14.4-37.1,26.6c-20.8,33.1-51.9,39.2-85.6,36.8
		c-36.7-2.6-73.1-8.7-109.5-14.5c-42.9-6.8-66.8-33.3-72.4-76c-1.7-13.3-4.1-27.5-10.5-38.9c-15.1-26.9-22.6-51.1-5.7-81.9
		c7.2-13.1,2.4-37.2-4.7-52.8c-32.7-72.6-19.7-144.7,10.6-210.7c25.6-55.8,15.4-105.2-2.7-155.7c-14.2-39.5-32.1-76.2-3.9-116.3
		c30.7-43.7,72.2-90.3,122.1-84.8c62.5,6.8,110.4-21.8,165.2-31.9c48.5-8.9,99.6-6.5,142.6,27.8c9,7.2,22.4,9.3,34.1,12.7
		c30.2,8.9,62.8,5.9,82.5,43.7c8.9,17.1,44.8,21.5,69.2,28.9c39.7,12,80.4,20.6,120.1,32.6c29,8.7,46.6,43,46,73
		c-0.2,12.1,7.8,29.8,17.6,35.8c37.6,22.9,43.6,34.7,30.9,78.4C381.7-13.1,370,17,365.9,48c-2.8,20.9,5.8,43.2,8.2,65
		c4.8,44.5,16.8,90.4,10.4,133.3c-4.2,28.1-31.4,57.3-55.8,76.6c-24.3,19.3-36.9,37-41.2,68.3c0,0-8.5,28.5-38.2,56
		C198.9,493.6,65.2,452-5,430.1z"/>
</g>
</svg>
