<?xml version="1.0" encoding="utf-8"?>
<!-- Generator: Adobe Illustrator 28.1.0, SVG Export Plug-In . SVG Version: 6.00 Build 0)  -->
<svg version="1.1" id="Layer_1" xmlns="http://www.w3.org/2000/svg" xmlns:xlink="http://www.w3.org/1999/xlink" x="0px" y="0px"
	 viewBox="0 0 1000 1000" style="enable-background:new 0 0 1000 1000;" xml:space="preserve">
<style type="text/css">
	.st0{fill:#FFFFFF;}
	.st1{fill:#998675;}
	.st2{fill:#00A3FF;}
	.st3{fill:#2FAFFF;}
</style>
<g>
	<path class="st0" d="M397.9,930.6c56.7-14.7,118.5-18.1,164.5-46.7c37.9-23.6,74.6-74.8,80.6-118.1c9.2-66,35.6-103.3,87-144
		c51.4-40.7,108.8-102.3,117.7-161.6c13.5-90.7-11.8-187.3-22-281.2c-5-46-23.2-93-17.3-137c8.8-65.4,33.4-128.8,52-192.9
		c26.9-92.1,14-117-65.2-165.4c-20.8-12.7-37.7-50-37.2-75.6c1.3-63.2-35.9-135.5-97-153.9c-83.8-25.2-169.6-43.5-253.4-68.7
		c-51.6-15.5-127.1-24.8-146-60.9c-41.5-79.6-110.4-73.4-174.1-92.1c-24.6-7.2-52.9-11.6-71.9-26.8C-74.9-866.8-182.7-871.7-285-853
		c-115.6,21.2-216.5,81.6-348.4,67.2c-105.2-11.5-192.7,86.6-257.5,178.9c-59.3,84.5-21.7,161.9,8.3,245.2
		c38.3,106.3,59.8,210.6,5.8,328.3c-63.9,139.3-91.5,291.3-22.4,444.4c14.9,33,24.9,83.8,9.8,111.4c-35.6,65.1-19.9,116,12,172.8
		c13.5,24,18.5,54,22.1,82c11.7,90,62.1,145.8,152.6,160.2c76.7,12.2,153.6,25.1,230.9,30.7c71,5.1,136.6-7.8,180.4-77.7
		c16.2-25.8,50.9-55.1,78.2-56.2c79.6-3.2,160.9-0.2,239.3,13.6C150.7,869.8,273.4,902.4,397.9,930.6z"/>
	<path class="st1" d="M-400.3,985.5c-10,0-20.6-0.4-31.5-1.2c-74.2-5.3-147.5-17-218.4-28.4l-19-3c-60.7-9.7-110.3-34.3-147.5-73.1
		c-37.1-38.8-60-89.9-68-151.9c-1.9-14.3-5.3-40.9-13.1-54.8c-36.4-64.9-66.4-144.3-14.2-242.6c0.4-6.3-1-26.3-10.6-47.5
		c-70-155.3-62.6-321.1,22.6-506.9c41.8-91,27.8-171.3-8.2-271.3c-2.6-7.2-5.2-14.3-7.9-21.4l-0.1-0.2
		c-15.4-41.6-31.3-84.6-35.3-132.2c-4.9-58.5,9.6-110.9,44.2-160.3c63.9-91,164.7-211.9,302.4-211.9c8.3,0,16.7,0.5,25,1.4
		c10.6,1.2,21.4,1.7,32.2,1.7c58.2,0,112.7-17,170.4-35.1c39.4-12.3,80-25,124-33.1c38.1-7,74.8-10.5,109-10.5
		c97.3,0,182.1,28.3,252.1,84.2c4.5,2.5,20.4,6.7,27.3,8.5c6.1,1.6,12.5,3.2,19.1,5.2c11,3.2,23.3,5.7,36.4,8.4
		c52.2,10.6,130.7,26.6,180,115c6.3,3.2,22.5,8.9,62.2,18.7c14.6,3.6,28.4,7,42,11.1c40.3,12.1,82.6,23,123.5,33.5
		c42.5,10.9,86.4,22.1,129.9,35.2c48,14.4,88,47.3,115.7,94.9c23,39.5,35.7,87.6,34.9,132.3c0.4,2.8,3.1,9.2,5.1,12.6
		c48,29.7,81.4,57,98.8,99.6c18.8,46,11.8,92.7-4.6,148.8c-5.3,18.1-11,36-16.5,53.4c-13.6,43-27.7,87.2-33.2,128.5
		c-2.1,15.5,2.6,38.2,7.7,62.2c3.8,18,7.7,36.6,9.8,56.7c2.7,24.6,6.6,50.7,10.5,75.8c11.1,72.9,22.5,148.1,11.1,224.6
		c-13.9,93.3-97.1,171.4-145.5,209.7c-39.9,31.6-53.2,52.9-59,95.2c-8.9,64.4-56.4,135-115.5,171.8c-43.8,27.3-91.4,36.5-137.4,45.4
		c-16.2,3.1-33,6.4-48,10.3l-17.8,4.6l-17.9-4.1c-37.3-8.5-74.8-17.4-111.1-26.1l-0.5-0.1c-84.2-20.1-171.3-40.8-256.5-55.8
		c-68.4-12-114.5-16.1-169.3-13.6c-48,2.1-87.7,9.1-115.6,15.3c-9.5,15.8-22.7,34-41,51.7C-315.9,963.5-371.4,979.5-400.3,985.5z"/>
	<path class="st2" d="M-445.6,996.2c-9.5,0-19.6-0.4-30-1.1c-73.3-5.2-146.1-16.9-216.6-28.2l-19-3
		c-112.4-17.9-182.6-91.2-197.6-206.5c-2.8-21.8-6.6-46.4-15.7-62.6c-35.6-63.4-61.7-134.5-12.5-224.7c2.6-7.3,1-36-11.5-63.8
		c-67.3-149.3-59.9-309.2,22.6-489.1c44.8-97.7,30.4-182.5-7.5-287.6c-2.6-7.3-5.3-14.5-8-21.7l-0.1-0.2
		c-14.9-40.2-30.3-81.7-34-126.4c-4.5-53.2,8.7-101,40.4-146.1c61.1-87,157.1-202.7,284.8-202.7c7.5,0,15.2,0.4,22.7,1.2
		c11.4,1.2,23,1.9,34.5,1.9c61.5,0,117.5-17.5,176.8-36c38.7-12.1,78.8-24.6,121.5-32.5c36.8-6.8,72.2-10.2,105.1-10.2
		c92.4,0,172.9,26.8,239.1,79.8c5.8,4.6,22.6,9,34.9,12.2c6,1.5,12.2,3.1,18.5,5c11.9,3.5,24.7,6.1,38.2,8.8
		c52.2,10.6,123.5,25.1,167.8,108.7c9.8,9,52.7,19.6,73.4,24.7c14.3,3.5,27.8,6.9,41,10.8c40.8,12.3,83.3,23.2,124.4,33.7
		c42.3,10.8,86,22,129,35c42.6,12.8,78.4,42.3,103.3,85.1c21.2,36.3,32.8,80.6,32,121.5c-0.2,7.8,7.2,24.2,12.1,28.9
		c46.1,28.2,77.9,53.4,93.5,91.4c16.5,40.2,9.8,82.9-5.3,134.6c-5.2,17.9-10.9,35.8-16.4,53c-13.9,43.7-28.2,88.8-34,132
		c-2.6,19.2,2.5,43.6,7.9,69.5c3.7,17.5,7.4,35.6,9.5,54.6c2.7,25.1,6.7,51.5,10.6,76.9c10.8,71.2,22,144.7,11.1,218
		c-12.8,86-91.7,159.7-137.5,196c-44.1,34.9-60.4,61.4-67,109.1c-8,57.5-52.4,123.3-105.5,156.5c-40.5,25.2-86.1,34-130.2,42.6
		c-16.5,3.2-33.6,6.5-49.3,10.6c-4.2,0.5-8.5,1-12.7,1.4c-4.3-0.3-8.5-0.7-12.8-1c-37.4-8.5-75-17.5-111.3-26.1
		c-84.6-20.2-171.9-41-257.8-56.1c-52.6-9.2-110.8-13.9-173-13.9c-17.5,0-35.7,0.4-54,1.1c-6.7,1.7-25.2,14.7-35.4,31
		c-25.3,40.3-49.9,53.5-62.3,65.6C-328.4,978.2-366.9,999.2-445.6,996.2z"/>
	<path class="st3" d="M-445.5,990.7c-8.8,0-18.1-0.3-27.7-1c-71.9-5.1-144-16.7-213.8-27.8l-19-3c-98.4-15.7-157.4-77.5-170.6-178.7
		c-3.2-24.8-7.7-53-19.5-74.2c-35.9-64-51.7-121.4-12.1-193.7c9.4-17.1,4.6-58.5-10.6-92.2c-63.2-140.2-55.9-291.5,22.5-462.3
		c49.2-107.3,33-202.3-6.4-312c-2.7-7.4-5.4-14.8-8.1-22.2c-28.5-77-58-156.5,2.5-242.7c56.9-81.1,145.7-189,258.3-189
		c6.4,0,12.8,0.4,19.2,1c12.5,1.4,25.3,2.1,38,2.1c66.5,0,124.8-18.2,186.5-37.5c37.8-11.8,76.9-24,117.7-31.5
		c34.9-6.4,68.3-9.6,99.2-9.6c84.9,0,158.5,24.5,218.9,72.7c11.2,8.9,29.4,13.7,47,18.2c5.7,1.5,11.7,3,17.5,4.7
		c13.2,3.9,26.6,6.6,40.8,9.5c51.2,10.4,109.2,22.2,146.3,93.3c10,19.2,56.4,30.6,93.7,39.8c13.9,3.4,27,6.7,39.4,10.4
		c41.4,12.5,84.2,23.4,125.7,34.1c42,10.8,85.3,21.9,127.7,34.6c74.8,22.5,113.7,107,112.3,175c-0.4,19,13.7,48.7,26.8,56.7
		c40.9,25,68.8,46.5,81.1,76.5c12.9,31.5,6.8,68.1-6.4,113.3c-5.1,17.5-10.7,35.2-16.1,52.3c-14.3,45-29,91.5-35.2,137.4
		c-3.3,24.7,2.3,51.8,8.3,80.4c3.5,16.7,7.1,34,9,51.4c2.8,25.8,6.9,52.5,10.8,78.3c10.5,68.8,21.3,139.9,11.1,208.4
		c-11.6,77.7-91.7,148.5-125.6,175.4c-50.5,40-71.2,74-79,130c-6.7,48.1-45.6,105.4-90.6,133.4c-35.4,22-78,30.3-119.2,38.3
		c-17,3.3-34.6,6.7-51.2,11l-5.1,1.3l-5.1-1.2c-37.2-8.4-74.7-17.4-111-26.1c-85-20.3-172.8-41.2-259.7-56.5
		c-54.5-9.6-114.6-14.4-178.6-14.4c-18.2,0-37,0.4-56,1.2c-17.1,0.7-46.1,22.7-60.8,46.1C-310.5,961.7-366.9,990.7-445.5,990.7z"/>
	<path class="st2" d="M171.2,469.4C112.2,455.9,54,440.5-5,430.1c-37.1-6.5-75.7-8-113.4-6.4c-13,0.5-29.4,14.4-37.1,26.6
		c-20.8,33.1-51.9,39.2-85.6,36.8c-36.7-2.6-73.1-8.7-109.5-14.5c-42.9-6.8-66.8-33.3-72.4-76c-1.7-13.3-4.1-27.5-10.5-38.9
		c-15.1-26.9-22.6-51.1-5.7-81.9c7.2-13.1,2.4-37.2-4.7-52.8c-32.7-72.6-19.7-144.7,10.6-210.7c25.6-55.8,15.4-105.2-2.7-155.7
		c-14.2-39.5-32.1-76.2-3.9-116.3c30.7-43.7,72.2-90.3,122.1-84.8c62.5,6.8,110.4-21.8,165.2-31.9c48.5-8.9,99.6-6.5,142.6,27.8
		c9,7.2,22.4,9.3,34.1,12.7c30.2,8.9,62.8,5.9,82.5,43.7c8.9,17.1,44.8,21.5,69.2,28.9c39.7,12,80.4,20.6,120.1,32.6
		c29,8.7,46.6,43,46,73c-0.2,12.1,7.8,29.8,17.6,35.8c37.6,22.9,43.6,34.7,30.9,78.4C381.7-13.1,370,17,365.9,48
		c-2.8,20.9,5.8,43.2,8.2,65c4.8,44.5,16.8,90.4,10.4,133.3c-4.2,28.1-31.4,57.3-55.8,76.6c-24.3,19.3-36.9,37-41.2,68.3
		c-2.8,20.5-20.3,44.8-38.2,56C227.4,460.8,198.1,462.4,171.2,469.4z"/>
</g>
</svg>
