<svg xmlns="http://www.w3.org/2000/svg" xml:space="preserve" id="Layer_1" x="0" y="0" viewBox="0 0 775.4 431">
  <style>
    .st0{fill:#391600}
  </style>
  <path d="M127.7 128.8c-3.5 3.2-6 5.8-8.8 8a82 82 0 0 1-38.2 16.5c-4.5.9-5.9 2.7-5.8 7.2q.2 15-.7 30c-.6 12.3-5.9 17.7-18.1 17.8q-18 .2-36-.8C8.1 207 .7 199.3.6 187.2q-.2-48.5 0-97L0 34.7q0-6.8.9-13.4c1-7.4 5.9-12.8 13.3-13.5C40.8 5.4 67.4 3.2 94 7.2a57 57 0 0 1 28.4 12.7q1.6 1.2 4 2.6c.6-1.5 1.2-2.4 1.5-3.5 2-8.8 8-13.1 16.3-13.5a556 556 0 0 1 41.5-.3c4 0 7.9 4.2 11.8 4.2s7.7-4.3 11.7-4.5a504 504 0 0 1 41-.9c13.3.3 19.2 7.2 18.7 20.6L265.5 125c-.3 7.4-.2 7.4 7 6.6 12.1-1.2 12.2-1.2 12-13.7l-1-89.5q0-6.7 1.8-13.2c1.6-6 6-9 12.2-9.3q20.3-.9 40.5-1c12.2-.1 17.4 4 18.5 16.1 1.2 12.8 1 25.7.8 38.5q-.6 32-1.6 64c-.2 7.8-.2 7.7 7.5 7.5 5.2-.1 10.4-.7 15.5 0 4.7.6 6.2-1.3 7-5.3q4.2-20.3 8.8-40.6l13.1-57 .2-1c5-18.3 12-23 31-22 13.4.8 26.7.6 40 .6S498 10 501.3 22.8l11.9 45.4c.2 1 .6 1.8 1.2 3.3l7.2-19.2c13-34 39.9-49.3 74.4-52 20-1.7 37.3 5.7 50.8 21l2.4 2.1 2-5.3c3.2-9.4 8.1-13.3 18.1-13.4h62.5q12.8-.2 25.5 0c12.4.1 18.2 5.8 18.1 18.1q0 18-.8 36c-.4 7.8-3 14.6-11 18-1.1.5-2.2 2.8-2 4 3.3 16.4 3.4 32.7-.8 49q1 .8 1.8 1.2c10.4 1.6 12.4 7.6 12.4 16.3q0 20-1 40c-.7 14-6.6 20-20.7 20.1-25.8.3-51.6 0-77.4 0q-4-.2-8-1a16.6 16.6 0 0 1-15-13.9l-1-5.2c-1.8 1.3-3.1 2.1-4.2 3.2-19.8 19.5-43.8 24-70.2 19.7a81 81 0 0 1-34.5-13.9c-3-2.1-4.4-2.2-7 1.2a20 20 0 0 1-10.8 7.2q-18 3.5-36 5c-11.5.7-18.4-5-21.9-16q-1.5-4.5-2.7-9.1c-.8-3.4-2.6-5-6.3-5.1-7-.3-7.1-.3-9 6.8q-1.8 7-4.2 13.8c-2.3 6.4-7.2 10.6-14 10.2-12.9-.6-25.8-2.2-38.7-3.2q-6.9-.7-13.8-.6c-23 .6-46 3-68.8 1.5-24-1.7-47.6 1.4-71.3.5h-24c-2.2 0-4.6.5-6.4-.3-8-3.4-15.5-.6-23.3.2a296 296 0 0 1-39.4.6q-15.1-.6-15.6-17.2-.8-27.7-1.4-55.5c0-2.1-.4-4.3-.7-7.5m525.8-17.2v-16c-.2-6.7-2.3-8.6-9-8.3l-29.4 1.5-19 .9c-3 .2-6.3.6-6 4.9q.7 11.3 1.7 22.4.4 5.4 6 5.1 5.3 0 10.5-.2c3.2-.2 4.5 1.4 4.8 4.4 1.5 12.1-4.8 22-15.7 24.2-11.8 2.5-21.3-3.1-24.4-15.5a110 110 0 0 1 2-65.5 34 34 0 0 1 9.8-14c8.5-7 19.2-3 22.4 7.3.7 2.3.8 4.9 2.1 6.6 1.4 1.8 4 4 5.7 3.7a472 472 0 0 0 30.6-4.4c4.2-.7 5.8-3.7 4.3-7.9-1.6-4.8-2.9-9.9-5-14.6-11.3-24.6-29.6-34-51-33.4A64 64 0 0 0 534 58.6a168 168 0 0 0-6.5 75.5 66 66 0 0 0 17.5 39.5c16.4 16.3 37 20.5 59.1 17.3q41-5.8 46.3-46.5c1.5-11 2.1-22.2 3.1-32.7m-166.1 79q13.6-1.4 27.3-3.3c8.8-1.3 9.5-2.3 7.5-11L487 26c-1.5-6.4-2.6-7.4-9.2-7.4q-19.5-.2-39-.1c-15 0-15.4 0-18.6 14.5q-16 72.8-31.7 145.5c-1.3 6 .5 8.3 7.2 9.3l29.7 3.8q6 .9 7.4-4.9c1.7-7.1 3.8-14.2 5.1-21.4.9-4.7 3.2-5.9 7.6-5.7q11 .3 22 0c4-.2 6 1.3 7 5.3q2.7 10.4 5.8 20.6c1 3.4 3 5.6 7 5.1M15.2 180.1c0 6.5 1.2 7.6 7.5 7.8l28 .9c8 .1 8.9-.9 8.8-8.9l-.7-37.4c-1.7-12 8.8-7.3 16.6-8.6 38.5-1.7 57.3-37.7 52.9-72.2-5.4-52.2-68.6-46.2-107-41.5-4.6.5-6.5 2.7-6.4 7.5.2 25.2.3 127.3.3 152.4m652-1.8c0 7.9 1.2 9.2 9.2 9.5q10.5.4 21 .5 27.5 0 55-.5c7-.2 8.3-1.8 8.3-8.8l.1-27c0-6.4-1.3-7.3-7.9-6.7q-17.6 1.7-35.3 3c-6 .5-6.8-.4-7-6.1v-13c0-6.8.4-7 7-7.3l24.4-1.1q6.7-.2 6.7-6.9.2-11.7.2-23.5c-.1-6.4-2-8-8.3-7.2q-12.4 1.5-24.8 3.3-6.3 1-6-5.5.2-8 0-16c-.1-4.4 1.6-6 6.2-6.1a990 990 0 0 0 37-1c5.8-.3 7.3-2 7.5-7.8l.3-27c0-5.8-1.4-6.8-7.2-6.7l-79.9 1.2c-5.9 0-7.1 1.1-7 6.8M207.2 180.2c0 7.3.8 8.3 7.9 8.3l23.5-.2q20.4-.6 40.9-1.7c3.5-.1 7.4-.5 7.5-5.4v-33q-.1-6.1-6.7-5-10.8 1.8-21.8 3.2c-8.5 1-9.4.3-9.1-8.2l2.6-77.4q.7-18.3 1.1-36.5c.1-5.6-2.1-7.7-7-7.6q-16.6.4-33.4.5c-4.4 0-6.2 1.5-6.1 6.1m92.6 127.4-.8 31c0 3.5.8 6.4 5.2 6.3l68.9-1.2q6.3-.1 6.2-6.7v-30.5c0-5.4-1.7-6.8-7.2-6.2-8.4 1-16.8 2.3-25.2 3-6.3.6-7 0-7-6.5q-.2-17.7.3-35.5l3-80.4c.3-6.1-1.2-7.5-7.1-7.4L303 17c-4.2 0-5.3 2.5-5.3 6.2m-109.1 79.5V25.3c0-6.8-1.2-7.8-7.9-7.8h-23.4c-13.1.3-15-3.7-14.9 14.7l.9 149.8c0 6.5 2 8.3 8.5 7.9l28-1.9c7.7-.5 8.8-1.6 8.8-9.3z" class="st0"/>
  <linearGradient id="SVGID_1_" x1="71.9" x2="71.9" y1="188.8" y2="17.2" gradientUnits="userSpaceOnUse">
    <stop offset="0" style="stop-color:#f5a911"/>
    <stop offset=".4" style="stop-color:#ffd24a"/>
    <stop offset="1" style="stop-color:#ffe345"/>
  </linearGradient>
  <path d="M15.2 180.1c0 6.5 1.2 7.6 7.5 7.8l28 .9c8 .1 8.9-.9 8.8-8.9l-.7-37.4c-1.7-12 8.8-7.3 16.6-8.6 38.5-1.7 57.3-37.7 52.9-72.2-5.4-52.2-68.6-46.2-107-41.5-4.6.5-6.5 2.7-6.4 7.5.2 25.2.3 127.3.3 152.4" style="fill:url(#SVGID_1_)"/>
  <path d="m325 403.5-1.7 9.6c-1.4 6.5-5.1 11.4-11.8 11.8-15.8 1-31.6 1.8-47.4 1.6-4.3-.1-8.6-3.9-13.6-6.2-13.7 12.4-32 6.7-48.9 7.3-15.8.6-23-6.3-24-22.3-1-14.9-.6-30-.8-45q0-2.9-1-6.6a26 26 0 0 1-18.7 9.7q-6.4.6-13 1c-6.7.4-6.8.4-7.2 7.2l-1.6 31.4-.7 6.5c-2 12.9-6.9 17.5-19.8 17.7q-16.5.4-33-.5c-13.7-.7-20.2-7.3-21-21-.5-7.2-.3-14.4-.3-21.5l-.9-135q-.2-9 .8-18 2.3-14.2 16.9-14.1c16.1.1 32.3.7 48.5.8q17.7-.2 35.4-1c1.9 0 3.8.4 5.5-.1 6.6-2 11.6 5.5 19.1 2.2 5.7-2.6 13-1.6 19.6-2q10-.7 20-1c8.1-.4 16-.2 22.4 6.2.6.6 2.9 0 4.1-.5 4.6-1.7 9-4.9 13.6-5.3 26.3-2.3 52.7-2 78.7 2.8 19 3.5 35.8 11 44.8 29.8q.7 1 2.1 2.4 1.1-1 1.8-2c9.1-18.6 25.5-27.4 44.5-32.5a109 109 0 0 1 49.5.6c7.6 1.4 14.8 4.7 22 7.6 2.3.9 3.2.8 5-.9 2.5-2.3 5.6-4.3 8.8-5.1 4.4-1.2 9.2-1.4 13.8-1.5l93.5-.6c6.8 0 13.4-.4 18.7 6.2 5-7.9 12.2-7.7 19.5-7.5q20 .3 40 1c11.1.4 17.8 7.2 16.9 18.5-.9 10.6-3 21-4.5 31.6l-11.4 77.6c-.5 3-.8 6.2-2.2 8.7-2 3.6-1.4 6 1.1 9.2 10.2 13 9.5 37.1-1 51.2a39 39 0 0 1-61.7 2c-10.6-13.1-14.6-41.7 3.7-57.9 2.2-2 2.2-3.3.6-6.2a34 34 0 0 1-4.6-14.8c0-12 1.1-24 1.7-35.9V296q-12.5.3-24.3 1c-1.3 0-3.4 2.5-3.5 4q-.5 9.8-.4 19.5l.5 79v7.5c0 13.2-6.1 20-19.2 20.4q-18.5.3-37 .1l-2.5-.2c-10.4-1.5-16.4-7.4-16.7-18-.3-12.8.1-25.6.1-38.4v-68.5c0-3.8-1.3-5.6-5.2-5.3H535c-8.1 0-16-.6-21.5-8.1-3.3 4-6.3 7.4-9 11.2-.5.8.1 3 1 4 3 3.5 6.7 6.5 9.7 10 20.6 25 19.5 75.4-7.9 99.3a67 67 0 0 1-38.2 16.8c-24.2 2.3-47.7 0-69-13.4-1.2-.8-3.7-.5-5.1.2a123 123 0 0 1-46 12.7 14 14 0 0 1-12.6-6.8c-3.8-5.9-7.1-12-11.6-19.4m-16.2-54.2c-.2-3 1.3-5.8 3-5.8 1-.5 3 1.4 4 4.4q14.9 29.4 29.3 59 2.8 5.8 9 3.5a839 839 0 0 1 28.1-8.8c8.4-2.5 9.1-3.9 4.7-11.3q-14.1-23.8-28.6-47.5c-2.2-3.7-2.6-6.3 1.6-9a54 54 0 0 0 24.9-50.3c-.8-25.4-14.4-44-39-50.3a155 155 0 0 0-32.6-4.1c-15.2-.5-30.3.2-45.4.5-4.8.1-6.7 2.6-6.6 7.4q.7 18 .7 36l.6 102.4c0 8-.9 16-1 24 0 6.5 2 8.4 8.4 8.3l33-1.1c4.6-.1 6.4-2.3 6.3-6.9v-24.5m145.7 37.3c9-1.7 18.3-2.3 26.8-5.3 37.3-13.2 40.2-59.1 23-82.7-8-10.8-19-17.4-30.6-23.6-7.1-3.8-14.3-7.9-20.7-12.8-6.2-4.8-7.2-11-4.2-16.3 3-5.1 9.3-7.4 16.3-5.2a42 42 0 0 1 22.3 15.3c1.2 1.7 3.5 3.8 5.2 3.7 1.6 0 3.7-2.5 4.5-4.4q5-11.7 9.6-23.6c5.2-13.3 4.2-16.2-8.5-22.8l-1-.4a83 83 0 0 0-56.4-5.4 50 50 0 0 0-31.4 78.2A78 78 0 0 0 437 330c8.3 5 16.7 9.7 24.6 15.3 7 5 8.4 10.7 6 16.9q-3.7 8.9-16.2 8.1-2-.1-4-.5a67 67 0 0 1-29.2-13.5c-4.5-3.6-6.7-2.8-9 2.3q-5 11-10.5 21.6c-3.8 7.6-3.4 9 3.2 14.7 15.3 13 33.6 16 53 17.5M83.4 230.2c-8.8-.3-9.8.5-9.6 9.4q1 37.5 1.5 75 .2 41.1-.2 82.4c0 10.4.5 10.9 11 11h25.5c7.5 0 8.6-1 8.8-8.6q.6-23 1.5-46c.4-9 .6-9 9.5-9.3q11.7-.4 23.4-1.4c7.1-.6 8-1.7 8-8.6v-24.5c0-7.3-1.8-8.7-9.1-7.9l-26.8 2.7q-5.3.6-5.4-4.7.1-8.6-.5-17c-.3-4.6 1.4-6.2 6-6.2q19.2 0 38.4-.7c6-.2 7.5-1.5 7.7-7.4q.7-16 .7-32c0-6-2-7.5-8-7.3m438.8 53.6c0-4.2 1.7-6 6-5.9q10 .5 20 .4c6.6-.1 7.9-1.4 8-8v-32.5c0-6.6-2.4-8.4-9-7.9-7.5.6-15 1.6-22.4 1.6q-38.3-.1-76.4-.7c-6.3-.1-9.1 1.8-9.1 7.8q.1 16.7.7 33.4.3 5.7 6 6 8.3.5 16.5.4c12.3-.6 12.2-1.5 12.2 12l.2 110.4c0 7 1.2 8.4 8.5 8.4l31-.2c6-.1 7.5-1.7 7.5-7.8v-58M191 393.2q-.1 3.7.1 7.5c.6 5.5 2.6 7.3 8 7.4l27.5-.1c10-.1 11-1.2 11-11 0-22.6-.4-45.3 0-68q1-43.6 2.5-87.3c.4-12-.5-12.6-12.5-12q-15 .4-29.9-.6c-6.2-.3-7.5.6-7.5 6.7v81M662 283.4l-2.3 51.4c-.3 5.8 1.7 8.4 7.4 9a145 145 0 0 0 17.4 1.3c8.3 0 9.7-1.1 10.9-9.1l15-101.7q.8-6.7-6.6-6.4-17 .4-34 .2c-7 0-7.8.5-7.8 7.4zm10.6 127.5c17.5 0 27.5-9.1 27.5-25.2.1-14.3-9.6-24.9-23-25-16 0-26.1 10.3-26.2 26.9q.1 23.2 21.7 23.3m-283.3-45c6.7-11.5 10.7-23.6 23.6-28L396 318q-9 12.6-17.6 25.2c-.7 1-.8 2.8-.3 3.7 3.4 6 7 11.7 11.3 18.8" class="st0"/>
  <linearGradient id="SVGID_2_" x1="589.7" x2="589.7" y1="192" y2="12.8" gradientUnits="userSpaceOnUse">
    <stop offset="0" style="stop-color:#f5a911"/>
    <stop offset=".4" style="stop-color:#ffd24a"/>
    <stop offset="1" style="stop-color:#ffe345"/>
  </linearGradient>
  <path d="M653.5 111.7c-1 10.5-1.6 21.7-3 32.7q-5.4 40.7-46.3 46.6c-22.2 3.1-42.7-1-59.1-17.4a66 66 0 0 1-17.5-39.5 168 168 0 0 1 6.5-75.5 64 64 0 0 1 59.8-45.7c21.4-.6 39.7 8.7 51 33.4 2.1 4.6 3.4 9.7 5 14.5q2.2 6.6-4.2 7.9a472 472 0 0 1-30.6 4.4c-1.8.2-4.4-2-5.7-3.7s-1.5-4.3-2.2-6.5c-3.2-10.5-14-14.4-22.3-7.3a34 34 0 0 0-10 14 111 111 0 0 0-2 65.4c3.3 12.4 12.8 18 24.5 15.5 10.9-2.2 17.2-12 15.7-24.2-.3-3-1.6-4.5-4.8-4.4l-10.5.2q-5.5.3-6-5.1l-1.7-22.4c-.2-4.2 3-4.7 6.1-5l19-.7 29.4-1.6c6.6-.3 8.7 1.6 8.9 8.3z" style="fill:url(#SVGID_2_)"/>
  <linearGradient id="SVGID_3_" x1="455.7" x2="455.7" y1="191.7" y2="18.5" gradientUnits="userSpaceOnUse">
    <stop offset="0" style="stop-color:#f5a911"/>
    <stop offset=".4" style="stop-color:#ffd24a"/>
    <stop offset="1" style="stop-color:#ffe345"/>
  </linearGradient>
  <path d="M487.4 190.6c-4 .5-6-1.7-7-5q-3.1-10.4-5.9-20.7c-1-4-2.9-5.5-7-5.4q-11 .5-22 0c-4.3 0-6.7 1.2-7.5 5.8-1.3 7.2-3.4 14.3-5.1 21.4q-1.5 5.8-7.4 4.9l-29.7-3.8c-6.7-1-8.5-3.3-7.2-9.3q15.7-72.8 31.7-145.4c3.2-14.6 3.6-14.6 18.5-14.6l39 .1c6.6 0 7.8 1 9.3 7.4l35 150.3c2 8.7 1.4 9.7-7.5 11zm-43.6-72.5c-.9 5 .2 6 5 5.9l10-.5q6.9 0 5.5-6.6" style="fill:url(#SVGID_3_)"/>
  <linearGradient id="SVGID_4_" x1="713.8" x2="713.8" y1="188.3" y2="16.4" gradientUnits="userSpaceOnUse">
    <stop offset="0" style="stop-color:#f5a911"/>
    <stop offset=".4" style="stop-color:#ffd24a"/>
    <stop offset="1" style="stop-color:#ffe345"/>
  </linearGradient>
  <path d="M666.7 24.4c-.1-5.7 1.1-6.8 7-6.8l80-1.2c5.7-.1 7.1.9 7.1 6.7q0 13.5-.3 27c-.1 5.8-1.7 7.5-7.5 7.7q-18.5 1-37 1c-4.6 0-6.3 1.8-6.2 6.2q.2 8 0 16-.3 6.4 6 5.5 12.4-1.8 24.8-3.3c6.3-.8 8.2.8 8.3 7.2q0 11.8-.2 23.5 0 6.8-6.7 6.8-12.2.8-24.4 1.2c-6.6.3-7 .5-7 7.2l.1 13c.1 5.8 1 6.7 7 6.3l35.2-3.1c6.6-.7 8 .3 8 6.7l-.2 27c0 7-1.2 8.6-8.3 8.8q-27.4.4-55 .5-10.5-.1-21-.5c-8-.3-9.2-1.6-9.2-9.5z" style="fill:url(#SVGID_4_)"/>
  <linearGradient id="SVGID_5_" x1="246.8" x2="246.8" y1="188.5" y2="16.7" gradientUnits="userSpaceOnUse">
    <stop offset="0" style="stop-color:#f5a911"/>
    <stop offset=".4" style="stop-color:#ffd24a"/>
    <stop offset="1" style="stop-color:#ffe345"/>
  </linearGradient>
  <path d="M207.2 180.2c0-26.3-.5-130.6-.6-156.9 0-4.6 1.6-6.1 6.1-6.1q16.8 0 33.5-.5c4.8 0 7 2 6.9 7.6l-1 36.5q-1.6 38.7-2.7 77.4c-.3 8.5.6 9.2 9.1 8.2q11-1.4 21.8-3.3 6.5-1 6.7 5.1v33c-.1 4.9-4 5.3-7.5 5.4q-20.5 1-41 1.7-11.7.3-23.4.2c-7 0-8-1-8-8.3" style="fill:url(#SVGID_5_)"/>
  <linearGradient id="SVGID_6_" x1="338.2" x2="338.2" y1="188" y2="16.6" gradientUnits="userSpaceOnUse">
    <stop offset="0" style="stop-color:#f5a911"/>
    <stop offset=".4" style="stop-color:#ffd24a"/>
    <stop offset="1" style="stop-color:#ffe345"/>
  </linearGradient>
  <path d="M299.2 150.7c0-26.5-1.5-101-1.5-127.4 0-3.7 1-6.1 5.3-6.2l32.5-.5c6-.1 7.4 1.3 7.1 7.4l-3 80.4q-.4 17.8-.3 35.5c0 6.5.7 7.1 7 6.5 8.4-.7 16.8-2 25.2-3 5.5-.6 7.1.8 7.2 6.2v30.5q.1 6.5-6.2 6.7l-69 1.2c-4.3.1-5.1-2.8-5-6.3z" style="fill:url(#SVGID_6_)"/>
  <linearGradient id="SVGID_7_" x1="165.5" x2="165.5" y1="189.9" y2="17.3" gradientUnits="userSpaceOnUse">
    <stop offset="0" style="stop-color:#f5a911"/>
    <stop offset=".4" style="stop-color:#ffd24a"/>
    <stop offset="1" style="stop-color:#ffe345"/>
  </linearGradient>
  <path d="M188.6 102.8v75.9c0 7.7-1.1 8.8-8.9 9.3l-27.9 1.9c-6.5.4-8.5-1.4-8.5-7.9l-1-149.8c0-18.4 1.9-14.4 15-14.6h23.4c6.7-.1 7.8 1 7.9 7.7z" style="fill:url(#SVGID_7_)"/>
  <linearGradient id="SVGID_8_" x1="325.4" x2="325.4" y1="411" y2="228.9" gradientUnits="userSpaceOnUse">
    <stop offset="0" style="stop-color:#f5a911"/>
    <stop offset=".4" style="stop-color:#ffd24a"/>
    <stop offset="1" style="stop-color:#ffe345"/>
  </linearGradient>
  <path d="M309.2 399.7c.1 4.6-1.7 6.7-6.4 6.9l-32.9 1c-6.3.2-8.3-1.7-8.3-8.3 0-8 .9-16 .9-24l-.6-102.3q0-18-.6-36-.4-7.2 6.5-7.4c15.1-.3 30.3-1 45.4-.5 10.9.4 22 1.4 32.6 4 24.6 6.3 38.2 25 39 50.4a54 54 0 0 1-24.9 50.2c-4.2 2.8-3.8 5.4-1.6 9q14.5 23.7 28.6 47.6c4.4 7.4 3.7 8.8-4.7 11.3q-14.1 4.2-28.1 8.7c-4.2 1.4-7 .7-9-3.5q-14.4-29.5-29.3-59c-.8-1.7-2.1-4.5-4-4.3-2.2.3-3 3.8-3 5.7-.3 8.7.4 17.4.4 26 .2 0-.2 0 0 0m-3.2-68.5c0 3 1.2 4.9 4.7 5.1a29 29 0 0 0 29.3-25.2c.4-6.5-1.5-10.9-7.8-13-6.7-2.4-14-3.6-21.1-5q-5.6-1-5.4 5.2" style="fill:url(#SVGID_8_)"/>
  <linearGradient id="SVGID_9_" x1="455.5" x2="455.5" y1="412.5" y2="226.5" gradientUnits="userSpaceOnUse">
    <stop offset="0" style="stop-color:#f5a911"/>
    <stop offset=".4" style="stop-color:#ffd24a"/>
    <stop offset="1" style="stop-color:#ffe345"/>
  </linearGradient>
  <path d="M454.9 412.5c-19.4-1.5-37.7-4.6-53-17.5-6.6-5.7-7-7.1-3.2-14.7q5.4-10.6 10.4-21.6c2.4-5 4.6-6 9.1-2.3a67 67 0 0 0 33.2 14q12.5.8 16.1-8.1c2.5-6.2 1-12-6-16.9-7.8-5.6-16.2-10.4-24.5-15.3a78 78 0 0 1-27.2-23 50 50 0 0 1 31.4-78 83 83 0 0 1 56.5 5.3l.9.4c12.6 6.6 13.7 9.5 8.5 22.8q-4.7 11.9-9.6 23.6c-.8 1.9-2.9 4.4-4.5 4.4-1.7.1-4-2-5.2-3.7a42 42 0 0 0-22.3-15.3c-7-2.2-13.3 0-16.3 5.2s-2 11.5 4.2 16.3c6.4 5 13.6 9 20.7 12.8a86 86 0 0 1 30.5 23.6c17.2 23.6 14.4 69.5-23 82.7-8.4 3-17.8 3.6-26.7 5.3" style="fill:url(#SVGID_9_)"/>
  <linearGradient id="SVGID_10_" x1="123.8" x2="123.8" y1="408" y2="229.1" gradientUnits="userSpaceOnUse">
    <stop offset="0" style="stop-color:#f5a911"/>
    <stop offset=".4" style="stop-color:#ffd24a"/>
    <stop offset="1" style="stop-color:#ffe345"/>
  </linearGradient>
  <path d="M165.8 229.1c6-.1 8 1.2 8 7.3q0 16-.7 32c-.2 5.9-1.8 7.3-7.7 7.4q-19.2.6-38.5.7c-4.6 0-6.2 1.6-5.9 6.2q.5 8.4.5 17 0 5.3 5.3 4.7l26.9-2.7c7.3-.8 9 .6 9 7.9q.3 12.2.1 24.5c0 6.9-1 8-8 8.6q-11.7 1-23.4 1.4c-9 .4-9.1.2-9.5 9.3q-.9 23-1.5 46c-.2 7.6-1.3 8.7-8.8 8.6H86c-10.6-.1-11-.6-11-11q.3-41.3.2-82.5c-.2-25-1-50-1.5-75-.2-8.8.8-9.6 9.5-9.3 10.2.2 72.3-1 82.5-1" style="fill:url(#SVGID_10_)"/>
  <linearGradient id="SVGID_11_" x1="580.2" x2="580.2" y1="408.1" y2="228.7" gradientUnits="userSpaceOnUse">
    <stop offset="0" style="stop-color:#f5a911"/>
    <stop offset=".4" style="stop-color:#ffd24a"/>
    <stop offset="1" style="stop-color:#ffe345"/>
  </linearGradient>
  <path d="M604.3 400c0 6.2-1.4 7.8-7.6 7.9l-31 .2c-7.2 0-8.4-1.3-8.4-8.4l-.2-110.5c0-13.4.2-12.5-12.2-12-5.4.3-11-.1-16.4-.3q-6-.3-6-6-.7-16.7-.8-33.4c0-6 2.8-7.9 9-7.8q38.3.6 76.5.7c7.4 0 15-1 22.4-1.6 6.6-.5 9 1.3 9 8v32.4c-.1 6.6-1.4 7.9-8 8q-10 0-20-.3c-4.3-.2-6 1.6-6 5.8l-.3 59.5" style="fill:url(#SVGID_11_)"/>
  <linearGradient id="SVGID_12_" x1="215.3" x2="215.3" y1="408.1" y2="229.1" gradientUnits="userSpaceOnUse">
    <stop offset="0" style="stop-color:#f5a911"/>
    <stop offset=".4" style="stop-color:#ffd24a"/>
    <stop offset="1" style="stop-color:#ffe345"/>
  </linearGradient>
  <path d="M190.3 316.7v-81c0-6 1.3-6.9 7.5-6.6 10 .5 20 1 29.9.6 12-.5 12.9 0 12.5 12q-1.6 43.6-2.5 87.4c-.4 22.6 0 45.3 0 68 0 9.7-1 10.8-11 10.9h-27.5c-5.4 0-7.4-1.8-8-7.3-.2-2.5-.9-81.5-.9-84" style="fill:url(#SVGID_12_)"/>
  <linearGradient id="SVGID_13_" x1="685.1" x2="685.1" y1="345.1" y2="227.9" gradientUnits="userSpaceOnUse">
    <stop offset="0" style="stop-color:#f5a911"/>
    <stop offset=".4" style="stop-color:#ffd24a"/>
    <stop offset="1" style="stop-color:#ffe345"/>
  </linearGradient>
  <path d="M662 283.4v-48c0-6.8 1-7.3 8-7.3q17 .2 33.9-.2c4.9 0 7.2 1.8 6.5 6.4q-7.3 50.8-15 101.7c-1.1 8-2.5 9-10.8 9.1q-8.7-.2-17.4-1.2c-5.7-.7-7.7-3.3-7.5-9.1z" style="fill:url(#SVGID_13_)"/>
  <linearGradient id="SVGID_14_" x1="675.6" x2="675.6" y1="410.9" y2="360.8" gradientUnits="userSpaceOnUse">
    <stop offset="0" style="stop-color:#f5a911"/>
    <stop offset=".4" style="stop-color:#ffd24a"/>
    <stop offset="1" style="stop-color:#ffe345"/>
  </linearGradient>
  <path d="M672.7 411q-21.6-.2-21.7-23.4c0-16.6 10.2-27 26.2-26.8 13.4 0 23.1 10.6 23 25 0 16-10 25.1-27.5 25.1" style="fill:url(#SVGID_14_)"/>
  <path d="M389.4 365.8c-4.3-7.1-8-12.9-11.3-18.8-.5-.9-.3-2.8.3-3.6q8.6-12.7 17.5-25.3l17.1 19.7c-12.9 4.5-16.9 16.6-23.6 28" style="opacity:0;fill:#fff"/>
  <path d="M453.2 75c-4.2 3.2-8.5 37.8-9.4 43-.9 5 .2 6.1 5 6l10-.5q6.9 0 5.5-6.6c-1.6-9.3-4-38.5-7.3-41.9-.6-.7-3-.7-3.8 0M58.5 59.1q-.1-4.8 4.6-4.1a29 29 0 0 1 23 15.4c4 7.3.3 18.1-8 23.4-4.1 2.5-9.2 3.7-13.9 5.1-3.5 1-5.3-.8-5.3-4.4zm247.2 214.7q-.2-6.1 5.4-5.2c7 1.4 14.3 2.6 21.1 5 6.3 2 8.2 6.5 7.7 13a29 29 0 0 1-29.2 25.2c-3.5-.2-4.7-2.1-4.7-5.1z" class="st0"/>
</svg>
