<?xml version="1.0" encoding="utf-8"?>
<!-- Generator: Adobe Illustrator 28.1.0, SVG Export Plug-In . SVG Version: 6.00 Build 0)  -->
<svg version="1.1" id="Layer_1" xmlns="http://www.w3.org/2000/svg" xmlns:xlink="http://www.w3.org/1999/xlink" x="0px" y="0px"
	 viewBox="0 0 805.6 712.9" style="enable-background:new 0 0 805.6 712.9;" xml:space="preserve">
<style type="text/css">
	.st0{fill:#998675;}
	.st1{fill:#00A3FF;}
	.st2{fill:#2FAFFF;}
</style>
<g>
	<path class="st0" d="M299.6,699.7c-14.1,0-28.5-1.3-42.8-3.9c-19-3.5-44-7.6-68.7-9.3c-61.8-4.1-122.6-46.1-158.6-109.7
		c-34.6-61.2-39.1-129.1-12-181.7c18.7-36.2,18.4-68.5-0.8-108c-21.1-43.2-21.9-84.7-2.5-117c19.8-32.8,58-51.8,107.7-53.3
		c3.2-0.1,6.5-0.1,10.5-0.1c2.9,0,5.7,0,8.6,0l0.2,0c2.8,0,5.6,0,8.5,0h1l1,0.1c5.4,0.4,12.5,0.9,19,0.9c22.5,0,35.8-5,50.4-33.6
		c14-27.4,39.2-49.7,72.8-64.4C323.2,6.8,357.7,0,393.9,0C459,0,517.7,21.9,550.8,58.6c15.7,17.4,38.6,30.2,62.9,43.7
		c11.2,6.2,22.7,12.7,33.8,19.7c2.6,1.6,6.7,3.2,11.1,4.8l2.3,0.8c82,30.5,126.3,53.1,140.3,92.2c13.8,38.3-4.6,81.6-45.9,152.8
		c-20.3,35-40.4,71.3-60,108c-27.3,51.2-74.3,58.9-112,65.1c-14.2,2.3-27.5,4.5-39.4,8.6c-24.4,8.3-43.9,20.9-51,32.7
		c-20.7,34.6-49,63.2-81.9,82.5C377.5,689.3,339,699.7,299.6,699.7z"/>
	<path class="st1" d="M303.6,709.7c-13.5,0-27.3-1.3-41-3.8c-19.3-3.5-44.6-7.7-69.8-9.4c-58.5-3.8-116.2-44-150.5-104.7
		C9.3,533.6,4.9,469.2,30.4,419.7c20-38.8,19.8-74.9-0.7-117c-19.5-40-20.6-78.2-2.9-107.5c18-29.8,53.3-47.1,99.4-48.5
		c3.1-0.1,6.3-0.1,10.2-0.1c2.8,0,5.7,0,8.6,0c2.9,0,5.8,0,8.8,0h0.6l0.6,0c5.6,0.4,13,0.9,19.8,0.9c25.5,0,42.6-6.2,59.3-39.1
		c13-25.4,36.4-46,67.9-59.8C330,36.5,363.1,30,397.9,30c62.4,0,118.2,20.7,149.5,55.3c16.8,18.6,40.4,31.8,65.4,45.8
		c11,6.2,22.4,12.5,33.3,19.4c3.5,2.2,8.1,3.9,13,5.7l2.2,0.8c79.1,29.4,121.6,50.8,134.4,86.2c12.5,34.6-5.4,75.8-45.1,144.4
		c-20.3,35.1-40.5,71.5-60.2,108.3c-25,46.8-67.4,53.8-104.8,59.9c-14.6,2.4-28.4,4.6-41,9c-26.9,9.2-48,23-56.3,37
		c-19.8,33.2-46.9,60.5-78.4,79C378,699.7,341.2,709.7,303.6,709.7z"/>
	<path class="st2" d="M153.8,179.9c39.7,3.1,69.2,1.7,93.7-46.2c44.8-87.6,223.4-92.5,288.7-20.1c26.5,29.3,67.3,45.8,101.7,67.8
		c5.5,3.5,11.9,5.7,18.1,8c148.8,55.2,157.5,77.7,81.5,209c-20.8,35.9-40.9,72.2-60.4,108.8c-30.2,56.7-89.5,45.4-137.5,61.8
		c-24,8.2-52.2,23.2-64.4,43.5c-44.2,73.9-122.7,112.8-210,97c-23.7-4.3-47.6-8-71.5-9.6c-111.5-7.3-201.3-155.5-150-255
		c24.1-46.7,20-88.2-0.6-130.4C7.4,241,42.6,182.6,126.7,180C135.5,179.7,144.4,179.9,153.8,179.9z"/>
	<path class="st1" d="M289.8,285.1c16.1,1.3,28.1,0.7,38.1-18.8c18.2-35.6,90.8-37.6,117.3-8.2c10.8,11.9,27.3,18.6,41.3,27.5
		c2.2,1.4,4.9,2.3,7.4,3.2c60.5,22.4,64,31.6,33.1,84.9c-8.4,14.6-16.6,29.3-24.5,44.2c-12.3,23-36.4,18.4-55.9,25.1
		c-9.7,3.3-21.2,9.4-26.1,17.7c-17.9,30-49.9,45.9-85.3,39.4c-9.6-1.7-19.3-3.3-29.1-3.9c-45.3-3-81.8-63.2-60.9-103.6
		c9.8-19,8.1-35.8-0.2-53c-14.5-29.8-0.2-53.5,33.9-54.6C282.4,285,286,285.1,289.8,285.1z"/>
</g>
<path class="st1" d="M836-116.3"/>
</svg>
