<?xml version="1.0" encoding="utf-8"?>
<!-- Generator: Adobe Illustrator 28.1.0, SVG Export Plug-In . SVG Version: 6.00 Build 0)  -->
<svg version="1.1" id="Layer_1" xmlns="http://www.w3.org/2000/svg" xmlns:xlink="http://www.w3.org/1999/xlink" x="0px" y="0px"
	 viewBox="0 0 1000 1000" style="enable-background:new 0 0 1000 1000;" xml:space="preserve">
<style type="text/css">
	.st0{fill:#998675;}
	.st1{fill:#00A3FF;}
	.st2{fill:#2FAFFF;}
</style>
<g>
	<path class="st0" d="M1343.8,951.4c-9.4,0-19.1-0.3-28.9-0.9c-144.4-9.1-244.4-67.5-314.8-183.7c-4.3-7.2-13.6-19.2-26.9-19.2
		c-11.9,0-25,9.5-35.9,26.1c-3.5,5.3-2.6,6-6.1,10.8c-7.7,10.6-14.7,11.7-23.2,21.7c-5.3,6.2-5.4,9-8.7,13.6
		c-12.3,17.1-39.8,15.1-46.6,17.7c-90.8,34.6-184.7,70.4-280,96.6c-5.2,1.4-10.9,2.1-17,2.1c-34.3,0-87.9-25.3-105.6-57.8
		c-19.3-35.4-34.7-38.4-48.9-38.4c-9.9,0-22.1,2.2-39.5,7C298,864.8,230.3,882.1,164,882.1c-5.9,0-11.7-0.1-17.4-0.4
		C97.1,879.4,48.1,828.2,34.9,778c-15.6-59.2,28.8-85.9,51.5-214c3.2-17.7,10.5-63.2-4.3-101.7c-7.9-20.6-14.7-34.2-14.7-34.2
		c-9.8-16.5-22.1-37-29.1-68.5c-3.3-15-5.4-30.5-6.1-46.1l-0.3-7.5l4-6.3c41.4-65.4,86.2-100.4,133.2-103.9c1.5-0.1,18.7-3.7,19-2.5
		c0,0.1-0.2,0.3-0.1,0.4c0.3,0.5,8.3-4.5,13.5-7c9.2-4.3,14.8-3.2,22.6-4.7c7.3-1.3,17.6-5.1,29.3-16.3c32.4-21,60.9-36.7,82.6-47.9
		c42.1-21.6,95.6-52.7,170.8-64c14.4-2.1,27.9-4.2,41.2-6.7C649.7,28.1,752,23.5,865.5,19.8c1.7-0.1,3.4-0.1,5.2-0.1
		c29,0,57.2,7.7,84.4,15.2c15.5,4.3,30.2,8.3,44.9,10.9c13.3,2.4,26.8,5.3,39.8,8.2c30.7,6.7,59.7,13,87.8,13
		c5.1,0,10.1-0.2,14.8-0.6c44.6-4,90-12.8,134-21.3c43.9-8.5,89.3-17.3,134.9-21.6c38.6-3.7,77.4-5.6,115.1-5.6
		c43.8,0,86.9,2.5,128.2,7.5c38,4.6,71.3,39.3,98.1,67.1l4.2,4.3c17.2,17.8,31.9,37.6,46.2,56.8c15.4,20.6,29.9,40.1,46.8,56.8
		c13.5,13.3,30,24.2,47.6,35.8c21.3,14.1,43.4,28.7,61.3,48.7c42.2,47,41.7,99.8-1.4,156.8c-28.1,37.2-47.1,81.9-67.2,129.2
		c-7.2,16.9-14.6,34.3-22.4,51.2c-36.6,79.4-99.2,123.5-196.8,138.6c-42.6,6.6-60.1,34.7-78.3,51.7c-6.5,6.1-8,8-32.3,32.8
		c-32.9,33.6-49.3,50.4-52.8,53.2C1455.5,950.6,1384.2,951.4,1343.8,951.4z"/>
	<path class="st1" d="M1321.3,991c-9.4,0-19.1-0.3-28.9-0.9C1148,981,1048,922.6,977.6,806.3c-4.3-7.2-13.6-19.2-26.9-19.2
		c-11.9,0-25,9.5-35.9,26.1c-1.9,2.9-4,6.8-6.1,10.8c-6.9,13-15.5,29.1-31.8,35.3c-15.5,5.9-31.1,11.8-46.6,17.7
		c-90.8,34.6-184.7,70.4-280,96.6c-5.2,1.4-10.9,2.1-17,2.1c-34.3,0-87.9-25.3-105.6-57.8c-19.3-35.4-34.7-38.4-48.9-38.4
		c-9.9,0-22.1,2.2-39.5,7c-63.7,17.7-131.4,35.1-197.7,35.1c-5.9,0-11.7-0.1-17.4-0.4C79.7,919.2,17.1,861,12.3,817.6
		c-5.2-47.7-8.7-139.3,27-216.9c16.6-36.2,23.3-68.5,20.3-98.8c-1.1-11.5-6.8-21-14.7-34.2c-9.8-16.5-22.1-37-29.1-68.5
		c-3.3-15-5.4-30.5-6.1-46.1l-0.3-7.5l4-6.3C54.8,273.9,99.6,239,146.5,235.4c5.9-0.4,12.3-1.4,19-2.5c12.2-1.9,26.1-4.1,43.2-4.1
		c10.3,0,20.6,0.8,31.3,2.4c0.2,0,0.6,0.1,1.3,0.1c10,0,25.5-7.7,28.8-12.2c46.5-100.6,135.5-113.9,214.1-125.6
		c14.4-2.1,27.9-4.2,41.2-6.7C627.2,67.7,729.4,63.1,843,59.4c1.7-0.1,3.4-0.1,5.2-0.1c29,0,57.2,7.7,84.4,15.2
		c15.5,4.3,30.2,8.3,44.9,10.9c13.3,2.4,26.8,5.3,39.8,8.2c30.7,6.7,59.7,13,87.8,13c5.1,0,10.1-0.2,14.8-0.6
		c44.6-4,90-12.8,134-21.3c43.9-8.5,89.3-17.3,134.9-21.6c38.6-3.7,77.4-5.6,115.1-5.6c43.8,0,86.9,2.5,128.2,7.5
		c38,4.6,71.3,39.3,98.1,67.1l4.2,4.3c17.2,17.8,31.9,37.6,46.2,56.8c15.4,20.6,29.9,40.1,46.8,56.8c13.5,13.3,30,24.2,47.6,35.8
		c21.3,14.1,43.4,28.7,61.3,48.7c42.2,47,41.7,99.8-1.4,156.8c-28.1,37.2-47.1,81.9-67.2,129.2c-7.2,16.9-14.6,34.3-22.4,51.2
		c-36.6,79.4-99.2,123.5-196.8,138.6c-27.3,4.2-62.4,27.4-78.3,51.7C1513,948.8,1431.6,991,1321.3,991z"/>
	<path class="st2" d="M32.3,375.4c46-72.6,86.2-91.2,115.9-93.4c24-1.8,47.9-10.5,88.6-4.4c16.9,2.5,47.1-10.5,53.6-24.7
		c49-106.4,151.8-103.3,239.2-119.8c102.9-19.4,209.1-23.7,314.1-27.1c42.9-1.4,86.3,17.9,129.8,25.7c49.3,8.8,99.8,25.2,148.3,20.8
		c90.2-8.2,178.8-34.3,269-43c79-7.6,160-7.6,238.6,1.9c31.9,3.8,63.3,38.2,88.8,64.8c33.9,35.2,58.7,79.9,93.5,114
		c32.3,31.8,77.9,50,107.9,83.4c33.9,37.8,34.2,77.9-2.6,126.6c-40.6,53.7-63.2,122-92.1,184.7c-36.2,78.5-97.4,112.8-179.8,125.6
		c-34.1,5.3-74.3,32.1-93.7,61.6c-60.5,92.1-147.8,124.9-257.6,118c-131.4-8.3-227.2-57.6-297-172.8c-25-41.3-69.5-41.1-100.6,6.2
		c-8.6,13-15.2,32.9-27.1,37.4c-107.4,40.6-214.4,83.4-324.7,113.7c-27.8,7.6-82.8-18.1-97.2-44.6c-30.2-55.5-61.5-57.1-114-42.5
		c-67.9,18.9-139.3,37.1-208.2,33.9c-32.9-1.6-86.7-50.8-90.2-83.1c-7.3-67-2.5-144.4,24.9-204.3c18.7-40.7,25.7-76.9,22.3-111.1
		C78.6,488,49.8,471,37.8,417.3C34,399.9,32.7,385.2,32.3,375.4z"/>
	<path class="st1" d="M159.7,455.7c20.2-31.9,37.9-40.1,51-41.1c10.6-0.8,21.1-4.6,38.9-1.9c7.4,1.1,20.7-4.6,23.6-10.9
		c21.5-46.8,66.7-45.4,105.2-52.7c45.3-8.5,91.9-10.4,138.1-11.9c18.9-0.6,37.9,7.9,57.1,11.3c21.7,3.9,43.9,11.1,65.2,9.1
		c39.6-3.6,78.6-15.1,118.2-18.9c34.7-3.3,70.3-3.3,104.9,0.8c14,1.7,27.8,16.8,39.1,28.5c14.9,15.5,25.8,35.1,41.1,50.1
		c14.2,14,34.3,22,47.4,36.7c14.9,16.6,15,34.3-1.1,55.7c-17.9,23.6-27.8,53.6-40.5,81.2c-15.9,34.5-42.8,49.6-79.1,55.2
		c-15,2.3-32.7,14.1-41.2,27.1c-26.6,40.5-65,54.9-113.3,51.9c-57.8-3.6-99.9-25.3-130.6-76c-4.7-7.8-11.1-12.3-17.9-13.1
		c-10.4-1.3-22.3,7.2-26.4,15.8c-13.8,29.6,58.2,75.4,48,97.6c-10.5,23-95.9-7.5-202.7-31.2c-15.6-3.5-34.2-3.9-42.7-19.6
		c-13.3-24.4-27-25.1-50.1-18.7c-29.8,8.3-61.2,16.3-91.5,14.9c-14.4-0.7-38.1-22.3-39.7-36.5c-3.2-29.5-1.1-63.5,11-89.8
		c8.2-17.9,11.3-33.8,9.8-48.8c-1.5-15.3-14.2-22.8-19.4-46.4C160.5,466.5,159.9,460.1,159.7,455.7z"/>
	<path class="st1" d="M856.1,402c20.2-31.9,37.9-40.1,51-41.1c10.6-0.8,21.1-4.6,38.9-1.9c7.4,1.1,20.7-4.6,23.6-10.9
		c21.5-46.8,66.7-45.4,105.2-52.7c45.3-8.5,91.9-10.4,138.1-11.9c18.9-0.6,37.9,7.9,57.1,11.3c21.7,3.9,43.9,11.1,65.2,9.1
		c39.6-3.6,78.6-15.1,118.2-18.9c34.7-3.3,70.3-3.3,104.9,0.8c14,1.7,27.8,16.8,39.1,28.5c14.9,15.5,25.8,35.1,41.1,50.1
		c14.2,14,34.3,22,47.4,36.7c14.9,16.6,15,34.3-1.1,55.7c-17.9,23.6-27.8,53.6-40.5,81.2c-15.9,34.5-42.8,49.6-79.1,55.2
		c-15,2.3-32.7,14.1-41.2,27.1c-9.8,15-21.3,26.4-34.2,34.6c-34.2,21.9-76.5,6.7-79.1,17.3c-1.3,5.2,9.7,7.2,14.2,19.8
		c6.8,19.2-8.2,43.4-20.3,55.9c-3.6,3.8-4.8,4.8-18.1,14c-38.8,26.8-41.1,35.3-49.7,34.9c-23.8-0.9-14.1-66.7-52.9-100.3
		c-45.2-39.3-135-16.1-202.7-31.2c-15.6-3.5-34.2-3.9-42.7-19.6c-13.3-24.4-27-25.1-50.1-18.7c-29.8,8.3-61.2,16.3-91.5,14.9
		c-14.4-0.7-38.1-22.3-39.7-36.5c-3.2-29.5-1.1-63.5,11-89.8c8.2-17.9,11.3-33.8,9.8-48.8c-1.5-15.3-14.2-22.8-19.4-46.4
		C856.9,412.8,856.3,406.3,856.1,402z"/>
</g>
</svg>
