<?xml version="1.0" encoding="utf-8"?>
<!-- Generator: Adobe Illustrator 28.1.0, SVG Export Plug-In . SVG Version: 6.00 Build 0)  -->
<svg version="1.1" id="Layer_1" xmlns="http://www.w3.org/2000/svg" xmlns:xlink="http://www.w3.org/1999/xlink" x="0px" y="0px"
	 viewBox="0 0 1000 1000" style="enable-background:new 0 0 1000 1000;" xml:space="preserve">
<style type="text/css">
	.st0{fill:#998675;}
	.st1{fill:#00A3FF;}
	.st2{fill:#2FAFFF;}
</style>
<g>
	<path class="st0" d="M145.6,887.9c-6.2,0.1-12.3-0.6-12.3-0.6c-1.6,0-48.7-15.4-71.3-36.6C22.7,814,24.5,728.8,37,675
		c12.2-52.3,35-109,35-109c11.3-28.1,17.9-39.6,16-59c-1.9-19.1-10.2-28.2-35.3-74.4C37.5,404.9,30,391,28.3,385.7
		C14.5,342.9,24.9,290.3,55,254c13.7-16.5,28.3-25.7,36.8-31c27.8-17.5,53.4-22.1,83.3-27.4c6-1.1,26.2-4.1,43.6-4.1
		c10.5,0,20.9,0.8,31.7,2.4c0,0,0,0,0,0c10.3,1.2,21.1-7,32.5-23.9c7.3-13.1,19.7-31.7,39.3-49.7c4.5-4.1,22.7-21.3,53.2-35
		c37.7-17,78.7-23.1,118.3-29.1c14.3-2.1,27.9-4.2,41.1-6.7c101.9-19.2,204.3-23.8,318-27.5c1.7-0.1,3.5-0.1,5.3-0.1
		c29.4,0,57.8,7.8,85.2,15.3c14.8,4.1,30.1,8.2,44.6,10.8c13.4,2.4,26.9,5.3,39.9,8.2c29.2,6.4,59.4,12.9,87.1,12.9
		c5,0,9.9-0.2,14.5-0.6c44.4-4,89.8-12.8,133.7-21.3c44-8.5,89.5-17.3,135.2-21.7c38.7-3.7,77.6-5.6,115.4-5.6
		c43.9,0,87.1,2.5,128.6,7.5c39,4.7,72.7,39.7,99.7,67.9c0,0,2.9,3,4.2,4.3c17.2,17.9,32,37.8,46.3,57c14.7,19.7,29.8,40,46.6,56.6
		c13.3,13.1,30.6,24.5,47.2,35.5c21.4,14.2,43.6,28.8,61.8,49.1c22.6,25.2,29.3,54,30.8,62.3c2.7,13.6,5.4,27.3,8.1,40.9
		c-3.4-3.5-9-8.3-16.8-10.8c-37.9-12.4-77.2,52.4-113.4,67.7c-53.2,22.4-125.4,47.8-214.7,75.5c-109.8,34.1-275.3,70.3-601.3,161.3
		C1040.7,694.7,355.3,886,145.6,887.9z"/>
	<path class="st1" d="M166.4,897.7c-8.6,0.6-16.9-0.4-16.9-0.4c-17.7-0.8-41.1-13-62.4-32.6c-21.4-19.7-35.4-41.9-37.3-59.4
		c-4-36.1-4.2-73.1-0.6-107c4.1-38.9,13-73.4,26.4-102.6c17.7-38.5,24.7-73.2,21.5-106c-1.4-14.5-8.1-25.7-16.5-39.9
		c-6.9-11.5-14.9-25-21.4-43.1c-1.7-4.9-4.3-12.1-6.1-21.4c-2.2-10.9-4.1-28.3-0.1-50.5c4.4-12.4,12.1-30.3,26-49
		c6.8-9.2,16.7-22.6,33-34c28-19.7,58.2-22,75-23c35.9-2.2,42.2,7.9,75,2c14.5-2.6,29.6-5.3,44.3-16.3
		c21.5-16.1,19.5-32.9,38.7-55.7c14.6-17.3,30.4-24.9,51.7-35.1c25.8-12.4,55.4-19.1,114.3-27.9c14.5-2.2,28.1-4.2,41.7-6.8
		c100.8-19,202.6-23.6,315.7-27.3c1.6-0.1,3.2-0.1,4.8-0.1c27.4,0,54.8,7.5,81.2,14.7c15.1,4.1,30.7,8.4,45.9,11.1
		c13.1,2.4,26.5,5.3,39.4,8.1c30,6.5,61,13.3,90.3,13.3c5.5,0,10.8-0.2,15.9-0.7c45.2-4.1,90.9-12.9,135.2-21.5
		c43.6-8.4,88.7-17.2,133.7-21.5c38.3-3.7,76.6-5.5,114-5.5c43.3,0,86,2.5,126.8,7.4c33.7,4.1,65.3,37,90.7,63.4
		c1.4,1.5,2.8,2.9,4.2,4.4c16.6,17.2,31.1,36.7,45.1,55.5c15,20.1,30.5,41,48.2,58.3c14.4,14.1,32.2,25.9,49.5,37.3
		c20.7,13.7,42,27.8,58.9,46.6c22.2,24.7,26.8,53.1,27.2,55.2C2004.7,522.4,235.2,892.9,166.4,897.7z"/>
	<path class="st2" d="M93,335c37.4-53.4,71.9-68.6,97.4-72c27.7-3.7,48.3-10.4,88.6-4.4c16.9,2.5,47.1-10.5,53.6-24.7
		c28.6-62.1,175.1-96.2,239.2-119.8C711.8,62.4,852,84.6,886,90c28.1,4.4,54.6,10.7,129.7,22.7c77.5,12.3,116.2,23.7,148.3,20.8
		c90.2-8.2,178.8-34.3,269-43c149.6-14.3,195.2-20.6,238.6,1.9c29.3,15.1,52.3,36.2,72.4,54.6c66.8,61.1,53,83.1,106,125
		c41.4,32.7,70.9,36,111.8,82.6c13.4,15.2,22.4,28.8,25.2,46.4c4.8,30.2-11.7,53.7-27.8,80.2c-50.6,83-43,78.2-92.1,184.7
		c-36.2,78.5-97.4,112.8-179.8,125.6c-34.1,5.3-74.3,32.1-93.7,61.6c-60.5,92.1-147.8,124.9-257.6,118
		c-131.4-8.3-227.2-57.6-297-172.8c-10.9-18-25.6-28.2-41.2-29.9c-13.6-1.5-25.5,6.8-59.4,36.1C912.5,826.8,899.5,838,890,848
		c-44.3,46.6-179.2,132.8-303.5,107.6c-28.7-5.8-58.5-11.9-85.5-35.6c-25.6-22.4-29.4-43.6-55.1-54.7c-26.7-11.5-54-2-70.5,3.2
		C336,881.1,167.9,934.5,105,879c-15.6-13.8-20.1-30.2-28-59.7C68.9,789.4,43.1,743,101.9,615c18.7-40.7,25.7-76.9,22.3-111.1
		C120,460.6,83.4,444.7,80,398.4C78,371.3,86.5,348.7,93,335z"/>
	<path class="st1" d="M1362.3,782c-4.7,0-9.8-0.2-15-0.5c-37.1-2.3-65.1-9.1-85.7-20.8c-12.3-7-31.1-20.3-52.8-56
		c-42.1-69.5-140.6-118.7-217.2-126.6c-109.2-11.3-195.6,62-219.7,83.9c-8.1,11.3-32.6,42.2-77.3,57.4c-40.3,13.7-74.9,7.1-88.7,3.6
		c-16.1-6.7-40-16-69.5-25.5c-55.5-17.9-83.2-26.8-117-26.8c-56.7,0.1-68.6,23.8-99.1,15.2C296.4,679,266.8,653.6,246,569
		c-0.8-1.8-16.5-38.7,7-72c23.2-32.9,62.7-31,64.8-30.8c24.5-3.7,64.6-13,106.5-39.5c28.8-18.2,49.2-38.8,62.7-54.7
		c27.5-27.7,52.8-38.5,71-43.3c17.1-4.5,23.6-2.4,49.6-8.1c30.6-6.7,46.3-14.8,65.4-21.6c22.6-8,55.8-16,101-15
		c76.5,6.6,117.4,14.2,140.9,20.2c5.6,1.4,30,9.2,64.4,15.3c9.3,1.7,20.2,4,31.8,6.6c37,8.1,83.1,18.1,135,18.1
		c11.8,0,23.5-0.5,34.8-1.6c55.7-5,106.7-14.9,156.1-24.5c40.6-7.8,78.9-15.2,113.9-18.6c31.6-3,63.3-4.6,94-4.6
		c21,0,41.7,0.7,62,2.1c14.3,7.4,35,20.1,55.2,40.9c11.4,11.7,38.4,40.2,50.5,85.7c5.5,20.7,0.8,54.9-8.7,123.4
		c-1.8,13.2-4.7,32.3-19.6,44.9c-11.3,9.6-24.4,11.1-28.9,11.7c-67.4,9.4-199.8,100.8-230.1,149.5c-2.9,4.6-8.9,15.4-21.5,21.9
		C1390.9,781.7,1374.9,782,1362.3,782z"/>
</g>
</svg>
