<svg version="1.1" xmlns="http://www.w3.org/2000/svg"
     viewBox="0 0 370.7 370.7" style="enable-background:new 0 0 370.7 370.7;" xml:space="preserve">
<style>
	.st0{fill:#111111;}
	.st1{fill:#F6F6F6;}
</style>
  <rect class="st0" width="370.7" height="370.7"/>
  <g transform="matrix(3.623188176871784,0,0,3.623188176871784,18.115941569256968,1.9565228100716858)">
	<path class="st1" d="M15.7,27.9l0.6,4l0,0.1c0,0-0.1,1.4-0.2,2.8c-0.1,0.8-0.1,1.8-0.2,2.8l-1.2,1.9l-3.2,1l-2.8,0.1l0.5,5l0.2,2.5
		l-2.3,0.2c-0.2,0-0.6,0-1,0.1c-0.2,0-0.5,0-0.7,0l-1.2-0.2v-4.5L4,40.9c0-0.6,0-1.2,0-1.7c0-0.9,0-1.8,0-2.1v-6.9l0.1-3.5h1.3
		c0.8,0,1.7,0,2.5,0c1.6,0,3.3-0.1,3.8,0c0.4,0.1,1.1,0.1,1.7,0.2l1.2,0.2L15.7,27.9z M11,37.6l0.5-0.4c0-0.5,0.2-3,0.2-3.3
		s-0.3-1.3-0.4-1.6l-0.8-0.8l-1.1-0.2H7.1l-0.2,0.5l-0.1,2.1l0.3,3.7l1.3,0.2L11,37.6z M18.2,32l5.3,0.1l-0.3,3.7l0.4,7.6l-0.2,5
		l-0.5,0.1l-4.6-0.1L18.1,47L18,39L18.2,32z M18.4,26.2l5,0.1l0.2,1.2v2l-0.1,1.1l-5.3,0L18,28.5L18,26.5L18.4,26.2z M31.8,26.5
		v18.1l2.5,0.4l2.4,0.1l-0.2,3.4h-1.9l-6.3,0.2l-2.1-0.1l-0.4-19.8l0.2-2.1L31.8,26.5z M43.7,26.5v18.1l2.5,0.4l2.4,0.1l-0.2,3.4
		h-1.9l-6.3,0.2l-2.1-0.1l-0.4-19.8l0.2-2.1L43.7,26.5z M52.8,38.7l3.3-0.1L56,34.4l-0.8-2.9l-2-0.1L52.8,38.7z M53.7,26.5h2.1
		l4.3,0.3l0.9,10.8l0.3,10.8l-1,0.1l-3.7,0.1h-0.4L56,41.8l-3.1-0.2l-0.8,6.8l-3.2,0.1l1.1-11.1l1-6.4l0.7-4.5L53.7,26.5z
		 M62.8,27.5l1-0.8l0,0l2.9-0.4l6.2,0.4l0.9,0.8l0.8,1.2l0.2,5.1l-4.6,0.4L70,33.4l0-3.6l-1.6-0.5l-1.3,0.1L67.3,43l0.9,0.4l4.5,0.2
		v-2.2l-4.1,0l-0.1-0.4v-3.5l5.4-0.4l0.9,0.1l0,5.4l-0.2,5.3l-5.3,0.5l-3.7-0.3l-2.1-1.2l-0.5-1.3l-0.5-16.2L62.8,27.5z M76.8,48.4
		l-0.1-10.3l0.1-1.1l-0.1-1.1l0.2-6.6l0.3-2.6L88,26.9l0.2,5.8h-7L81,36.4l5.4-0.1v0.3l0.2,2.5l-5,0.1l0.2,4.4l6.7,0.3v4.6
		L76.8,48.4z M25.2,52.9h0.3l-0.3,5.7l-5-0.3l0.1,4.9l4.5,0.2l0.4,2.8h-5.3l0.6,8.7l-5.6-0.1l-0.2-8.9l-0.1-4l0.2-8.7l4.3-0.4
		L25.2,52.9z M27.4,58.4l5.3,0.1l-0.3,3.7l0.4,7.6l-0.2,5l-0.5,0.1l-4.6-0.1l-0.2-1.4l-0.1-8L27.4,58.4z M27.6,52.6l5,0.1l0.2,1.2v2
		l-0.1,1.1l-5.3,0l-0.2-1.9l-0.1-2.1L27.6,52.6z M38.6,56.6l0.1,2.4V62h1.2l1.2-0.1l0.8-0.7V61l0.1-2l-0.3-1.8v-0.1l-0.4-1.2
		l-0.9-0.4h-1.7L38.6,56.6z M38.4,52.9l4.3,0.1l2,0.2l1.7,0.9l1.3,2l-0.4,5.7l-0.5,0.9l-1.9,0.6l2.2,1.5l0.6,1.5v2.4l-0.3,6.3
		l-0.9,0.2l-3.4-0.1L43,69.1L42.7,66l-0.8-0.8l-1.5-0.4V67v5.5l0.1,2.3l-3.2,0l-1.5,0.1l-0.5-0.1v-4.3v-3.1l0.2-4l-0.1-7L35.3,53
		L38.4,52.9z M59.6,53.4l0.9,1.3v3.6l-0.1,1.8L56,59.9v-1.2v-1.6l-2.2,0L53.4,58l0.4,4l3.4,0.2l3.3,0.4l0.1,3.8v2.7l-0.4,4.7l-3,1.3
		l-4.4-0.2l-2-0.7l-1-0.7l-0.5-2.2l0.2-3.7l0.2-1.2l1.1,0.1l2.6,0.3v0.9v1v0.5v0.8l3.1,0.3l0.1-5.4l-6.6-0.3L49.8,58l-0.1-4.3
		l1.1-0.7c0.8,0,1.4-0.1,2-0.1c1.1-0.1,2.1-0.1,2.3-0.1c0.2,0,0.8,0,1.3,0.1l1.1,0.1L59.6,53.4z M62.1,53.1l6.7-0.2l3.5,0.1l1,0.1
		l-0.4,4.3l-2.6-0.1l0.2,17.6L64.6,75l0.3-10.5l0.1-7.3L61.9,57L62.1,53.1z M74.4,57.6l0.3-4.5l0,0l4.9-0.2l0.3,1.1L80,62l-0.9,7.5
		L75,69.4l-0.2-4.1L74.4,57.6z M79.6,75.1l-4.9,0L74.5,74V72l0.1-1l5-0.1l0.4,1.8l-0.1,2L79.6,75.1z"/>
</g>
</svg>
