<svg id="Layer_1" data-name="Layer 1" xmlns="http://www.w3.org/2000/svg" viewBox="0 0 363.04 235.89">
  <defs>
    <style>.cls-1{fill:#111;}.cls-2{fill:#f6f6f6;}</style>
  </defs>
  <path class="cls-1" d="M0,0H363V235.89H0Z" transform="translate(0.01)"/>
  <path class="cls-2"
        d="M70.81,35.29l2.3,14.5v.4l-.7,10.1c-.4,3-.4,6.6-.7,10.2l-4.6,6.9L55.51,81l-10.1.4,1.8,18,.7,9.1-8.3.7a13.4,13.4,0,0,0-3.6.4h-2.6l-4.3-.7V92.59l-.8-10.2V43.79l.4-12.7h13.7c5.9,0,12-.4,13.8,0,1.5.4,4,.4,6.2.7l4.4.7,4,3Zm-17,35.2,1.8-1.5c0-1.8.7-10.8.7-12a27.93,27.93,0,0,0-1.4-5.7l-2.9-3-4-.6h-8.3l-.7,1.8-.4,7.6,1,13.4,4.8.7Zm26.1-20.3,19.2.4-1,13.4,1.4,27.5-.8,18.1-1.8.4-16.6-.4-.8-5-.3-29Zm.7-21,18.1.3.8,4.4v7.2l-.4,4H79.91l-.7-7.6v-7.2l1.4-1.1Zm48.6,1v65.6l9,1.5,8.7.4-.7,12.3h-6.9l-22.8.7-7.6-.4-1.5-71.7.8-7.6,21-.7Zm43,0v65.6l9.1,1.5,8.7.4-.7,12.3h-6.9l-22.8.7-7.6-.4-1.5-71.7.8-7.6,21-.7Zm33,44.3,12-.4-.3-15.2-3-10.5-7.2-.4-1.4,26.5Zm3.3-44.2h7.6l15.6,1,3.3,39.2,1,39.1-3.6.4-13.4.3h-1.4l-.7-24.6-11.3-.7-2.9,24.6-11.6.4,4-40.2,3.6-23.2,2.6-16.3Zm33,3.6,3.6-3,10.5-1.4,22.5,1.5,3.2,2.9,3,4.3.7,18.5-16.7,1.5-.7-3v-13l-5.8-1.8-4.7.4.7,49.2,3.3,1.5,16.3.7v-8h-14.9l-.4-1.4V70.09l19.6-1.4,3.3.3v19.6l-.9,19.2-19.2,1.8-13.4-1-7.6-4.4-1.8-4.7-1.8-58.7,1-7Zm50.7,75.7-.3-37.3.3-4-.3-4,.7-23.9,1-9.4,39.2.7.7,21h-25.3l-.8,13.4,19.7-.3v1l.7,9.1-18,.4.6,16,24.3,1V110l-42.4-.4Zm-187,16.3h1.1l-1,20.7-18.2-1.1.4,17.7,16.3.8,1.5,10.1H86.11l2.1,31.5-20.3-.3-.7-32.3-.3-14.5.7-31.5,15.6-1.4Zm8,20,19.2.3-1,13.4,1.4,27.5-.7,18.2-1.8.3-16.7-.3-.7-5.1-.4-29,.7-25.4Zm.8-21,18,.3.8,4.3v7.3l-.4,4h-19.2l-.7-7-.4-7.5,1.9-1.5Zm39.8,14.4.4,8.7v10.9h4.3l4.4-.4,2.9-2.5v-.7l.3-7.3-1-6.5v-.4l-1.5-4.3-3.3-1.5h-6.1l-.4,4Zm-.7-13.4,15.6.4,7.2.7,6.2,3.3,4.7,7.2-1.5,20.7-1.8,3.2-6.9,2.2,8,5.4,2.2,5.5v8.7l-1.1,22.8-3.3.7-12.3-.3-.3-21.8-1.1-11.2-3-3-5.4-1.4v28l.4,8.3h-11.6l-5.4.3-1.8-.3v-26.8l.7-14.5-.4-25.4-.3-12.3,11.2-.4Zm76.8,1.8,3.3,4.7v13l-.4,6.6-16-.7v-10.2h-8l-1.4,3.3,1.5,14.5,12.3.7,12,1.5.3,13.7v9.8l-1.4,17-10.9,4.8-16-.8-7.2-2.5-3.6-2.5-1.8-8,.7-13.4.7-4.4,4,.4,9.4,1V188l11.3,1,.3-19.5-23.9-1-.7-24-.4-15.6,4-2.5c3,0,5-.4,7.3-.4,4-.3,7.6-.3,8.3-.3a31.27,31.27,0,0,1,4.7.3l4,.4,7.6,1.4Zm9-1,24.3-.8,12.7.4,3.6.3-1.4,15.6-9.4-.3.7,63.7L248,206l1.1-38,.4-26.5-11.3-.7.8-14.2Zm44.6,16.2,1.1-16.3,17.8-.7,1,4,.4,29-3.3,27.2-14.8-.4-.7-14.9-1.5-27.9Zm18.9,63.5h-17.8l-.7-4v-7.3l.3-3.6,18.2-.4,1.4,6.6-.4,7.2Z"
        transform="translate(0.01)"/>
</svg>
