<?xml version="1.0" encoding="utf-8"?>
<!-- Generator: Adobe Illustrator 25.2.0, SVG Export Plug-In . SVG Version: 6.00 Build 0)  -->
<svg version="1.1" id="Layer_1" xmlns="http://www.w3.org/2000/svg" xmlns:xlink="http://www.w3.org/1999/xlink" x="0px" y="0px"
	 viewBox="0 0 1459.84 217.1" style="enable-background:new 0 0 1459.84 217.1;" xml:space="preserve">
<style type="text/css">
	.st0{fill:#391600;}
	.st1{fill:url(#SVGID_1_);}
	.st2{fill:url(#SVGID_2_);}
	.st3{fill:url(#SVGID_3_);}
	.st4{fill:url(#SVGID_4_);}
	.st5{fill:url(#SVGID_5_);}
	.st6{fill:url(#SVGID_6_);}
	.st7{fill:url(#SVGID_7_);}
	.st8{fill:url(#SVGID_8_);}
	.st9{fill:url(#SVGID_9_);}
	.st10{fill:url(#SVGID_10_);}
	.st11{fill:url(#SVGID_11_);}
	.st12{fill:url(#SVGID_12_);}
	.st13{fill:url(#SVGID_13_);}
	.st14{fill:url(#SVGID_14_);}
	.st15{opacity:0;fill:#FFFFFF;}
</style>
<path class="st0" d="M127.66,134.17c-3.47,3.2-6.04,5.72-8.78,8.06c-11,9.42-24.36,13.56-38.14,16.38c-4.56,0.93-5.89,2.7-5.82,7.26
	c0.14,9.99-0.21,19.99-0.71,29.97c-0.61,12.28-5.91,17.68-18.15,17.84c-11.98,0.16-23.99-0.22-35.96-0.8
	c-12.05-0.59-19.44-8.25-19.5-20.34c-0.16-32.33,0.02-64.66-0.07-96.99C0.48,77.06,0.09,58.56,0,40.07
	c-0.02-4.48,0.25-9.01,0.87-13.44c1.04-7.38,5.9-12.79,13.34-13.48c26.55-2.45,53.16-4.57,79.74-0.6
	c10.53,1.57,20.12,5.81,28.43,12.68c1.1,0.91,2.38,1.6,3.93,2.63c0.67-1.49,1.31-2.46,1.55-3.51c1.94-8.8,7.95-13.15,16.38-13.51
	c13.8-0.59,27.64-0.78,41.44-0.34c3.98,0.13,7.89,4.28,11.81,4.24c3.92-0.04,7.74-4.25,11.73-4.49c13.62-0.84,27.31-1.15,40.96-0.88
	c13.3,0.27,19.18,7.14,18.73,20.54c-1.13,33.47-2.31,66.94-3.43,100.42c-0.25,7.39-0.17,7.4,7.04,6.65
	c12.1-1.24,12.19-1.24,12.04-13.76c-0.36-29.83-0.9-59.65-1.14-89.48c-0.04-4.42,0.71-8.96,1.88-13.23
	c1.63-5.94,6.06-9.05,12.23-9.26c13.49-0.46,26.98-1.05,40.47-1.08c12.22-0.02,17.43,4.07,18.52,16.22
	c1.15,12.73,0.93,25.62,0.75,38.43c-0.3,21.32-1.04,42.64-1.59,63.96c-0.2,7.85-0.2,7.8,7.52,7.58c5.16-0.15,10.39-0.66,15.47-0.01
	c4.69,0.6,6.19-1.31,7.03-5.33c2.82-13.53,5.72-27.05,8.77-40.54c4.29-19.01,8.74-37.98,13.12-56.97c0.07-0.32,0.15-0.65,0.23-0.97
	c4.9-18.41,11.96-23.07,31.03-22.01c13.29,0.74,26.64,0.49,39.96,0.48c13.31-0.01,19.16,4.36,22.47,17.16
	c3.92,15.15,7.9,30.29,11.88,45.42c0.23,0.89,0.63,1.73,1.22,3.31c2.61-6.91,4.91-13.06,7.25-19.2
	c13.04-34.14,39.83-49.33,74.4-52.14c19.92-1.62,37.26,5.79,50.76,21.05c0.53,0.59,1.19,1.07,2.42,2.17c0.8-2.1,1.48-3.68,2.02-5.3
	c3.15-9.43,8.07-13.35,18.06-13.42c20.83-0.14,41.66-0.01,62.49-0.02c8.5,0,17-0.2,25.49-0.06c12.37,0.2,18.19,5.92,18.15,18.17
	c-0.03,11.99-0.34,23.99-0.87,35.96c-0.35,7.89-3,14.64-11.04,18.13c-1.04,0.45-2.12,2.72-1.88,3.88
	c3.31,16.4,3.35,32.73-0.79,49.11c0.69,0.44,1.19,1,1.77,1.09c10.38,1.67,12.41,7.64,12.36,16.35c-0.08,13.33-0.22,26.67-0.91,39.97
	c-0.74,14.09-6.65,19.98-20.77,20.15c-25.81,0.3-51.64,0.03-77.45-0.08c-2.65-0.01-5.3-0.54-7.94-0.93
	c-8.26-1.22-13.19-5.79-15.01-13.88c-0.32-1.43-0.55-2.88-1-5.29c-1.81,1.37-3.15,2.18-4.24,3.24
	c-19.79,19.46-43.71,24.05-70.2,19.71c-12.55-2.06-24.11-6.48-34.45-13.87c-3.01-2.15-4.44-2.22-7.07,1.13
	c-2.57,3.27-6.78,6.42-10.75,7.2c-11.89,2.34-23.97,4.12-36.06,4.94c-11.45,0.77-18.3-4.9-21.78-15.93
	c-0.95-3.02-1.98-6.02-2.73-9.09c-0.82-3.39-2.63-5-6.27-5.12c-7.09-0.23-7.19-0.26-9.09,6.8c-1.25,4.66-2.44,9.36-4.12,13.87
	c-2.36,6.38-7.25,10.53-14.01,10.21c-12.93-0.61-25.81-2.21-38.72-3.28c-4.57-0.38-9.18-0.67-13.76-0.55
	c-22.97,0.57-46.07,3.05-68.89,1.48c-23.89-1.65-47.51,1.38-71.26,0.55c-7.99-0.28-16,0.03-23.99,0.03c-2.16,0-4.6,0.47-6.45-0.34
	c-7.9-3.46-15.42-0.6-23.27,0.14c-13.05,1.23-26.29,1.19-39.41,0.67c-10.18-0.4-15.13-6.24-15.55-17.24
	c-0.71-18.48-0.92-36.98-1.39-55.47C128.38,139.52,127.99,137.32,127.66,134.17z M653.5,117c0-5.73,0.13-10.89-0.03-16.05
	c-0.21-6.71-2.27-8.65-8.9-8.35c-9.81,0.44-19.62,1.09-29.43,1.59c-6.32,0.32-12.65,0.42-18.96,0.82c-3.04,0.19-6.35,0.68-6.09,4.93
	c0.46,7.47,1.08,14.93,1.72,22.39c0.31,3.6,2.33,5.3,6,5.14c3.49-0.15,7-0.07,10.49-0.23c3.16-0.15,4.45,1.38,4.81,4.38
	c1.46,12.18-4.85,22.02-15.69,24.26c-11.79,2.43-21.28-3.16-24.46-15.58c-5.61-21.92-5.52-43.96,1.98-65.44
	c1.82-5.21,5.65-10.37,9.91-13.93c8.42-7.05,19.15-3.16,22.33,7.27c0.68,2.23,0.86,4.83,2.17,6.57c1.31,1.74,3.89,3.89,5.68,3.69
	c10.25-1.09,20.46-2.66,30.62-4.42c4.18-0.72,5.76-3.64,4.3-7.86c-1.69-4.87-2.95-9.93-5.09-14.59
	c-11.27-24.65-29.58-34-50.94-33.39c-28.4,0.81-50.91,18.73-59.87,45.78c-8.17,24.67-9.86,49.9-6.5,75.47
	c1.94,14.76,6.7,28.8,17.5,39.53c16.4,16.3,36.91,20.49,59.1,17.32c27.45-3.93,42.67-19.33,46.27-46.53
	C651.89,138.73,652.53,127.57,653.5,117z M487.37,195.95c9.09-1.1,18.21-2.06,27.28-3.33c8.88-1.24,9.55-2.31,7.53-10.98
	c-11.68-50.11-23.38-100.22-35.1-150.33c-1.49-6.37-2.62-7.32-9.22-7.37c-13-0.11-25.99-0.16-38.99-0.13
	c-15,0.04-15.36,0.02-18.58,14.57c-10.71,48.44-21.16,96.93-31.65,145.42c-1.3,6.02,0.51,8.38,7.13,9.3
	c9.9,1.37,19.83,2.52,29.73,3.81c3.92,0.51,6.45-0.88,7.4-4.87c1.7-7.13,3.78-14.18,5.1-21.38c0.86-4.67,3.19-5.89,7.56-5.74
	c7.32,0.26,14.67,0.22,21.99-0.04c4.07-0.15,6.02,1.38,7,5.32c1.72,6.95,3.85,13.79,5.88,20.66
	C481.42,194.28,483.46,196.4,487.37,195.95z M15.18,185.46c0.01,6.44,1.21,7.58,7.55,7.79c9.32,0.32,18.64,0.69,27.96,0.88
	c7.93,0.16,8.9-0.86,8.78-8.86c-0.18-12.49-0.53-24.97-0.64-37.46c-1.77-12,8.78-7.22,16.55-8.56c38.52-1.66,57.3-37.74,52.9-72.21
	c-5.36-52.17-68.57-46.17-106.95-41.52c-4.64,0.52-6.49,2.7-6.45,7.55C15.07,58.23,15.18,160.32,15.18,185.46 M667.22,183.63
	c0,7.91,1.23,9.25,9.22,9.52c6.99,0.24,13.99,0.53,20.98,0.5c18.32-0.07,36.64-0.16,54.95-0.53c7.09-0.14,8.3-1.74,8.36-8.82
	c0.08-8.99,0.1-17.99,0.08-26.98c-0.01-6.37-1.33-7.32-7.9-6.68c-11.76,1.14-23.53,2.2-35.31,3.09c-5.93,0.45-6.78-0.49-6.92-6.24
	c-0.1-4.33-0.17-8.66-0.14-12.99c0.05-6.78,0.41-6.99,7.02-7.22c8.15-0.28,16.3-0.82,24.45-1.18c4.42-0.2,6.71-2.22,6.69-6.83
	c-0.02-7.83,0.27-15.66,0.17-23.48c-0.09-6.47-1.94-8.03-8.3-7.26c-8.26,1-16.5,2.16-24.74,3.3c-4.25,0.59-6.25-1.09-6.12-5.47
	c0.15-5.33,0.25-10.66,0.1-15.99c-0.12-4.45,1.62-6.12,6.19-6.15c12.32-0.08,24.64-0.5,36.95-1.04c5.86-0.26,7.38-1.95,7.52-7.7
	c0.23-8.99,0.34-17.99,0.33-26.98c0-5.86-1.4-6.87-7.2-6.77c-26.63,0.46-53.26,0.85-79.89,1.18c-5.9,0.07-7.13,1.13-7,6.86
	 M207.16,185.58c0,7.24,0.87,8.21,7.91,8.21c7.83,0,15.67,0.11,23.49-0.13c13.65-0.42,27.29-1.03,40.93-1.68
	c3.55-0.17,7.41-0.56,7.47-5.46c0.12-10.99,0.19-21.99,0.02-32.97c-0.06-4.09-2.41-5.83-6.71-5.08c-7.21,1.26-14.45,2.36-21.72,3.26
	c-8.5,1.05-9.42,0.3-9.16-8.21c0.78-25.81,1.77-51.61,2.64-77.42c0.41-12.15,0.87-24.31,1.08-36.47c0.1-5.6-2.13-7.65-6.93-7.56
	c-11.14,0.22-22.29,0.49-33.43,0.44c-4.49-0.02-6.2,1.53-6.17,6.14 M299.16,156.05c-0.08,10.33-0.5,20.65-0.73,30.98
	c-0.08,3.52,0.75,6.41,5.14,6.34c22.97-0.4,45.94-0.81,68.9-1.24c4.33-0.08,6.26-2.39,6.24-6.68c-0.04-10.16,0.12-20.33,0-30.49
	c-0.06-5.38-1.74-6.79-7.17-6.2c-8.43,0.92-16.83,2.25-25.27,3.03c-6.26,0.58-6.9-0.08-6.94-6.52c-0.07-11.83-0.15-23.67,0.24-35.49
	c0.89-26.81,2.1-53.61,3.07-80.41c0.22-6.17-1.21-7.52-7.15-7.44c-10.82,0.15-21.64,0.45-32.46,0.55c-4.27,0.04-5.34,2.42-5.33,6.13
	 M188.58,108.1c0-25.81,0.02-51.62-0.02-77.43c-0.01-6.81-1.2-7.87-7.84-7.83c-7.82,0.05-15.65-0.08-23.47,0.06
	c-13.06,0.23-14.92-3.79-14.85,14.62c0.21,49.95,0.56,99.9,0.87,149.85c0.04,6.48,2.05,8.28,8.56,7.84
	c9.3-0.62,18.59-1.29,27.89-1.87c7.77-0.49,8.86-1.58,8.86-9.32C188.58,158.72,188.58,133.41,188.58,108.1z"/>
<g>
	<linearGradient id="SVGID_1_" gradientUnits="userSpaceOnUse" x1="71.8953" y1="194.1533" x2="71.8953" y2="22.5866">
		<stop  offset="1.118836e-06" style="stop-color:#F5A911"/>
		<stop  offset="0.4" style="stop-color:#FFD24A"/>
		<stop  offset="1" style="stop-color:#FFE345"/>
	</linearGradient>
	<path class="st1" d="M15.18,185.46c0.01,6.44,1.21,7.58,7.55,7.79c9.32,0.32,18.64,0.69,27.96,0.88c7.93,0.16,8.9-0.86,8.78-8.86
		c-0.18-12.49-0.53-24.97-0.64-37.46c-1.77-12,8.78-7.22,16.55-8.56c38.52-1.66,57.3-37.74,52.9-72.21
		c-5.36-52.17-68.57-46.17-106.95-41.52c-4.64,0.52-6.49,2.7-6.45,7.55C15.07,58.23,15.18,160.32,15.18,185.46"/>
</g>
<path class="st0" d="M1059.66,189.24c-0.72,4.14-1.13,6.87-1.68,9.57c-1.31,6.55-5.09,11.41-11.79,11.85
	c-15.76,1.03-31.57,1.75-47.35,1.55c-4.35-0.06-8.66-3.82-13.65-6.2c-13.63,12.49-31.9,6.72-48.82,7.38
	c-15.86,0.61-23.04-6.37-24.08-22.29c-0.98-14.94-0.54-29.97-0.76-44.96c-0.03-2.08-0.28-4.16-1.08-6.73
	c-5.01,6.1-11.25,9.11-18.64,9.76c-4.31,0.38-8.63,0.79-12.95,1.03c-6.71,0.37-6.79,0.31-7.19,7.15
	c-0.61,10.48-1.1,20.96-1.68,31.44c-0.12,2.16-0.32,4.32-0.65,6.46c-2.01,12.91-6.89,17.53-19.83,17.76
	c-10.99,0.2-22,0.05-32.97-0.52c-13.7-0.71-20.18-7.32-21.03-21.08c-0.44-7.14-0.27-14.32-0.31-21.49
	c-0.3-44.99-0.61-89.99-0.84-134.98c-0.03-5.98-0.11-12.05,0.76-17.93c1.41-9.5,7.29-14.28,16.89-14.19
	c16.16,0.15,32.32,0.78,48.49,0.81c11.82,0.02,23.65-0.58,35.47-0.9c1.83-0.05,3.78,0.3,5.48-0.2c6.59-1.96,11.57,5.53,19.08,2.19
	c5.72-2.54,13.02-1.57,19.63-2.01c6.65-0.44,13.31-0.72,19.97-0.99c8.11-0.33,16.05-0.15,22.4,6.2c0.63,0.63,2.85,0.08,4.14-0.42
	c4.56-1.73,8.94-4.92,13.58-5.33c26.31-2.29,52.65-1.93,78.69,2.82c18.98,3.46,35.78,10.93,44.81,29.75
	c0.39,0.82,1.22,1.44,2.07,2.4c0.75-0.81,1.45-1.3,1.78-1.97c9.14-18.65,25.5-27.41,44.5-32.51c16.55-4.45,33.16-2.59,49.55,0.57
	c7.55,1.46,14.78,4.78,22,7.63c2.24,0.88,3.19,0.8,5.03-0.9c2.44-2.25,5.54-4.32,8.7-5.12c4.46-1.14,9.22-1.39,13.87-1.43
	c31.16-0.3,62.31-0.39,93.47-0.67c6.76-0.06,13.44-0.34,18.72,6.18c4.95-7.81,12.21-7.62,19.46-7.44
	c13.33,0.32,26.66,0.52,39.98,0.99c11.16,0.39,17.82,7.24,16.92,18.45c-0.84,10.6-2.9,21.1-4.45,31.64
	c-3.8,25.87-7.59,51.75-11.46,77.61c-0.44,2.95-0.72,6.16-2.12,8.67c-2.03,3.65-1.43,5.99,1.07,9.21
	c10.18,13.1,9.52,37.12-1.02,51.26c-10.97,14.73-29.57,20.43-46.77,13.27c-5.6-2.33-11.09-6.5-14.9-11.23
	c-10.67-13.23-14.65-41.74,3.65-57.98c2.24-1.99,2.18-3.29,0.63-6.17c-2.42-4.5-4.54-9.82-4.58-14.81
	c-0.1-11.97,1.09-23.95,1.72-35.92c0.09-1.76,0.01-3.53,0.01-4.78c-8.5,0.27-16.43,0.33-24.32,0.96c-1.32,0.1-3.41,2.56-3.51,4.04
	c-0.46,6.47-0.42,12.99-0.39,19.48c0.11,26.32,0.28,52.65,0.43,78.97c0.01,2.5,0.11,5,0.1,7.5c-0.04,13.19-6.17,19.96-19.29,20.38
	c-12.32,0.39-24.66,0.15-36.99,0.16c-0.83,0-1.66-0.11-2.49-0.23c-10.41-1.46-16.35-7.38-16.66-17.93
	c-0.37-12.81,0.07-25.65,0.07-38.47c0-22.83-0.12-45.66-0.05-68.48c0.01-3.8-1.25-5.64-5.17-5.31c-1.16,0.1-2.33-0.06-3.5-0.06
	c-8.14,0-16.08-0.57-21.54-8.06c-3.22,3.96-6.29,7.42-8.92,11.19c-0.55,0.79,0.1,3.09,0.94,4.04c3.09,3.48,6.77,6.46,9.72,10.04
	c20.61,24.93,19.55,75.34-7.86,99.25c-11.05,9.64-23.87,15.48-38.28,16.83c-24.16,2.28-47.64,0.03-68.88-13.41
	c-1.24-0.78-3.75-0.54-5.21,0.17c-14.53,7.03-29.73,11.63-45.87,12.68c-5.42,0.35-9.76-2.4-12.65-6.81
	C1067.43,202.79,1064.08,196.69,1059.66,189.24z M1043.48,135.01c-0.2-2.87,1.36-5.7,2.95-5.71c1.12-0.5,3.08,1.4,4.11,4.31
	c9.88,19.62,19.65,39.29,29.33,59.01c2.03,4.13,4.74,4.89,8.94,3.5c9.32-3.1,18.71-5.98,28.13-8.75c8.37-2.47,9.11-3.86,4.68-11.31
	c-9.45-15.89-18.94-31.74-28.57-47.52c-2.27-3.72-2.67-6.26,1.56-9.02c18.1-11.8,25.58-28.84,24.9-50.23
	c-0.81-25.42-14.42-44.12-39.05-50.37c-10.54-2.67-21.67-3.68-32.58-4.06c-15.11-0.52-30.27,0.22-45.4,0.52
	c-4.72,0.09-6.67,2.56-6.51,7.4c0.4,11.98,0.53,23.98,0.62,35.97c0.25,34.13,0.5,68.26,0.58,102.39c0.02,7.98-0.82,15.97-0.87,23.95
	c-0.04,6.59,1.96,8.51,8.32,8.37c10.98-0.26,21.95-0.85,32.93-1.12c4.68-0.12,6.49-2.28,6.4-6.86c-0.16-8.16-0.05-16.32-0.05-24.48
	 M1189.61,198.22c8.95-1.7,18.3-2.3,26.79-5.3c37.35-13.2,40.19-59.1,22.96-82.63c-7.94-10.84-19-17.41-30.51-23.63
	c-7.15-3.86-14.32-7.89-20.73-12.82c-6.22-4.78-7.2-11.01-4.15-16.34c2.92-5.1,9.21-7.39,16.29-5.14
	c8.87,2.82,16.59,7.54,22.24,15.29c1.25,1.72,3.54,3.82,5.25,3.74c1.59-0.08,3.65-2.57,4.48-4.46c3.4-7.77,6.43-15.71,9.56-23.61
	c5.27-13.28,4.19-16.16-8.49-22.76c-0.3-0.15-0.6-0.28-0.9-0.43c-18.14-9.13-37.2-9.52-56.52-5.36
	c-36.32,7.83-51.87,46.96-31.4,78.16c6.85,10.44,16.98,16.67,27.29,22.87c8.27,4.97,16.69,9.76,24.52,15.36
	c6.95,4.97,8.43,10.64,5.95,16.87c-2.32,5.83-7.96,8.69-16.16,8.14c-1.32-0.09-2.64-0.32-3.95-0.57
	c-10.85-2.05-20.5-6.66-29.17-13.49c-4.53-3.57-6.77-2.75-9.12,2.38c-3.33,7.26-6.74,14.48-10.38,21.59
	c-3.86,7.53-3.46,8.99,3.19,14.63C1151.95,193.7,1170.27,196.71,1189.61,198.22z M818.09,15.91c-8.79-0.24-9.72,0.51-9.52,9.42
	c0.56,24.98,1.3,49.96,1.49,74.94c0.21,27.48-0.09,54.97-0.21,82.46c-0.05,10.38,0.44,10.91,11,10.94
	c8.5,0.02,16.99,0.09,25.49,0.11c7.53,0.02,8.56-1.06,8.79-8.64c0.45-15.32,0.84-30.64,1.49-45.95c0.38-9.09,0.59-8.99,9.51-9.34
	c7.81-0.3,15.63-0.71,23.42-1.39c7.08-0.62,7.99-1.76,8.03-8.65c0.04-8.16,0.03-16.33-0.04-24.49c-0.07-7.31-1.77-8.66-9.13-7.87
	c-8.94,0.96-17.89,1.77-26.83,2.71c-3.6,0.38-5.29-1.14-5.35-4.74c-0.09-5.66-0.08-11.34-0.48-16.98c-0.33-4.56,1.35-6.16,5.95-6.16
	c12.82,0,25.65-0.35,38.47-0.71c5.93-0.17,7.47-1.56,7.7-7.45c0.41-10.65,0.63-21.31,0.65-31.97c0.01-6.06-1.94-7.52-8.01-7.27
	 M1339.3,68.45c-0.02-4.24,1.67-6.04,5.98-5.85c6.65,0.3,13.32,0.44,19.98,0.34c6.62-0.1,7.91-1.39,8.01-7.98
	c0.17-10.83,0.19-21.66,0.1-32.48c-0.05-6.59-2.41-8.44-9.09-7.89c-7.46,0.62-14.93,1.56-22.4,1.55
	c-25.47-0.03-50.94-0.39-76.4-0.71c-6.28-0.08-9.1,1.83-9.11,7.79c-0.01,11.15,0.42,22.31,0.79,33.46c0.12,3.71,2.18,5.84,6.01,5.96
	c5.49,0.18,11,0.65,16.47,0.4c12.32-0.55,12.18-1.51,12.21,11.95c0.08,36.81,0.11,73.62,0.14,110.43c0.01,7.08,1.24,8.43,8.48,8.44
	c10.33,0.01,20.66-0.09,30.98-0.22c6.16-0.08,7.56-1.71,7.54-7.8c-0.06-19.32-0.02-38.63-0.02-57.95 M925.8,178.96
	c0,2.5-0.09,5.02,0.17,7.49c0.58,5.5,2.57,7.32,8.01,7.35c9.16,0.05,18.33,0.01,27.49-0.08c9.92-0.1,10.95-1.14,10.95-10.9
	c0-22.66-0.37-45.33,0.03-67.98c0.51-29.15,1.57-58.29,2.5-87.43c0.38-11.89-0.55-12.52-12.52-12.01
	c-9.95,0.42-19.95-0.03-29.9-0.51c-6.18-0.3-7.48,0.53-7.47,6.62c0.01,26.99,0.01,53.98,0.01,80.97 M1396.82,69.11
	c-0.81,17.85-1.59,34.64-2.34,51.42c-0.26,5.78,1.77,8.44,7.45,9.09c5.77,0.66,11.6,1.28,17.4,1.24c8.26-0.05,9.68-1.12,10.9-9.15
	c5.12-33.87,10.01-67.77,14.92-101.67c0.66-4.58-1.62-6.47-6.53-6.39c-11.3,0.19-22.61,0.36-33.92,0.24
	c-7.03-0.08-7.88,0.46-7.87,7.35C1396.82,37.55,1396.82,53.86,1396.82,69.11z M1407.4,196.69c17.49-0.02,27.49-9.17,27.57-25.22
	c0.07-14.35-9.63-24.88-23-24.96c-16.03-0.1-26.16,10.28-26.2,26.84C1385.73,188.72,1393.12,196.7,1407.4,196.69z M1124.12,151.58
	c6.71-11.44,10.71-23.57,23.63-28.01c-6.16-7.1-11.84-13.66-17.12-19.75c-5.91,8.47-11.81,16.82-17.55,25.28
	c-0.61,0.89-0.75,2.74-0.23,3.65C1116.2,138.67,1119.8,144.43,1124.12,151.58z"/>
<linearGradient id="SVGID_2_" gradientUnits="userSpaceOnUse" x1="589.7419" y1="197.2912" x2="589.7419" y2="18.1749">
	<stop  offset="1.118836e-06" style="stop-color:#F5A911"/>
	<stop  offset="0.4" style="stop-color:#FFD24A"/>
	<stop  offset="1" style="stop-color:#FFE345"/>
</linearGradient>
<path class="st2" d="M653.5,117c-0.96,10.58-1.6,21.73-3.06,32.78c-3.6,27.2-18.82,42.6-46.27,46.53
	c-22.19,3.18-42.7-1.01-59.1-17.32c-10.8-10.73-15.56-24.77-17.5-39.53c-3.36-25.57-1.67-50.8,6.5-75.47
	c8.96-27.05,31.47-44.97,59.87-45.78c21.36-0.61,39.68,8.74,50.94,33.39c2.13,4.66,3.4,9.72,5.09,14.59
	c1.46,4.22-0.12,7.13-4.3,7.86c-10.16,1.76-20.37,3.33-30.62,4.42c-1.79,0.19-4.37-1.95-5.68-3.69c-1.31-1.75-1.49-4.35-2.17-6.57
	c-3.19-10.43-13.91-14.32-22.33-7.27c-4.26,3.57-8.09,8.72-9.91,13.93c-7.51,21.48-7.6,43.52-1.98,65.44
	c3.18,12.42,12.67,18.01,24.46,15.58c10.84-2.23,17.15-12.07,15.69-24.26c-0.36-3.01-1.65-4.53-4.81-4.38
	c-3.49,0.16-7,0.08-10.49,0.23c-3.67,0.16-5.7-1.55-6-5.14c-0.63-7.46-1.26-14.92-1.72-22.39c-0.26-4.25,3.04-4.74,6.09-4.93
	c6.31-0.4,12.65-0.5,18.96-0.82c9.81-0.5,19.61-1.14,29.43-1.59c6.63-0.3,8.69,1.63,8.9,8.35C653.63,106.1,653.5,111.27,653.5,117z"
	/>
<linearGradient id="SVGID_3_" gradientUnits="userSpaceOnUse" x1="455.676" y1="197.0169" x2="455.676" y2="23.795">
	<stop  offset="1.118836e-06" style="stop-color:#F5A911"/>
	<stop  offset="0.4" style="stop-color:#FFD24A"/>
	<stop  offset="1" style="stop-color:#FFE345"/>
</linearGradient>
<path class="st3" d="M487.37,195.95c-3.91,0.46-5.95-1.67-6.96-5.08c-2.03-6.87-4.16-13.71-5.88-20.66c-0.97-3.94-2.92-5.47-7-5.32
	c-7.32,0.27-14.67,0.3-21.99,0.04c-4.37-0.15-6.7,1.06-7.56,5.74c-1.33,7.2-3.4,14.25-5.1,21.38c-0.95,3.99-3.48,5.38-7.4,4.87
	c-9.91-1.29-19.84-2.44-29.73-3.81c-6.62-0.92-8.43-3.28-7.13-9.3c10.49-48.49,20.94-96.98,31.65-145.42
	c3.22-14.56,3.59-14.53,18.58-14.57c13-0.04,25.99,0.01,38.99,0.13c6.59,0.06,7.73,1.01,9.22,7.37
	c11.72,50.11,23.42,100.21,35.1,150.33c2.02,8.67,1.35,9.73-7.53,10.98C505.58,193.88,496.46,194.85,487.37,195.95z M443.78,123.43
	c-0.87,4.99,0.2,6.03,5.11,5.88c3.32-0.1,6.64-0.45,9.96-0.43c4.67,0.03,6.23-2.2,5.47-6.62"/>
<linearGradient id="SVGID_4_" gradientUnits="userSpaceOnUse" x1="713.7746" y1="193.6532" x2="713.7746" y2="21.7063">
	<stop  offset="1.118836e-06" style="stop-color:#F5A911"/>
	<stop  offset="0.4" style="stop-color:#FFD24A"/>
	<stop  offset="1" style="stop-color:#FFE345"/>
</linearGradient>
<path class="st4" d="M666.73,29.75c-0.13-5.72,1.1-6.79,7-6.86c26.63-0.33,53.26-0.72,79.89-1.18c5.8-0.1,7.19,0.91,7.2,6.77
	c0.01,8.99-0.11,17.99-0.33,26.98c-0.14,5.75-1.66,7.45-7.52,7.7c-12.31,0.54-24.63,0.95-36.95,1.04c-4.58,0.03-6.32,1.7-6.19,6.15
	c0.15,5.32,0.05,10.66-0.1,15.99c-0.13,4.38,1.87,6.06,6.12,5.47c8.24-1.14,16.48-2.3,24.74-3.3c6.36-0.77,8.21,0.79,8.3,7.26
	c0.11,7.83-0.19,15.66-0.17,23.48c0.01,4.61-2.27,6.64-6.69,6.83c-8.15,0.36-16.29,0.89-24.45,1.18c-6.61,0.23-6.97,0.44-7.02,7.22
	c-0.03,4.33,0.04,8.66,0.14,12.99c0.13,5.75,0.98,6.69,6.92,6.24c11.78-0.89,23.55-1.94,35.31-3.09c6.57-0.64,7.89,0.31,7.9,6.68
	c0.01,8.99-0.01,17.99-0.08,26.98c-0.06,7.08-1.27,8.68-8.36,8.82c-18.31,0.37-36.63,0.46-54.95,0.53
	c-6.99,0.03-13.99-0.26-20.98-0.5c-7.99-0.27-9.22-1.61-9.22-9.52C667.22,158.15,666.73,55.23,666.73,29.75"/>
<linearGradient id="SVGID_5_" gradientUnits="userSpaceOnUse" x1="246.8296" y1="193.8218" x2="246.8296" y2="22.0724">
	<stop  offset="1.118836e-06" style="stop-color:#F5A911"/>
	<stop  offset="0.4" style="stop-color:#FFD24A"/>
	<stop  offset="1" style="stop-color:#FFE345"/>
</linearGradient>
<path class="st5" d="M207.16,185.58c0-26.32-0.44-130.61-0.59-156.93c-0.03-4.61,1.68-6.16,6.17-6.14
	c11.14,0.05,22.29-0.22,33.43-0.44c4.8-0.09,7.03,1.96,6.93,7.56c-0.21,12.16-0.67,24.31-1.08,36.47
	c-0.88,25.81-1.86,51.61-2.64,77.42c-0.26,8.5,0.66,9.26,9.16,8.21c7.26-0.9,14.51-2,21.72-3.26c4.3-0.75,6.65,0.99,6.71,5.08
	c0.17,10.99,0.1,21.98-0.02,32.97c-0.06,4.9-3.92,5.29-7.47,5.46c-13.64,0.65-27.28,1.26-40.93,1.68
	c-7.82,0.24-15.66,0.13-23.49,0.13C208.04,193.8,207.16,192.82,207.16,185.58"/>
<linearGradient id="SVGID_6_" gradientUnits="userSpaceOnUse" x1="338.2285" y1="193.371" x2="338.2285" y2="21.915">
	<stop  offset="1.118836e-06" style="stop-color:#F5A911"/>
	<stop  offset="0.4" style="stop-color:#FFD24A"/>
	<stop  offset="1" style="stop-color:#FFE345"/>
</linearGradient>
<path class="st6" d="M299.16,156.05c0-26.49-1.42-100.96-1.46-127.45c-0.01-3.7,1.07-6.09,5.33-6.13
	c10.82-0.11,21.64-0.41,32.46-0.55c5.93-0.08,7.37,1.27,7.15,7.44c-0.97,26.81-2.19,53.6-3.07,80.41
	c-0.39,11.82-0.3,23.66-0.24,35.49c0.04,6.44,0.68,7.11,6.94,6.52c8.44-0.79,16.84-2.12,25.27-3.03c5.43-0.59,7.11,0.82,7.17,6.2
	c0.12,10.16-0.04,20.33,0,30.49c0.02,4.29-1.91,6.6-6.24,6.68c-22.97,0.43-45.94,0.84-68.9,1.24c-4.38,0.08-5.21-2.81-5.14-6.34
	C298.66,176.71,299.08,166.38,299.16,156.05"/>
<linearGradient id="SVGID_7_" gradientUnits="userSpaceOnUse" x1="165.495" y1="195.2827" x2="165.495" y2="22.6885">
	<stop  offset="1.118836e-06" style="stop-color:#F5A911"/>
	<stop  offset="0.4" style="stop-color:#FFD24A"/>
	<stop  offset="1" style="stop-color:#FFE345"/>
</linearGradient>
<path class="st7" d="M188.58,108.1c0,25.31,0,50.62-0.01,75.93c0,7.74-1.1,8.84-8.86,9.32c-9.3,0.58-18.59,1.24-27.89,1.87
	c-6.51,0.44-8.52-1.36-8.56-7.84c-0.31-49.95-0.65-99.9-0.87-149.85c-0.08-18.41,1.78-14.39,14.85-14.62
	c7.82-0.14,15.65-0.01,23.47-0.06c6.64-0.04,7.83,1.02,7.84,7.83C188.61,56.49,188.58,82.29,188.58,108.1z"/>
<linearGradient id="SVGID_8_" gradientUnits="userSpaceOnUse" x1="1060.1346" y1="196.7525" x2="1060.1346" y2="14.6677">
	<stop  offset="1.118836e-06" style="stop-color:#F5A911"/>
	<stop  offset="0.4" style="stop-color:#FFD24A"/>
	<stop  offset="1" style="stop-color:#FFE345"/>
</linearGradient>
<path class="st8" d="M1043.96,185.46c0.09,4.57-1.72,6.74-6.4,6.86c-10.98,0.28-21.95,0.87-32.93,1.12
	c-6.36,0.15-8.36-1.78-8.32-8.37c0.05-7.99,0.89-15.97,0.87-23.95c-0.08-34.13-0.33-68.26-0.58-102.39
	c-0.09-11.99-0.22-23.99-0.62-35.97c-0.16-4.85,1.79-7.31,6.51-7.4c15.14-0.29,30.29-1.04,45.4-0.52
	c10.91,0.38,22.04,1.38,32.58,4.06c24.63,6.25,38.25,24.95,39.05,50.37c0.68,21.38-6.8,38.43-24.9,50.23
	c-4.23,2.76-3.83,5.3-1.56,9.02c9.63,15.77,19.12,31.63,28.57,47.52c4.43,7.45,3.69,8.84-4.68,11.31
	c-9.42,2.78-18.81,5.66-28.13,8.75c-4.2,1.4-6.92,0.64-8.94-3.5c-9.67-19.72-19.45-39.39-29.33-59.01c-0.85-1.7-2.14-4.58-4.11-4.31
	c-2.14,0.3-2.88,3.78-2.95,5.71c-0.32,8.65,0.43,17.32,0.43,25.98c0.19,0-0.19,0,0,0 M1040.72,92.43c0.04,3.01,1.21,4.91,4.7,5.15
	c13.9,0.92,28.28-11.4,29.25-25.24c0.45-6.48-1.49-10.89-7.7-13.05c-6.8-2.37-14.05-3.53-21.17-4.89c-3.7-0.7-5.49,1.2-5.35,5.13"/>
<linearGradient id="SVGID_9_" gradientUnits="userSpaceOnUse" x1="1190.2563" y1="198.2224" x2="1190.2563" y2="12.2387">
	<stop  offset="1.118836e-06" style="stop-color:#F5A911"/>
	<stop  offset="0.4" style="stop-color:#FFD24A"/>
	<stop  offset="1" style="stop-color:#FFE345"/>
</linearGradient>
<path class="st9" d="M1189.61,198.22c-19.34-1.51-37.66-4.53-52.96-17.51c-6.65-5.64-7.05-7.1-3.19-14.63
	c3.64-7.1,7.05-14.33,10.38-21.59c2.35-5.13,4.6-5.95,9.12-2.38c8.67,6.83,18.32,11.44,29.17,13.49c1.31,0.25,2.62,0.48,3.95,0.57
	c8.2,0.55,13.84-2.31,16.16-8.14c2.48-6.23,0.99-11.9-5.95-16.87c-7.83-5.6-16.25-10.39-24.52-15.36
	c-10.31-6.2-20.44-12.43-27.29-22.87c-20.47-31.2-4.92-70.33,31.4-78.16c19.32-4.16,38.38-3.77,56.52,5.36
	c0.3,0.15,0.6,0.28,0.9,0.43c12.68,6.6,13.77,9.49,8.49,22.76c-3.13,7.89-6.16,15.83-9.56,23.61c-0.82,1.88-2.88,4.38-4.48,4.46
	c-1.71,0.08-4-2.02-5.25-3.74c-5.65-7.75-13.36-12.47-22.24-15.29c-7.08-2.25-13.37,0.04-16.29,5.14
	c-3.05,5.33-2.07,11.56,4.15,16.34c6.42,4.92,13.59,8.96,20.73,12.82c11.51,6.21,22.57,12.79,30.51,23.63
	c17.22,23.53,14.39,69.43-22.96,82.63C1207.9,195.92,1198.56,196.52,1189.61,198.22z"/>
<linearGradient id="SVGID_10_" gradientUnits="userSpaceOnUse" x1="858.5189" y1="193.7816" x2="858.5189" y2="14.8738">
	<stop  offset="1.118836e-06" style="stop-color:#F5A911"/>
	<stop  offset="0.4" style="stop-color:#FFD24A"/>
	<stop  offset="1" style="stop-color:#FFE345"/>
</linearGradient>
<path class="st10" d="M900.49,14.88c6.07-0.13,8.02,1.21,8.01,7.27c-0.02,10.66-0.23,21.32-0.65,31.97
	c-0.23,5.89-1.78,7.28-7.7,7.45c-12.82,0.36-25.64,0.71-38.47,0.71c-4.6,0-6.28,1.59-5.95,6.16c0.4,5.64,0.39,11.32,0.48,16.98
	c0.06,3.6,1.75,5.12,5.35,4.74c8.94-0.94,17.89-1.75,26.83-2.71c7.36-0.79,9.06,0.56,9.13,7.87c0.08,8.16,0.08,16.33,0.04,24.49
	c-0.04,6.9-0.95,8.03-8.03,8.65c-7.79,0.68-15.61,1.08-23.42,1.39c-8.91,0.35-9.12,0.24-9.51,9.34
	c-0.65,15.31-1.04,30.63-1.49,45.95c-0.22,7.59-1.25,8.67-8.79,8.64c-8.5-0.02-16.99-0.09-25.49-0.11
	c-10.56-0.03-11.05-0.56-11-10.94c0.12-27.49,0.42-54.97,0.21-82.46c-0.19-24.98-0.94-49.96-1.49-74.94
	c-0.2-8.91,0.74-9.66,9.52-9.42C828.24,16.19,890.33,14.88,900.49,14.88"/>
<linearGradient id="SVGID_11_" gradientUnits="userSpaceOnUse" x1="1314.9045" y1="193.8655" x2="1314.9045" y2="14.4916">
	<stop  offset="1.118836e-06" style="stop-color:#F5A911"/>
	<stop  offset="0.4" style="stop-color:#FFD24A"/>
	<stop  offset="1" style="stop-color:#FFE345"/>
</linearGradient>
<path class="st11" d="M1339,185.85c0.02,6.08-1.38,7.72-7.54,7.8c-10.33,0.13-20.66,0.23-30.98,0.22c-7.24-0.01-8.47-1.35-8.48-8.44
	c-0.04-36.81-0.06-73.62-0.14-110.43c-0.03-13.46,0.12-12.5-12.21-11.95c-5.47,0.24-10.98-0.23-16.47-0.4
	c-3.83-0.12-5.89-2.26-6.01-5.96c-0.37-11.15-0.79-22.31-0.79-33.46c0-5.96,2.83-7.87,9.11-7.79c25.47,0.32,50.93,0.67,76.4,0.71
	c7.47,0.01,14.94-0.94,22.4-1.55c6.67-0.55,9.03,1.3,9.09,7.89c0.09,10.83,0.07,21.66-0.1,32.48c-0.1,6.6-1.39,7.88-8.01,7.98
	c-6.66,0.1-13.33-0.05-19.98-0.34c-4.31-0.19-6,1.6-5.98,5.85c0.08,19.82-0.32,39.64-0.32,59.45"/>
<linearGradient id="SVGID_12_" gradientUnits="userSpaceOnUse" x1="950.0271" y1="193.8259" x2="950.0271" y2="14.8432">
	<stop  offset="1.118836e-06" style="stop-color:#F5A911"/>
	<stop  offset="0.4" style="stop-color:#FFD24A"/>
	<stop  offset="1" style="stop-color:#FFE345"/>
</linearGradient>
<path class="st12" d="M925.05,102.48c0-26.99,0.01-53.98-0.01-80.97c0-6.09,1.29-6.92,7.47-6.62c9.96,0.48,19.96,0.93,29.9,0.51
	c11.98-0.5,12.91,0.12,12.52,12.01c-0.93,29.14-1.99,58.28-2.5,87.43c-0.4,22.65-0.03,45.32-0.03,67.98c0,9.76-1.03,10.8-10.95,10.9
	c-9.16,0.09-18.33,0.13-27.49,0.08c-5.45-0.03-7.43-1.86-8.01-7.35C925.71,183.98,925.05,104.98,925.05,102.48"/>
<linearGradient id="SVGID_13_" gradientUnits="userSpaceOnUse" x1="1419.8545" y1="130.869" x2="1419.8545" y2="13.6536">
	<stop  offset="1.118836e-06" style="stop-color:#F5A911"/>
	<stop  offset="0.4" style="stop-color:#FFD24A"/>
	<stop  offset="1" style="stop-color:#FFE345"/>
</linearGradient>
<path class="st13" d="M1396.82,69.11c0-15.25,0-31.56,0-47.87c0-6.89,0.84-7.42,7.87-7.35c11.3,0.12,22.61-0.05,33.92-0.24
	c4.91-0.08,7.2,1.81,6.53,6.39c-4.9,33.9-9.8,67.8-14.92,101.67c-1.21,8.03-2.63,9.1-10.9,9.15c-5.8,0.04-11.62-0.58-17.4-1.24
	c-5.68-0.65-7.71-3.31-7.45-9.09C1395.23,103.75,1396,86.96,1396.82,69.11z"/>
<linearGradient id="SVGID_14_" gradientUnits="userSpaceOnUse" x1="1410.365" y1="196.688" x2="1410.365" y2="146.5056">
	<stop  offset="1.118836e-06" style="stop-color:#F5A911"/>
	<stop  offset="0.4" style="stop-color:#FFD24A"/>
	<stop  offset="1" style="stop-color:#FFE345"/>
</linearGradient>
<path class="st14" d="M1407.4,196.69c-14.27,0.02-21.67-7.96-21.63-23.34c0.04-16.56,10.17-26.94,26.2-26.84
	c13.37,0.08,23.07,10.61,23,24.96C1434.89,187.52,1424.89,196.67,1407.4,196.69z"/>
<path class="st15" d="M1124.12,151.58c-4.33-7.15-7.92-12.92-11.27-18.82c-0.52-0.91-0.37-2.76,0.23-3.65
	c5.74-8.47,11.64-16.82,17.55-25.28c5.28,6.09,10.96,12.64,17.12,19.75C1134.84,128.01,1130.84,140.14,1124.12,151.58z"/>
<path class="st0" d="M453.17,80.26c-4.21,3.25-8.48,37.94-9.39,43.17c-0.87,4.99,0.2,6.03,5.11,5.88c3.32-0.1,6.64-0.45,9.96-0.43
	c4.67,0.03,6.23-2.2,5.47-6.62c-1.62-9.33-4.05-38.51-7.31-41.91C456.35,79.66,453.93,79.67,453.17,80.26z"/>
<path class="st0" d="M58.47,64.47c-0.03-3.22,1.47-4.59,4.64-4.15c10.16,1.43,18.24,6.24,23.07,15.41
	c3.83,7.28,0.18,18.16-8.14,23.39c-4.08,2.56-9.1,3.75-13.81,5.15c-3.55,1.06-5.31-0.87-5.32-4.45
	C58.9,93.85,58.47,70.44,58.47,64.47"/>
<path class="st0" d="M1040.44,59.52c-0.14-3.93,1.66-5.84,5.35-5.13c7.12,1.36,14.37,2.52,21.17,4.89c6.22,2.16,8.16,6.57,7.7,13.05
	c-0.97,13.84-15.35,26.16-29.25,25.24c-3.49-0.23-4.66-2.13-4.7-5.15C1040.64,86.78,1040.44,65.17,1040.44,59.52"/>
</svg>
