<?xml version="1.0" encoding="utf-8"?>
<!-- Generator: Adobe Illustrator 28.1.0, SVG Export Plug-In . SVG Version: 6.00 Build 0)  -->
<svg version="1.1" id="Layer_1" xmlns="http://www.w3.org/2000/svg" xmlns:xlink="http://www.w3.org/1999/xlink" x="0px" y="0px"
	 viewBox="0 0 1000 1000" style="enable-background:new 0 0 1000 1000;" xml:space="preserve">
<style type="text/css">
	.st0{fill:#998675;}
	.st1{fill:#00A3FF;}
	.st2{fill:#2FAFFF;}
	.st3{fill:#B9D580;}
	.st4{fill:#FCEE21;}
</style>
<g>
	<path class="st0" d="M515.7,1903.2c-3.9,0-7.8-0.3-11.5-1c-148.6-25.7-250.7-93.2-312.3-206.4l-2.6-4.8V1644l7-6.4
		c9.7-8.8,19.9-17.3,29.7-25.5c14.7-12.2,50.1-46.1,58.2-56.4c25.9-32.9-11.2-99.4-32.7-154.8c-45.8-117.4-64.8-295.6,12.2-373.8
		c27.7-28.1,49.4-24.7,68.6-59.3c23.3-42,7.3-76,20.9-146.8c6.9-36,18.2-64.3,26.5-82.4l12.5-20.8c28.3-47.1,57.7-95.9,95-137.8
		l6.8-7.6c42.5-47.9,86.5-97.4,151.6-128.4c26.5-12.6,66-25.3,75.1-57.4c8-28.2-15.4-42.9-2.8-71c11.2-24.9,43-44.8,55.2-51.4
		c3.6-1.9,7.3-4,11-6.1c20.5-11.6,43.7-24.7,68.7-24.7l4.8,0c111.6,0,201.8-50.4,297.2-103.7c32.1-17.9,65.2-36.4,99-52.7
		c32.1-15.5,83.3-25.9,127.4-25.9c35.6,0,83.5,6.6,109.4,37.8c15.4,18.5,27.5,20.7,35.3,20.7c15.9,0,34.5-10,54.3-20.5l8.2-4.4
		c5-2.6,10-5.4,15-8.2c21.8-12.1,44.4-24.6,70-28.5c24.1-3.6,48.8-5.5,73.5-5.5c121.8,0,231.7,42.7,342.9,90.4
		c23.8,10.2,42.8,34.5,51.2,54.1c3.9,9.2,7,18.4,10.1,27.2c9.5,27.8,17,49.8,42.5,63c7.4,3.9,12.8,11,15.8,21.2
		c5.9,19.7,1.8,36.3-4.2,57.6c-19,67.7-7.1,74-25.7,104.6c-6.8,11.2-18.1,26.4-37.2,41.2c-11.1,48.9-1.8,69.6,8.9,79.4
		c17.8,16.5,46.6,7.7,70.8,32c7.5,7.5,14,17,19,29c2.2,0.9,5.7,2.1,10.5,3.5l41.9,12.1c56.6,16.4,115,33.4,172.9,48.4
		c65.1,16.8,127.5,73.1,116.5,130.1c-7.9,41.1,5,46.2,51,57.5l3.8,0.9c57.1,14.2,89.8,48.1,99.9,103.8c1.8,9.7,15.4,25,31.7,35.6
		c38.8,25.3,89.2,67.7,78.5,144.2c-6.8,48.3-88.1,130.1-141.3,130.1l-2.4-0.1c-1.8-0.1-3.5-0.1-5.2-0.1c-46.8,0-75.4,27.4-108.6,59
		c-7.5,7.2-13.9,12.6-26,24c-44.8,42.3-67.1,63.4-69,70.3c-14.4,54,155.3,95.3,162.6,191.4c4,53.1-42.7,108-78.3,123.3
		c-19.6,8.4-55.6,13.1-64.6,13.2c-6,0-12.3-0.3-18.6-0.8c-1.2-0.1-2.5-0.2-3.6-0.2c-15.4,0-22.3,10.3-35.6,35.4
		c-3.4,6.4-6.8,12.9-10.5,18.9c-11.7,19-34.1,36.8-60.1,47.6c-18.3,7.7-40.3,11.9-62.1,11.9c-4.3,0-8.6-0.2-12.9-0.5
		c-16.4-1.3-33-1.4-50.6-1.5c-60.5-0.3-129-0.7-184.3-58.2c-19.5-20.3-35.7-32.8-48.9-41.2c-10.5-6.8-21.2-7.6-21.4-12.3
		c-0.3-8.4,30.3-8.2,49.2-23c35.3-27.6,27.7-104.6,3.1-155.2c-4.7-9.6-35.2-88.5-103-95c-53.9-5.2-93.8-22.5-129.5-56.1
		c-24.9-23.5-62.5-53-100.1-60.3c-87.8-17.1-121.3-77.4-140.7-127.9c-13.6-35.5-34.6-39.6-49.3-39.6c-7.4,0-15.7,1.3-24.5,3.9
		c-67.2,19.7-145.1,43.3-219,74.4c-7.8,3.3-15.2,6.2-22.2,9c0,0-31.5,14.6-55.5,35.4c-35.8,31-51.2,81-55.3,95.5
		c-37.8,134.1,43.4,243.5-1.7,278.9c-23.1,18.1-50.3-2-114,24c-15.7,6.4-30.8,14.1-45.6,23.2c-22.1,13.7-53.8,21.8-84.8,21.8
		c-17.8,0-34.3-2.8-47.7-8.1c-18.2-7.2-35.5-10.7-52.8-10.7c-24.7,0-49.6,6.9-80.6,22.5c-25.9,13-52,27.5-77.1,41.4
		c-24.8,13.8-50.5,28.1-76.5,41.2C561.3,1893,538.1,1903.2,515.7,1903.2z"/>
	<path class="st1" d="M201.3,1748.2c0-10.8,0-21.5,0-32.3c30.7-28,66.6-52.3,90.7-85c22.4-30.3,47.8-71.1,44.3-104.5
		c-5.9-56.3-22.7-117.7-54.6-163.8c-63-90.9-36.8-177.9-7.1-266.2c6.5-19.3,32.8-39.1,54-45.4c59.6-17.6,85.1-53.3,53.7-108.5
		c-28-49.3-18.6-89.3,6.2-130.3c32.5-53.5,63.8-109,105.2-155.5c43.8-49.2,87-100.1,151.4-130.8c43.3-20.6,77-60.5,114.9-91.7
		c-43.7-50-42.6-58.2,13.6-88.6c22-11.9,46.4-28.4,69.6-28.2c159.4,1.8,277.9-94.9,410.2-158.6c51.4-24.8,171.6-40.1,210.1,6.2
		c41.8,50.3,82.8,23.5,125.2,1.2c25.1-13.2,50.8-30.3,77.9-34.3c144.8-21.8,275.6,28.3,404.3,83.4c16.7,7.1,32.5,25.7,39.7,42.7
		c15.7,36.9,19.4,78.6,62.5,101c8,4.2,10,36.5,2.8,49.1c-29.9,52-65.3,100.8-96.8,151.9c-12.3,19.9-29.6,44.9-25.6,63.8
		c3.1,14.7,34.3,27.2,55.3,34c38.9,12.8,85.2,10.2,103.2,58.9c2.3,6.2,14.7,10,23.2,12.4c71.7,20.7,143.2,42,215.4,60.7
		c52.8,13.6,109.1,60.8,100.6,105.3c-12.4,64.7,27.2,72.5,71,83.3c46.7,11.6,74.7,37.3,83.7,86.7c3.4,18.7,23.5,38.3,41.2,49.8
		c46.1,30,76.8,66.8,68.9,123.4c-5.6,40-79.9,113.2-121,111.5c-73.4-3.1-110.6,49.7-155.3,88.3c-36.9,31.8-22.4,68.7,25.5,84.1
		c20.7,6.7,41.4,13.9,61.1,22.9c27.8,12.7,61.5,21.3,80.4,42.2c34.5,38.1-25.1,50.3-31.5,78.8c-1.2,5.2-0.7,11.5-3.5,15.6
		c-46.1,67-70.3,158.5-183.4,148.5c-42.6-3.8-52.6,35.4-70.5,64.5c-10.4,16.9-30.8,31-49.9,39c-19.5,8.2-43.2,11.4-64.5,9.7
		c-76.1-6-157.5,12.7-220.7-53c-59.2-61.5-92.8-57.6-93.4-73.6c-0.5-13.3,5.6-25.3,5.6-25.3c6.6-13.1,13.7-20.5,34.5-31.5
		c39.3-20.8,47.1-52.5,41-90c-9.7-59.4-60.9-107.1-122.6-113c-45.2-4.3-82-17.8-116.4-50.2c-30.8-29-70.8-58.1-111.1-65.9
		c-70.4-13.7-102.4-56.9-124.5-114.4c-18.6-48.4-55.3-62-100.6-48.7c-74.8,21.9-149.7,45.1-221.4,75.2c-44.3,18.6-74.9,25.9-88.9,55
		c-1.9,4-11.8,25.7-5.2,50.1c15.6,58,100.9,48,134.4,106.5c26.2,45.7,7.9,112.3-24.5,151.3c-27.4,33-74.5,50.4-143,54.1
		c-61.4,3.3-116.2,17.3-170,50.5c-29.5,18.2-81,24.5-112.6,11.9c-56.9-22.6-103.6-11.5-151.6,12.5c-52,26.1-101.7,56.5-153.7,82.7
		c-18.5,9.3-42,19.4-60.8,16.1C370.5,1921.4,264.8,1865,201.3,1748.2z"/>
	<path class="st2" d="M505.7,1922.6c-1.3,0-2.6-0.1-3.8-0.3c-132.3-22.9-223.5-81.6-278.6-179.6v-17.3c6.8-6,13.9-11.8,21.2-17.9
		c23.1-19.2,47-39.1,65.3-63.9c36.4-49.2,51.7-87.2,48.3-119.4c-7.2-68-27.9-129.7-58.3-173.6c-54.7-79-36.3-152.3-4.4-247.4
		c3.7-11.1,23.3-26.7,39.5-31.5c40.4-11.9,66.5-31.4,77.4-57.7c10-24.1,6.3-51.7-10.8-81.9c-20.9-36.8-19.3-67.4,5.9-108.8
		l12.6-20.9c27.3-45.4,55.6-92.4,90.3-131.4l6.8-7.6c41.5-46.7,80.6-90.8,137.7-117.9c32.9-15.7,59.9-40.7,86.1-64.8
		c11.4-10.5,22.1-20.5,33.4-29.7l17-14l-14.4-16.5c-5.9-6.8-23.6-27-25.5-34.3c2.8-3.9,13.9-11.1,33-21.4c3.8-2.1,7.7-4.3,11.7-6.5
		c16.5-9.3,33.5-19,46.7-19l4.8,0c123.3,0,222.8-55.6,319-109.4c31.5-17.6,64-35.8,96.6-51.5c21.5-10.3,64.4-21.5,108-21.5
		c36.3,0,63.8,8,75.4,21.9c20.2,24.3,43.5,36.6,69.3,36.6c27.1,0,51.6-13.1,75.3-25.8l8-4.2c5.3-2.8,10.5-5.7,15.9-8.6
		c19.2-10.7,37.4-20.7,55-23.4c21.9-3.3,44.4-5,66.9-5c113.3,0,218.5,41,325.4,86.8c10.2,4.4,22.6,18.1,28.2,31.2
		c3.3,7.7,6,15.8,8.9,24.3c10.1,29.6,21.5,63,58.3,84.5c1.4,6.5,1.1,18.5-0.9,22.5c-17,29.5-36.3,58.8-55.1,87.2
		c-13.7,20.8-28,42.4-41.3,64.1l-3.7,5.9c-13.4,21.4-30,48-24.7,73.4c4.3,20.2,25.8,35.6,69.8,50.1c9.9,3.2,19.8,5.5,29.4,7.7
		c32.2,7.3,50.8,12.7,60.2,38.1c6.1,16.6,25.9,22.3,37.7,25.7l41.8,12.1c56.9,16.5,115.7,33.6,174.2,48.7
		c48.1,12.4,90,52.3,84.6,80.5c-15.9,82.7,41.5,96.9,83.5,107.3l3.7,0.9c40.3,10,60.4,30.8,67.5,69.6c4.7,25.9,29.2,50,50.6,63.9
		c47.3,30.8,65,61.4,59.3,102.5c-4.4,31.3-69.2,92.9-97.7,92.9c-2.9-0.1-5.3-0.2-7.7-0.2c-64.6,0-104.3,37.9-139.3,71.3
		c-8.3,8-16.2,15.5-24.4,22.5c-29.9,25.8-29.8,51.7-27.1,64.9c5.2,24.8,27.1,45.2,60.2,55.9c16.7,5.4,38.4,12.7,58.7,22
		c7.6,3.4,15.6,6.6,23.6,9.8c20.1,8,39.1,15.5,49.7,27.2c4.7,5.2,5.1,7.7,5.1,7.8c-0.7,2.6-8.7,9.5-13.5,13.7
		c-10.8,9.4-24.3,21.1-28.2,38.4c-0.6,2.5-0.9,5.2-1.2,7.9c-0.1,0.7-0.1,1.4-0.2,2.1c-9.1,13.3-17.3,27.4-25.2,41.1
		c-30.3,52-56.4,97-122.1,97c-4.7,0-9.6-0.2-14.7-0.7c-2.6-0.2-5.1-0.3-7.6-0.3c-43.6,0-61.5,33.9-74.6,58.7
		c-2.9,5.6-5.9,11.2-9.1,16.4c-6.9,11.2-22.5,23.1-39.7,30.3c-13,5.4-28.9,8.4-44.8,8.4c-3.2,0-6.3-0.1-9.3-0.4
		c-18.1-1.4-36.3-1.5-53.9-1.6c-59.1-0.3-110.2-0.6-152.5-44.7c-36.8-38.2-64.7-53-81.3-61.9c-1.8-1-3.9-2.1-5.7-3.1
		c0.7-4.4,2.3-8.3,3-9.8c3.9-7.7,6.8-12.3,25.2-22c43.1-22.9,60.7-60.6,52.2-112.3c-11.3-69.1-71.1-124.2-142.1-131
		c-44-4.2-74.9-17.5-103.3-44.3c-29.1-27.5-73.9-62.2-122-71.5c-53.4-10.4-84.7-39.6-108.2-100.8c-16.7-43.5-48.8-67.5-90.4-67.5
		c-11.7,0-24.2,1.9-37.1,5.7c-68.4,20-147.7,44.1-223.7,76c-7.5,3.2-14.6,6-21.3,8.7c-34.1,13.6-63.6,25.3-78.8,57
		c-4.6,9.7-14.5,35.3-6.5,64.8c10.8,40.1,45.4,55.3,76,68.7c24.7,10.8,48,21,60.5,42.9c21,36.6,4.7,94.5-22.4,127.2
		c-23,27.7-64.6,42.8-127.1,46.2c-69.7,3.7-127.1,20.8-180.6,53.8c-14.9,9.2-39.1,15.2-61.4,15.2c-12.2,0-23-1.7-31.2-5
		c-23.5-9.3-46.2-13.9-69.3-13.9c-31.6,0-63.5,8.6-100.6,27.2c-26.8,13.4-53.2,28.1-78.8,42.3c-24.4,13.6-49.7,27.7-74.9,40.4
		C541.8,1911.8,520.3,1922.6,505.7,1922.6z"/>
</g>
<path class="st1" d="M1044.7,823.6c-3.9,27.8-2.5,47.8-9.6,64.4c-99.3,234.4-236.7,426.7-523.8,455c-57,5.6-117.6,23-149.5-40.6
	c-31.8-63.2-11.2-121.5,37.1-171.3c99.7-102.5,199.6-204.8,298.7-307.8c35.3-36.7,66.8-77,103.4-112.3c22.7-22,53.1-34.3,69.9,7.5
	C900.2,791.5,953.5,827.7,1044.7,823.6z"/>
<path class="st1" d="M1559.3,287.1c49.9,11,104.4,15.9,152.9,35.3c63.6,25.4,61.8,62.9,26.3,119.4
	c-84.2,134.4-210,170.7-359.8,168.6c-48.1-0.7-101.7,5-143.6,25.7c-69.9,34.5-129.8,19.4-191.4-11.3c-53.5-26.8-64.2-69.9-22.1-111
	c34.2-33.3,74.2-64.2,117.4-84.6c88.4-41.9,179.6-78.9,271.8-112.1C1456.2,300.8,1506.3,297.3,1559.3,287.1z"/>
</svg>
