<?xml version="1.0" encoding="utf-8"?>
<!-- Generator: Adobe Illustrator 28.1.0, SVG Export Plug-In . SVG Version: 6.00 Build 0)  -->
<svg version="1.1" id="Layer_1" xmlns="http://www.w3.org/2000/svg" xmlns:xlink="http://www.w3.org/1999/xlink" x="0px" y="0px"
	 viewBox="0 0 1000 1000" style="enable-background:new 0 0 1000 1000;" xml:space="preserve">
<style type="text/css">
	.st0{fill:#998675;}
	.st1{fill:#00A3FF;}
	.st2{fill:#2FAFFF;}
	.st3{fill:#B9D580;}
	.st4{fill:#FCEE21;}
</style>
<g>
	<path class="st0" d="M223.3,743.1c-15.3-17.7-13-32.6-13-32.6c0.8-5.1,3.8-13.2,4.1-14.1c2.1-5.6,4.6-11,7.6-16.2l0.1-0.1
		c10.6-18.1,23.1-35.1,37.2-50.5c11.7-12.8,21.2-20.8,28.1-26.7c2.5-2.1,4.7-4,6.6-5.7c34.6-31.8,40-85.8,39.5-91.9
		c-6.6-62.1-25-117.8-52-156.8c-30.4-43.9-43.8-90.8-40.9-143.4c2.4-45.1,15.9-88.3,31.9-136.1c8.4-25.1,39.2-47.7,64-55
		c20.2-6,45.9-17.2,53.8-36.8c5.3-13.2,2.3-30.1-9-49.9c-35.1-61.8-15-110.2,6.4-145.5c4.2-6.9,8.3-13.8,12.5-20.7
		c28.2-46.9,57.4-95.4,94.3-136.9c47.3-53.1,78-70.1,100.4-82.6c20.4-11.3,32.7-18.1,49.3-45.9c8.6-14.4,15.6-29.4,23-45.4
		c15.2-32.9,31-67,63.3-101.1c17.2-18.2,33.3-31.4,47.9-39.3c3.6-1.9,7.2-4,11.1-6.2c19.7-11.1,42.1-23.8,65.1-23.8l0.7,0
		c1.4,0,2.7,0,4.1,0c113.6,0,204.5-50.8,300.8-104.6c32-17.9,65-36.3,98.6-52.5c31.2-15.1,81.2-25.2,124.2-25.2
		c34,0,79.7,6.1,103.9,35.3c17.3,20.8,31.5,23.2,40.7,23.2c17.7,0,37.2-10.4,57.7-21.4c2.7-1.5,5.4-2.9,8.2-4.3
		c5-2.6,9.9-5.4,15.1-8.3c21.3-11.8,43.2-24,67.5-27.6c23.7-3.6,48.1-5.4,72.4-5.4c120.4,0,229.5,42.5,340.1,89.8
		c22,9.4,39.8,32.2,47.6,50.6c3.8,8.9,6.9,18,9.9,26.8c9.6,28,17.8,52.3,45.7,66.8c5.8,3,10,8.9,12.5,17.5
		c4.3,14.7,4.1,38.9-3.7,52.4c-17.6,30.6-37.3,60.4-56.3,89.3c-13.6,20.6-27.6,41.8-40.7,63.1c-1.2,2-2.5,4-3.8,6.1
		c-9.3,15-22.1,35.4-20,46.5c1.4,2.8,12,12.1,45.3,23.1c8.2,2.7,16.9,4.7,26,6.8c32.3,7.4,68.8,15.7,85.9,59.2
		c1.7,1,5.5,2.7,14.1,5.1c14,4,28,8.1,42,12.2c56.6,16.4,115,33.4,172.9,48.4c28.9,7.5,58.8,24.2,80,44.8
		c25.3,24.6,36.5,52.2,31.6,77.8c-5.8,30.2,2,41.1,8.4,46.8c10.3,9,28.5,13.5,47.7,18.3l3.7,0.9c26.9,6.7,47.5,17.5,63,33.2
		c16.4,16.5,26.8,37.9,31.8,65.4c2.1,11.4,16.6,28.2,34.6,39.9c37.3,24.3,85.8,65,75.6,138c-4.6,33-40.1,69.1-50.8,79.3
		c-14.2,13.6-50.8,45.1-83.5,45.1c-0.7,0-1.4,0-2.1,0c-1.9-0.1-3.7-0.1-5.6-0.1c-49.7,0-80.7,29.6-113.6,61
		c-8.3,7.9-16.9,16.1-25.7,23.8c-6.8,5.8-17.7,17.5-15.2,29.9c2.3,11.5,15.6,22.2,35.5,28.6l7.8,2.5c18.8,6.1,29.5,9.5,40.3,14.1
		c8.1,3.5,14,6.6,15.3,7.2c27.2,14.3,65,76.9,49.7,101.8c-9.6,15.5-44.7,24-222.3-30.1c-161.2-49.2-280.1-101.2-312-115.3
		c-292.1-129-379.4-188.9-566-223.6c-46.9-8.7-85.5-13.2-109.7-15.5c-32.2,8.8-100.5,27.9-185,56.6
		C802.8,451.4,252,776.3,223.3,743.1z"/>
	<path class="st1" d="M223.3,743.1c-0.7-7-1-17.3,1.7-29.4c2.5-11.3,6.7-20.2,10.1-26c7.1-12.1,18.5-29.6,35.4-48
		c15.2-16.6,26.1-24.5,33.8-31.5c38.7-35.5,45.3-94.4,44.3-104.5c-5.9-56.3-22.7-117.7-54.6-163.8c-63-90.9-36.8-177.9-7.1-266.2
		c6.5-19.3,32.8-39.1,54-45.4c59.6-17.6,85.1-53.3,53.7-108.5c-28-49.3-18.6-89.3,6.2-130.3c32.5-53.5,63.8-109,105.2-155.5
		c88-98.8,112.5-65.9,151.4-130.8c26.8-44.6,38.1-95.1,84.3-143.9c16.5-17.4,31.4-29.5,44.2-36.4c22-11.9,46.4-28.4,69.6-28.2
		c159.4,1.8,277.9-94.9,410.2-158.6c51.4-24.8,171.6-40.1,210.1,6.2c41.8,50.3,82.8,23.5,125.2,1.2c25.1-13.2,50.8-30.3,77.9-34.3
		c144.8-21.8,275.6,28.3,404.3,83.4c16.7,7.1,32.5,25.7,39.7,42.7c15.7,36.9,19.4,78.6,62.5,101c8,4.2,10,36.5,2.8,49.1
		c-29.9,52-65.3,100.8-96.8,151.9c-12.3,19.9-29.6,44.9-25.6,63.8c3.1,14.7,34.3,27.2,55.3,34c38.9,12.8,85.2,10.2,103.2,58.9
		c2.3,6.2,14.7,10,23.2,12.4c71.7,20.7,143.2,42,215.4,60.7c52.8,13.6,109.1,60.8,100.6,105.3c-12.4,64.7,27.2,72.5,71,83.3
		c46.7,11.6,74.7,37.3,83.7,86.7c3.4,18.7,23.5,38.3,41.2,49.8c46.1,30,76.8,66.8,68.9,123.4c-5.6,40-79.9,113.2-121,111.5
		c-73.4-3.1-110.6,49.7-155.3,88.3c-36.9,31.8-22.4,68.7,25.5,84.1c32.8,10.6,42.6,13.4,61.1,22.9c38.3,19.6,66.4,73.3,56.5,88.4
		c-41.9,64.1-911.4-340.2-1124.2-353.2c-43.1-2.6-86.4-2.6-86.4-2.6s-90.3,0.2-186.5,13C1198.9,281.1,771.1,443.3,223.3,743.1z"/>
	<path class="st2" d="M505.7,922.6c-1.3,0-2.6-0.1-3.8-0.3c-132.3-22.9-223.5-81.6-278.6-179.6v-17.3c6.8-6,13.9-11.8,21.2-17.9
		c23.1-19.2,47-39.1,65.3-63.9c36.4-49.2,51.7-87.2,48.3-119.4c-7.2-68-27.9-129.7-58.3-173.6c-54.7-79-36.3-152.3-4.4-247.4
		c3.7-11.1,23.3-26.7,39.5-31.5c40.4-11.9,66.5-31.4,77.4-57.7c10-24.1,6.3-51.7-10.8-81.9c-20.9-36.8-19.3-67.4,5.9-108.8
		l12.6-20.9c27.3-45.4,55.6-92.4,90.3-131.4l6.8-7.6c41.5-46.7,80.6-90.8,137.7-117.9c32.9-15.7,59.9-40.7,86.1-64.8
		c11.4-10.5,22.1-20.5,33.4-29.7c0.9-10.2,1.7-20.3,2.6-30.5c-3.1-13.6-7.9-42.1,7.5-55.8c2.7-2.4,5.5-3,11.7-6.5
		c16.5-9.3,33.5-19,46.7-19l4.8,0c123.3,0,222.8-55.6,319-109.4c31.5-17.6,64-35.8,96.6-51.5c21.5-10.3,64.4-21.5,108-21.5
		c36.3,0,63.8,8,75.4,21.9c20.2,24.3,43.5,36.6,69.3,36.6c27.1,0,51.6-13.1,75.3-25.8l8-4.2c5.3-2.8,10.5-5.7,15.9-8.6
		c19.2-10.7,37.4-20.7,55-23.4c21.9-3.3,44.4-5,66.9-5c113.3,0,218.5,41,325.4,86.8c10.2,4.4,22.6,18.1,28.2,31.2
		c3.3,7.7,6,15.8,8.9,24.3c10.1,29.6,21.5,63,58.3,84.5c1.4,6.5,1.1,18.5-0.9,22.5c-17,29.5-36.3,58.8-55.1,87.2
		c-13.7,20.8-28,42.4-41.3,64.1l-3.7,5.9c-13.4,21.4-30,48-24.7,73.4c4.3,20.2,25.8,35.6,69.8,50.1c9.9,3.2,19.8,5.5,29.4,7.7
		c32.2,7.3,50.8,12.7,60.2,38.1c6.1,16.6,25.9,22.3,37.7,25.7l41.8,12.1c56.9,16.5,115.7,33.6,174.2,48.7
		c48.1,12.4,90,52.3,84.6,80.5C2513.6-26.2,2571-12.1,2613-1.7l3.7,0.9c40.3,10,60.4,30.8,67.5,69.6c4.7,25.9,29.2,50,50.6,63.9
		c47.3,30.8,65,61.4,59.3,102.5c-4.4,31.3-69.2,92.9-97.7,92.9c-2.9-0.1-5.3-0.2-7.7-0.2c-64.6,0-104.3,37.9-139.3,71.3
		c-8.3,8-16.2,15.5-24.4,22.5c-29.9,25.8-29.8,51.7-27.1,64.9c5.2,24.8,27.1,45.2,60.2,55.9c16.7,5.4,38.4,12.7,58.7,22
		c7.6,3.4,15.6,6.6,23.6,9.8c20.1,8,39.1,15.5,49.7,27.2c4.7,5.2,5.1,7.7,5.1,7.8c-0.7,2.6-8.7,9.5-13.5,13.7
		c-10.8,9.4-24.3,21.1-28.2,38.4c-0.8,3.6-0.4,3.7-1.2,7.9c-4,22.1-19.7,37.3-25.4,43.1c-42.3,42.8-41.4,71.6-76.2,87.6
		c-12.9,5.9-28,9.3-45.9,9.3c-4.7,0-9.6-0.2-14.7-0.7c-2.6-0.2-5.1-0.3-7.6-0.3c-43.6,0-61.5,33.9-74.6,58.7
		c-2.9,5.6-5.9,11.2-9.1,16.4c-6.9,11.2-22.5,23.1-39.7,30.3c-13,5.4-28.9,8.4-44.8,8.4c-3.2,0-6.3-0.1-9.3-0.4
		c-18.1-1.4-36.3-1.5-53.9-1.6c-59.1-0.3-110.2-0.6-152.5-44.7c-25.1-26.1-25.5-28.7-57.4-48.2c-9.2-5.6-28.1-16.2-26.6-26.5
		c0.4-2.5,2-4.2,4.4-7.2c3.4-4.3,8.8-8.4,20.8-14.8c43.1-22.9,60.7-60.6,52.2-112.3c-11.3-69.1-71.1-124.2-142.1-131
		c-44-4.2-74.9-17.5-103.3-44.3c-29.1-27.5-73.9-62.2-122-71.5c-53.4-10.4-84.7-39.6-108.2-100.8c-16.7-43.5-48.8-67.5-90.4-67.5
		c-11.7,0-24.2,1.9-37.1,5.7c-68.4,20-147.7,44.1-223.7,76c-7.5,3.2-14.6,6-21.3,8.7c-34.1,13.6-63.6,25.3-78.8,57
		c-4.6,9.7-14.5,35.3-6.5,64.8c10.8,40.1,45.4,55.3,76,68.7c24.7,10.8,48,21,60.5,42.9c21,36.6,4.7,94.5-22.4,127.2
		c-23,27.7-64.6,42.8-127.1,46.2c-69.7,3.7-127.1,20.8-180.6,53.8c-14.9,9.2-39.1,15.2-61.4,15.2c-12.2,0-23-1.7-31.2-5
		c-23.5-9.3-46.2-13.9-69.3-13.9c-31.6,0-63.5,8.6-100.6,27.2c-26.8,13.4-53.2,28.1-78.8,42.3c-24.4,13.6-49.7,27.7-74.9,40.4
		C541.8,911.8,520.3,922.6,505.7,922.6z"/>
</g>
<path class="st1" d="M1035.2-112c-10.3,379.6,11.8,342.5-6.5,407.1c-55.6,196.5-227.4,423.2-347,398.7
	c-118.6-24.3-226.2-304-290.8-357.3c-3.5-2.9-18.8-13.7-29.1-34.1c-31.8-63.2-11.2-121.5,37.1-171.3
	C498.7,28.5,598.6-73.7,697.7-176.8c35.3-36.7,66.8-77,103.4-112.3c10.6-10.2,26.4-15.1,46.1-19.1c59.8-12.1,122.6,21.1,155.1,63.3
	C1037.7-199,1036.1-143.9,1035.2-112z"/>
</svg>
