<?xml version="1.0" encoding="utf-8"?>
<!-- Generator: Adobe Illustrator 28.1.0, SVG Export Plug-In . SVG Version: 6.00 Build 0)  -->
<svg version="1.1" id="Layer_1" xmlns="http://www.w3.org/2000/svg" xmlns:xlink="http://www.w3.org/1999/xlink" x="0px" y="0px"
	 viewBox="0 0 1000 1000" style="enable-background:new 0 0 1000 1000;" xml:space="preserve">
<style type="text/css">
	.st0{fill:#998675;}
	.st1{fill:#00A3FF;}
	.st2{fill:#2FAFFF;}
	.st3{fill:#B9D580;}
	.st4{fill:#FCEE21;}
</style>
<g>
	<path class="st0" d="M403.9,1934.1c-14.5-1.1-29.6-2.1-45.5-3.2c-38.4-2.6-81.9-5.6-124.4-9.6c-23.5-2.2-42.8-11.2-55.9-26
		c-13-14.7-19.7-34.9-19.2-58.4c0.4-22.4-7.8-34-29.6-41.4c-7.5-2.5-15-5.2-22.2-7.8c-35.1-12.4-68.2-24.2-103.2-24.2
		c-18.3,0-36,3.2-53.9,9.8c-10.9,4-23.3,6-36.9,6c-36.2,0-76.4-14-108.7-25.2c-18.8-6.5-32.4-21-38.4-40.9
		c-8.1-26.9-1.1-59.4,18.3-84.9c10.2-13.4,21-26.3,31.5-38.9c4.7-5.6,9.6-11.4,14.3-17.2c6-7.4,7.7-12.4,7.2-14.5
		c-0.2-1-2.1-6.5-18.6-14.6c-21.8-10.8-44.1-21.8-65.7-32.3c-37.3-18.3-75.8-37.1-113.5-56.3c-23.1-11.7-35.7-24.9-37.5-39.2
		c-9.6-75.7-63.9-92.4-132.8-113.7l-6.5-2c-22.6-7-44.9-10.4-68.2-10.4c-28.2,0-57.4,4.9-91.9,15.5c-12.9,4-26.8,6-41.2,6
		c-41.8,0-88.3-17.1-127.5-46.9c-39.6-30.1-66.9-69.5-74.7-108.1c-5.2-25.5,2.8-57.5,24.4-97.6c16.8-31.2,38.1-59.9,58.7-87.7
		c5.1-6.9,10.4-14,15.4-20.9c12.6-17.3,14.1-25.5,13.2-29.3c-1.2-4.9-8.5-10.9-20.1-16.5c-25.7-12.5-51-30.3-82.2-57.8
		c-19.1-16.8-31.3-33.5-37.3-51c-7.6-22.2-5.4-45.7,6.4-70.1c2.5-5.2,1-20.5-3.9-29.2c-19.1-33-25.7-67.2-19.7-101.5
		c5-28.1,18-56.3,40.9-88.6c22.8-32.2,47.7-66.6,74.6-100.5c31.8-39.9,16.1-73.2-19.4-114c-20.6-23.7-30.7-44.7-31.7-66.2
		c-1-22.6,8.3-44.9,28.4-68.2c3.9-4.6,6.5-19.7,4.8-24.3c-27.5-48.1-12.1-90.6,4.5-126.8c11.7-25.5,10.1-43.2-5.8-63
		c-20.3-25.3-28.9-56-24.2-86.4c5-32.5,24.4-61.4,54.5-81.5c21.7-14.5,46.7-26.9,72.4-36.1c31.7-11.3,64.2-21.9,95.6-32.2
		c51.5-16.8,104.8-34.3,155.4-54.9c52.5-21.4,107.4-31.9,167.9-31.9c76.2,0,151.6,16.8,216.4,32.6c64,15.6,98.3,64.8,128.5,108.2
		c27.9,40.1,21.7,85.9-16,119.7c-25.8,23.1-46.2,55.3-65.9,86.4c-1.6,2.5-3.2,5-4.8,7.5c-6.4,10.1-8.8,19.4-6.6,26.1
		c2.4,7.7,11.1,12.6,17.9,15.4C-71.1,27-42.4,37.6-14.6,47.8c23.4,8.6,47.6,17.6,71.2,26.9c23.8,9.4,45.7,21.7,62.2,31.2
		c21.4,12.5,44,28.7,50,54.4c4.4,18.8-0.7,38.9-15.6,61.4c-3.5,5.4-4.5,9.9-2.8,13.5c2.1,4.4,9,9.4,19.6,10.5
		c11.6,1.2,23.4,2.8,34.9,4.3c25.7,3.4,52.4,6.9,77.2,6.9c16.8,0,31.3-1.6,44.3-4.8c33.6-8.4,67.4-12.6,100.4-12.6
		c87.5,0,173.7,29.1,263.4,89.1c43,28.7,86.8,43.3,130.3,43.3c25.5,0,51.5-5,77.1-15c15.5-6,34.7-9.1,57-9.1
		c46.9,0,108.4,14,164.3,37.6c34.7,14.6,96.9,45.4,123,87.6c15.8,25.6,12.2,65.3,4.3,91.4c-7.3,24.1-23,48.9-48,75.8
		c-6.1,6.6-13.3,16.1-12.7,24.1c0.5,7.2,7.4,16.2,20.5,26.6c4.8,3.9,9.6,7.8,14.3,11.6c8.6,7,17.4,14.2,26.3,21
		c19.4,14.9,46.1,35.3,48.5,65.3c1.6,19.2-6.8,38.6-25.6,59.1c-2.3,7.5,1.8,31,7.8,38.2c68.1,82,43.5,147.1-22.1,231.9
		c-40.2,52-91.3,95.5-140.8,137.6c-4.2,3.6-8.4,7.2-12.6,10.7c-47.6,40.7-100.7,61.3-157.8,61.3c-42.4,0-85.7-11.6-128.4-34.6
		c-3.2-1.7-8.6-2.7-14.9-2.7c-7.1,0-15.1,1.2-22.6,3.3c-7.3,2.1-15.3,8.2-23.8,14.7c-4.8,3.6-9.7,7.4-15,10.9
		c-20.7,13.5-42.2,27.4-44.7,35.9c-2.5,8.2,7.9,30.5,18,52.1c18.2,39.2,22.4,83.2,12.3,127.3c-10.2,44.3-34.6,86.5-70.6,122.2
		c-12.2,12.1-25,26.1-27.2,38.2c-1.2,6.4-0.6,17.2,18,37.2c16.2,17.4,22.5,40.5,17.8,64.9c-6.5,33.7-33.6,65.5-70.6,83
		c-38.2,18-78.6,31.7-117.7,44.9c-4.1,1.4-8.3,2.8-12.4,4.2c-11.2,3.8-22.4,4-35.3,4.2c-6,0.1-12.8,0.2-20.3,0.7l-1.4,0.1
		L403.9,1934.1z"/>
	<path class="st1" d="M405.4,1914.2c-50.7-3.7-110.2-7.2-169.6-12.8c-37.5-3.5-57.8-26.7-57-64c0.6-32.4-14.4-51-43.1-60.7
		c-62.3-21.1-120.1-48.6-192.7-22c-37.1,13.6-90.1-4.7-132.2-19.3c-34.4-12-36.6-60.8-10.7-94.8c14.4-19,30.1-37,45.3-55.4
		c23.6-28.8,8.9-46.4-18-59.7c-59.6-29.6-119.6-58.4-179-88.5c-10.6-5.4-25.6-14.8-26.7-23.9c-11.5-91.2-81.3-110-153.1-132.2
		c-59.5-18.4-114.1-12.6-171.9,5.1c-84.7,25.9-201.3-51.8-218-133.9c-5.2-25.7,8.8-58.9,22.4-84.1c20.3-37.6,47.4-71.6,72.7-106.4
		c22.5-31,27.9-55-14.3-75.5c-28.2-13.7-54-33.9-77.7-54.8c-29-25.5-46.5-55.4-26.1-97.3c6.1-12.6,2.9-35-4.6-47.9
		c-36-62.2-16.8-116.2,20.2-168.5c23.9-33.7,48.2-67.2,73.9-99.6c43-54.1,14.4-100.1-20-139.6c-33.6-38.5-36.7-69.4-3.2-108.2
		c9.1-10.5,13.6-36,7.2-47.1c-22.4-38.9-11.1-73.2,5.1-108.7c13.6-29.6,13.9-56.1-8.4-83.9c-36.2-45.1-24.5-105.3,25.7-138.8
		c20.9-14,44.3-25.4,68-33.9c83.7-29.8,169.7-53.9,251.8-87.4c125.4-51.2,248-28.6,372.1,1.6c56.6,13.8,87.6,58.3,116.8,100.2
		c18.7,26.9,21.5,62.6-13,93.4c-30,26.9-52.2,63.5-74.2,98.1c-18.1,28.4-13.8,56.7,20.6,70.7c51.4,20.9,104,38.7,155.5,59.1
		c20.6,8.1,40.3,18.7,59.4,29.9c35,20.4,57.6,42.6,27.8,87.6c-18.2,27.6,1.9,51.7,31.4,54.9c54.3,5.8,112.4,18.6,163.4,5.9
		c130.6-32.4,243.3,3.8,347.9,73.7c72.7,48.6,148.9,60.1,225.8,30.3c80.6-31.2,276.6,37.9,320,108c11.6,18.8,9.2,51.9,2.2,75.1
		c-7.5,24.9-25.3,48.4-43.5,68c-30.4,32.7-19.2,56.5,9.9,79.9c13.6,10.9,27,22.2,40.9,32.9c34.2,26.3,61.7,50.8,19.4,96
		c-9.7,10.4-4,49,8,63.5c56.8,68.3,44.3,120.5-22.5,206.9c-42.3,54.7-97.5,100.1-150.6,145.4c-79.1,67.6-172.8,73.1-263.7,24.3
		c-14-7.5-36.1-5.7-52.4-1c-16.1,4.6-29.5,18.4-44.2,28c-64.4,41.9-65.5,45.4-34,113.2c32.8,70.6,14.4,158.7-54.3,226.9
		c-35.2,34.9-48.9,60.9-9.7,103.2c31.3,33.7,7.5,90.6-46.7,116.2c-41.1,19.4-84.8,33.6-128,48.3
		C443.2,1914.7,428.4,1912.7,405.4,1914.2z"/>
	<path class="st2" d="M-371.3-322.2c70.7-0.5,143.3,15.7,205.9,30.9c42.6,10.4,67.8,46.6,94.5,85c10.9,15.7,8.7,29.1-7.1,43.3
		c-31.8,28.5-54.4,64.1-76.2,98.6L-159-57c-15.8,24.9-20.4,51.5-12.9,75c5.1,16,18.2,38,51.3,51.5c28.6,11.6,57.7,22.4,85.9,32.8
		c23.1,8.5,46.9,17.3,70,26.4c15.8,6.2,32.5,14.7,54.3,27.4c18.7,10.9,22.1,16.2,22.7,17.4c0,0.9-0.6,5.8-7.5,16.2
		c-14.8,22.5-17.3,48.1-6.9,70.2c11.3,24.1,36,40.3,66,43.6c10.9,1.2,21.9,2.6,33.5,4.1c28.3,3.7,57.6,7.6,87,7.4
		c20.7-0.1,39-2.3,56.1-6.5c28.3-7,56.6-10.7,84.1-10.9C501,297.2,577.4,323.2,658,377c53.3,35.6,108.6,53.4,164.4,53.1
		c32.2-0.2,64.6-6.6,96.4-18.9c5.9-2.3,16.7-5,34.7-5.1c88.3-0.6,213.6,56.3,239.1,97.6c2.7,4.4,4.3,23.4-1.9,44
		c-4.6,15.2-16.4,33.1-35,53.1c-20.3,21.9-29.7,44.7-28,67.9c2.7,36.1,32.3,59.9,42,67.7c4.7,3.7,9.3,7.5,13.9,11.3
		c8.9,7.3,18.1,14.8,27.6,22.1c5.8,4.4,23,17.7,25.9,23.9c-0.5,1.5-2.5,6.6-11.1,15.8c-26.6,28.4-14.3,88.7,6.6,113.9
		c27.1,32.6,28.6,52.2,26.6,67.2c-3.1,22.9-18.5,51.3-50,92c-36.5,47.2-85.3,88.7-132.5,128.9l-12.7,10.8
		c-36.5,31.1-76.5,47.1-118.8,47.4c-33.1,0.2-67.5-9.1-102.1-27.7c-12.1-6.5-26.6-9.7-43.2-9.6c-15.6,0.1-29.1,3.1-37.7,5.5
		c-17.9,5.1-31.8,15.8-43,24.4c-4.1,3.1-7.9,6.1-11.4,8.3c-80.1,52.1-87.2,76.2-47.7,161.2c27,58.1,9.1,128.5-46.6,183.8
		c-24.3,24.1-81.1,80.5-10.8,156.2c2.3,2.5,4.8,6.4,3.3,14.3c-2.5,12.8-15.3,30.6-38.4,41.4c-35.2,16.6-72.3,29.2-111.5,42.4
		l-12.5,4.2c-2.5,0.9-10.4,1-17.4,1.1c-6,0.1-12.7,0.2-20.5,0.6c-13.8-1-28.3-2-43.3-3c-39.9-2.7-81.2-5.6-123-9.5
		c-17.4-1.6-22.8-7.8-22.5-25.3c0.9-47.5-23.6-82.2-69-97.6c-7.2-2.4-14.4-5-21.5-7.5c-38.6-13.7-78.5-27.8-124.1-27.5
		c-24.8,0.2-48.5,4.5-72.4,13.3c-4.3,1.6-9.8,2.4-16.4,2.4c-26.4,0.2-61.8-12.1-90.2-22c-0.5-0.2-1.1-0.4-1.8-2.8
		c-2.3-7.6,0.1-21.3,8.9-33c9.4-12.3,19.3-24.2,29.8-36.7c4.9-5.9,9.8-11.7,14.6-17.6c17.2-21,23.6-42.4,19.1-63.5
		c-7.2-33.4-39.1-49.3-49.6-54.5c-22-10.9-44.3-21.8-65.9-32.4c-37.1-18.2-75.4-36.9-112.7-55.9c-3.2-1.6-5.8-3.2-7.6-4.4
		c-17.9-104.8-103.1-131-171.8-152.2l-6.4-2c-28.9-8.9-57.5-13.2-87.4-13c-33.1,0.2-68,6.1-106.9,18c-7.2,2.2-15.1,3.4-23.5,3.4
		c-60.1,0.4-135.2-55.4-146-108.5c-0.8-4.1-1.9-20.3,18.6-58.4c14.9-27.6,34-53.4,54.2-80.7c5.3-7.1,10.6-14.2,15.8-21.4
		c14.5-20,30.2-46.8,22.6-77.5c-5.7-22.8-22.4-40.7-51-54.7c-20.8-10.1-42.1-25.3-69.2-49.1c-27.5-24.2-24.4-36.8-17-52
		c12.8-26.2,6.7-62-5.9-83.7c-23.3-40.2-18.1-75.9,18.3-127.3c22.4-31.5,46.6-65.2,72.7-97.9c68.3-85.8,1-163-21.1-188.4
		c-23.5-26.9-21.8-36.6-3.1-58.2c18.1-20.9,27.2-63.5,11.4-91c-11.6-20.1-10-37.4,6.7-73.8c20.8-45.2,16.3-86.8-13.4-123.7
		c-10.1-12.6-14.3-26.8-12.1-41.2c2.5-16.2,12.9-31.1,29.3-42c17.8-11.9,38.4-22.1,59.7-29.7c31-11.1,63.1-21.6,94.2-31.7
		c52.5-17.2,106.8-34.9,159.3-56.4C-469.6-312.8-422.9-321.8-371.3-322.2z"/>
	<path class="st1" d="M1077.1,605.8c3.3,4.6,6.2,9.5,8.8,14.6c23.6,46.3,8.8,91.4,1.7,113.1c-25.5,77.6-38.3,116.6-55.3,146.1
		c-39,67.7-104.2,181.1-235.4,253.1c-16.5,9.1-52.9,24.2-150.3,64.7l-0.2,0.1c-26.5,11-58.3,23.9-101.6,38.2
		c-85.8,28.3-131.8,34.2-175.9,22.5c-38.7-10.3-71.3-29.6-96.9-57.4c-1.5-1.6-6.9-7.7-13.5-17c-9.7-13.8-23.1-36.2-31.3-64.6
		c-17.3-59.4-13.6-162.5,53.9-257.1C342,776.6,432.9,737.9,614,660.8l1.2-0.5c13-5.5,47.6-20.3,90.7-45.4c14.2-8.3,28.1-17,41.5-26
		l12.8-8.6l15.1-2.9c14.9-2.9,30.8-6.5,46.1-10l0.8-0.2c13.6-3.1,25.3-5.9,35.4-8.3l0.9-0.2c48.6-11.5,73-17.3,110.1-11.6
		C987.3,549.9,1043.8,558.6,1077.1,605.8z"/>
	<path class="st1" d="M-40.8,861c99.3,158.1,205.7,257.1,208.5,358.8c1.7,60.1-181.9,191.7-244.4,172.6
		c-114-34.8-200-157.7-297.7-243.8C-445.5,1063-454.4,949-403.2,876C-335.2,779-161.5,754.2-40.8,861z"/>
	<path class="st1" d="M-51.8,350c28.7,0,49.2,21.2,73.1,41.4c46.1,38.8,76.1,96.9,94.1,179.7c10.8,50,27.9,89.7,50.7,118.2
		c8.3,10.3,15.3,20,20,36.1c11.9,40.4-4,92.7-28.2,98.4c-10.9,2.6-25.2-2.8-75.6-67.7c-43.7-56.4-86-117-129.2-185.2
		c-9.3-14.6-20.2-36.6-30.6-65.9c-3.1-8.8-8.7-25.3-13.4-46.9c-10.3-47.2-16.8-77-0.2-94.6C-78.3,350-57.8,350-51.8,350z"/>
</g>
</svg>
