<?xml version="1.0" encoding="utf-8"?>
<!-- Generator: Adobe Illustrator 28.1.0, SVG Export Plug-In . SVG Version: 6.00 Build 0)  -->
<svg version="1.1" id="Layer_1" xmlns="http://www.w3.org/2000/svg" xmlns:xlink="http://www.w3.org/1999/xlink" x="0px" y="0px"
	 viewBox="0 0 1000 1000" style="enable-background:new 0 0 1000 1000;" xml:space="preserve">
<style type="text/css">
	.st0{fill:#998675;}
	.st1{fill:#00A3FF;}
	.st2{fill:#2FAFFF;}
</style>
<g>
	<path class="st0" d="M161.6,914.9c-5.7,0-10.5-0.5-11.9-0.6c-20.2-1.1-45.1-13.9-68.4-35.3c-23.5-21.6-38.3-45.5-40.5-65.6
		c-4-36.8-4.2-74.6-0.6-109.1c4.2-40,13.4-75.5,27.2-105.7c16.9-36.9,23.7-69.8,20.6-100.8c-1.2-12.3-7.1-22.1-15.2-35.7
		c-9.7-16.2-21.8-36.5-28.7-67.4c-3.3-14.8-5.3-30.1-6-45.4L38,343l3.4-5.3C63.7,302.5,87,276,110.7,259c20-14.3,40.9-22.4,62-24
		c6-0.5,12.4-1.5,19.2-2.5c12.2-1.9,25.9-4.1,42.9-4.1c10.2,0,20.4,0.8,31,2.4c0.3,0,0.8,0.1,1.6,0.1c12.8,0,28.9-9.8,30.9-13.5
		c20.6-44.7,51.8-76,95.3-95.7c37.1-16.7,77.7-22.8,117-28.7c14.4-2.1,28-4.2,41.3-6.7C653.4,67.2,755.6,62.6,869,59
		c1.7-0.1,3.4-0.1,5.1-0.1c28.8,0,56.8,7.7,83.9,15.1c14.9,4.1,30.3,8.3,45,10.9c13.3,2.4,26.8,5.3,39.8,8.1
		c29.5,6.4,59.9,13,88.2,13c5.2,0,10.2-0.2,15-0.7c44.7-4,90.2-12.8,134.2-21.4c43.9-8.5,89.2-17.2,134.7-21.6
		c38.6-3.7,77.2-5.6,114.9-5.6c43.7,0,86.8,2.5,128,7.5c37.3,4.5,70.2,38.8,96.7,66.4c1.4,1.5,2.8,2.9,4.2,4.3
		c17,17.7,31.7,37.4,45.9,56.5c14.8,19.8,30,40.3,47.1,57.2c13.7,13.5,31.1,25,48,36.1c21.2,14,43.1,28.5,60.8,48.2
		c21.7,24.2,28.1,51.9,29.6,59.8l0,0.2c1.6,8.4-1,17.1-7.8,25.9c-27.5,35.7-134.1,82-325.7,141.5c-152.5,47.3-354.7,101.6-601,161.2
		C633.1,824.2,204.3,912.2,168.1,914.7C166,914.8,163.8,914.9,161.6,914.9z"/>
	<path class="st1" d="M175.4,916.7c-8.6,0.6-16.9-0.4-16.9-0.4c-17.7-0.8-41.1-13-62.4-32.6c-21.4-19.7-35.4-41.9-37.3-59.4
		c-4-36.1-4.2-73.1-0.6-107c4.1-38.9,13-73.4,26.4-102.6c17.7-38.5,24.7-73.2,21.5-106c-1.4-14.5-8.1-25.7-16.5-39.9
		c-9.3-15.6-20.9-35.1-27.5-64.5c-3.2-14.3-5.1-28.9-5.8-43.6l-0.1-3.1l1.7-2.7c21.6-34.1,44-59.6,66.7-75.9
		c18.5-13.3,37.6-20.7,56.9-22.2c6.4-0.5,13-1.5,20-2.6c11.8-1.8,25.2-3.9,41.3-3.9c9.7,0,19.4,0.7,29.5,2.3c0.9,0.1,2,0.2,3.1,0.2
		c15.4,0,36.3-11.2,40-19.2c19.5-42.5,49.1-72.2,90.4-90.8c35.8-16.2,75.7-22.1,114.3-27.9c14.5-2.2,28.1-4.2,41.7-6.8
		c100.8-19,202.6-23.6,315.7-27.3c1.6-0.1,3.2-0.1,4.8-0.1c27.4,0,54.8,7.5,81.2,14.7c15.1,4.1,30.7,8.4,45.9,11.1
		c13.1,2.4,26.5,5.3,39.4,8.1c30,6.5,61,13.3,90.3,13.3c5.5,0,10.8-0.2,15.9-0.7c45.2-4.1,90.9-12.9,135.2-21.5
		c43.6-8.4,88.7-17.2,133.7-21.5c38.3-3.7,76.6-5.5,114-5.5c43.3,0,86,2.5,126.8,7.4c33.7,4.1,65.3,37,90.7,63.4
		c1.4,1.5,2.8,2.9,4.2,4.4c16.6,17.2,31.1,36.7,45.1,55.5c15,20.1,30.5,41,48.2,58.3c14.4,14.1,32.2,25.9,49.5,37.3
		c20.7,13.7,42,27.8,58.9,46.6c22.2,24.7,26.8,53.1,27.2,55.2C2013.7,541.4,244.2,911.9,175.4,916.7z"/>
	<path class="st2" d="M76.5,372.4c46-72.6,86.2-91.2,115.9-93.4c24-1.8,47.9-10.5,88.6-4.4c16.9,2.5,47.1-10.5,53.6-24.7
		c49-106.4,151.8-103.3,239.2-119.8c102.9-19.4,209.1-23.7,314.1-27.1c42.9-1.4,86.3,17.9,129.8,25.7c49.3,8.8,99.8,25.2,148.3,20.8
		c90.2-8.2,178.8-34.3,269-43c79-7.6,160-7.6,238.6,1.9c31.9,3.8,63.3,38.2,88.8,64.8c33.9,35.2,58.7,79.9,93.5,114
		c32.3,31.8,77.9,50,107.9,83.4c33.9,37.8,34.2,77.9-2.6,126.6c-40.6,53.7-63.2,122-92.1,184.7c-36.2,78.5-97.4,112.8-179.8,125.6
		c-34.1,5.3-74.3,32.1-93.7,61.6c-60.5,92.1-147.8,124.9-257.6,118c-131.4-8.3-227.2-57.6-297-172.8c-10.9-18-25.6-28.2-41.2-29.9
		c-13.6-1.5-25.5,6.8-59.4,36.1C914.5,842.8,901.5,854,892,864c-44.3,46.6-179.2,132.8-303.5,107.6c-28.7-5.8-58.5-11.9-85.5-35.6
		c-25.6-22.4-29.4-43.6-55.1-54.7c-24.6-10.5-48.7-2.9-70.5,3.2c-67.9,18.9-139.3,37.1-208.2,33.9c-32.9-1.6-86.7-50.8-90.2-83.1
		c-7.3-67-2.5-144.4,24.9-204.3c18.7-40.7,25.7-76.9,22.3-111.1c-3.4-34.6-32.3-52-44.2-105.6C78.1,396.9,76.9,382.2,76.5,372.4z"/>
	<path class="st1" d="M1364.3,798c-4.7,0-9.8-0.2-15-0.5c-37.1-2.3-65.1-9.1-85.7-20.8c-12.3-7-31.1-20.3-52.8-56
		c-42.1-69.5-140.6-118.7-217.2-126.6c-109.2-11.3-195.6,62-219.7,83.9c-8.1,11.3-32.6,42.2-77.3,57.4c-40.3,13.7-74.9,7.1-88.7,3.6
		c-16.1-6.7-40-16-69.5-25.5c-55.5-17.9-83.2-26.8-117-26.8c-56.7,0.1-68.6,23.8-99.1,15.2C298.4,695,268.8,669.6,248,585
		c-0.8-1.8-16.5-38.7,7-72c23.2-32.9,62.7-31,64.8-30.8c24.5-3.7,64.6-13,106.5-39.5c28.8-18.2,49.2-38.8,62.7-54.7
		c27.5-27.7,52.8-38.5,71-43.3c17.1-4.5,23.6-2.4,49.6-8.1c30.6-6.7,46.3-14.8,65.4-21.6c22.6-8,55.8-16,101-15
		c76.5,6.6,117.4,14.2,140.9,20.2c5.6,1.4,30,9.2,64.4,15.3c9.3,1.7,20.2,4,31.8,6.6c37,8.1,83.1,18.1,135,18.1
		c11.8,0,23.5-0.5,34.8-1.6c55.7-5,106.7-14.9,156.1-24.5c40.6-7.8,78.9-15.2,113.9-18.6c31.6-3,63.3-4.6,94-4.6
		c21,0,41.7,0.7,62,2.1c14.3,7.4,35,20.1,55.2,40.9c11.4,11.7,38.4,40.2,50.5,85.7c5.5,20.7,0.8,54.9-8.7,123.4
		c-1.8,13.2-4.7,32.3-19.6,44.9c-11.3,9.6-24.4,11.1-28.9,11.7c-67.4,9.4-199.8,100.8-230.1,149.5c-2.9,4.6-8.9,15.4-21.5,21.9
		C1392.9,797.7,1376.9,798,1364.3,798z"/>
</g>
</svg>
